<?xml version="1.0" standalone="no"?>
<!DOCTYPE svg PUBLIC "-//W3C//DTD SVG 20010904//EN"
 "http://www.w3.org/TR/2001/REC-SVG-20010904/DTD/svg10.dtd">
<svg version="1.0" xmlns="http://www.w3.org/2000/svg"
 width="994.000000pt" height="994.000000pt" viewBox="0 0 994.000000 994.000000"
 preserveAspectRatio="xMidYMid meet">
<metadata>
Created by potrace 1.14, written by Peter Selinger 2001-2017
</metadata>
<g transform="translate(0.000000,994.000000) scale(0.100000,-0.100000)"
fill="#000000" stroke="none">
<path d="M4605 8729 c3 -3 -15 -5 -38 -4 -23 1 -47 -2 -54 -7 -7 -5 -14 -5
-18 2 -4 7 -13 6 -28 -2 -26 -14 -27 -14 -38 4 -7 10 -9 9 -9 -4 0 -9 -5 -20
-12 -24 -6 -4 -8 -3 -4 4 7 12 -12 20 -36 14 -10 -2 -15 -9 -11 -16 5 -7 2 -7
-8 1 -9 7 -20 8 -29 3 -8 -5 -21 -5 -32 1 -17 9 -22 5 -19 -13 2 -13 -17 -9
-22 5 -4 10 -6 10 -6 0 -1 -7 -5 -13 -11 -13 -5 0 -7 8 -3 18 4 12 0 11 -14
-6 -15 -16 -23 -19 -26 -10 -4 9 -6 10 -6 1 -1 -7 -7 -10 -14 -7 -8 3 -26 0
-41 -6 -17 -6 -25 -6 -21 0 9 15 -4 12 -21 -5 -10 -10 -22 -12 -37 -6 -25 9
-47 4 -47 -11 0 -6 8 -5 18 3 15 13 16 12 3 -3 -7 -10 -18 -14 -25 -10 -18 12
-50 8 -64 -8 -8 -8 -11 -10 -8 -3 4 6 2 14 -3 17 -5 3 -12 -1 -15 -10 -4 -9
-9 -14 -13 -11 -3 4 -13 1 -21 -6 -13 -10 -14 -9 -8 1 7 11 4 12 -11 3 -11 -6
-23 -7 -27 -4 -3 3 -6 0 -6 -8 -1 -10 -4 -9 -14 4 -13 17 -14 17 -18 -1 -4
-14 -14 -18 -39 -17 -18 1 -45 -5 -61 -12 -15 -8 -33 -11 -39 -7 -8 5 -9 3 -4
-6 6 -10 4 -12 -8 -7 -9 3 -19 2 -22 -3 -3 -5 -13 -6 -22 -3 -11 4 -14 3 -9
-5 5 -8 2 -10 -8 -6 -10 4 -16 1 -16 -7 0 -11 -3 -11 -10 1 -7 11 -10 11 -10
2 0 -7 -4 -10 -10 -7 -5 3 -10 1 -10 -4 0 -6 -5 -11 -11 -11 -5 0 -7 6 -3 13
6 9 5 9 -8 0 -8 -7 -18 -10 -21 -6 -4 3 -7 2 -7 -4 0 -6 -7 -14 -16 -17 -10
-4 -13 -2 -8 7 6 8 3 8 -9 -1 -9 -8 -22 -10 -28 -6 -9 5 -10 2 -6 -10 6 -14 4
-15 -14 -5 -16 8 -20 8 -14 -1 4 -7 1 -10 -11 -8 -12 2 -18 -2 -16 -11 2 -11
0 -12 -11 -3 -10 9 -18 8 -34 -3 -11 -8 -23 -11 -27 -8 -3 3 -6 1 -6 -5 0 -7
-3 -11 -7 -11 -5 1 -10 0 -13 -1 -6 -2 -30 -8 -57 -14 -10 -2 -17 -8 -16 -13
1 -6 -6 -10 -15 -10 -50 0 -62 -4 -62 -20 0 -15 -2 -16 -10 -3 -7 11 -10 11
-10 2 0 -7 -5 -10 -10 -7 -6 3 -13 -1 -16 -10 -5 -13 -9 -13 -22 -3 -12 10
-14 10 -8 1 7 -12 -6 -17 -41 -16 -7 1 -10 -4 -6 -10 4 -6 0 -8 -11 -4 -10 4
-15 3 -11 -3 6 -9 -8 -14 -27 -11 -5 0 -8 -4 -8 -10 0 -5 -4 -8 -9 -4 -5 3
-12 1 -16 -5 -3 -5 -15 -10 -26 -10 -13 0 -18 -4 -13 -12 5 -8 2 -9 -9 -5 -10
4 -17 1 -17 -5 0 -6 -3 -8 -6 -5 -8 8 -63 -21 -82 -43 -8 -8 -11 -9 -7 -2 10
19 -2 14 -26 -10 -12 -13 -19 -17 -14 -10 6 11 3 11 -16 0 -13 -7 -29 -19 -35
-27 -6 -8 -16 -11 -22 -7 -6 3 -17 -1 -25 -9 -9 -8 -20 -15 -26 -15 -6 0 -11
-5 -11 -11 0 -5 -4 -7 -10 -4 -5 3 -10 1 -10 -5 0 -6 -4 -9 -9 -5 -5 3 -12 1
-16 -5 -4 -6 -11 -7 -17 -4 -8 5 -9 1 -5 -10 4 -9 3 -15 -2 -12 -4 3 -16 -3
-26 -14 -10 -11 -21 -17 -26 -15 -4 3 -10 1 -14 -5 -3 -5 -15 -10 -26 -10 -11
0 -18 -4 -14 -9 3 -5 1 -12 -5 -16 -5 -3 -10 -1 -10 5 0 6 -5 8 -10 5 -6 -4
-8 -11 -5 -16 3 -5 -2 -6 -11 -2 -13 5 -15 3 -9 -7 6 -10 3 -12 -13 -8 -15 4
-19 2 -15 -8 5 -13 -14 -19 -40 -15 -5 1 -6 -3 -2 -8 3 -6 -6 -13 -20 -17 -14
-3 -22 -11 -18 -17 4 -6 0 -8 -11 -4 -10 4 -15 3 -11 -3 6 -9 -8 -15 -29 -11
-5 1 -6 -5 -2 -14 3 -9 2 -13 -4 -10 -11 7 -47 -10 -42 -19 1 -3 -1 -7 -5 -8
-5 0 -14 -8 -21 -17 -11 -13 -12 -13 -7 -1 4 9 0 7 -9 -4 -8 -10 -19 -15 -25
-12 -5 4 -13 1 -17 -5 -4 -8 -3 -9 4 -5 7 4 12 2 12 -3 0 -6 -9 -11 -21 -11
-11 0 -18 -4 -14 -9 6 -10 -33 -27 -50 -22 -5 1 -7 0 -3 -4 4 -4 0 -14 -8 -22
-12 -13 -21 -16 -54 -22 -3 -1 2 -6 10 -11 12 -8 10 -10 -8 -10 -15 0 -21 -4
-16 -12 5 -8 2 -9 -9 -5 -11 4 -17 1 -17 -8 0 -8 -6 -14 -12 -13 -7 2 -12 -3
-10 -9 1 -7 -5 -13 -13 -13 -17 0 -61 -41 -57 -53 1 -4 -1 -6 -5 -6 -22 4 -33
-2 -27 -13 5 -8 2 -9 -9 -5 -9 3 -19 1 -23 -5 -5 -7 -2 -8 7 -3 8 4 3 -3 -11
-16 -14 -14 -27 -24 -29 -23 -1 2 -23 -18 -47 -42 -26 -27 -48 -43 -55 -38 -8
4 -9 3 -5 -4 4 -7 2 -12 -4 -12 -6 0 -8 -4 -5 -10 3 -5 2 -10 -3 -10 -14 0
-52 -36 -52 -49 0 -6 -3 -10 -7 -10 -5 1 -15 1 -23 0 -13 -1 -13 -2 0 -11 11
-7 11 -10 2 -10 -17 0 -62 -45 -62 -62 0 -9 -3 -9 -10 2 -9 13 -10 13 -11 0
-1 -8 -1 -18 0 -22 0 -5 -5 -8 -12 -8 -15 0 -76 -60 -61 -60 5 -1 -2 -7 -16
-15 -14 -8 -22 -14 -18 -15 5 0 0 -8 -10 -18 -9 -11 -21 -17 -26 -14 -5 3 -7
-2 -3 -11 4 -11 1 -17 -8 -17 -8 0 -15 -3 -15 -8 0 -15 -58 -71 -66 -64 -5 4
-2 -2 6 -12 10 -13 10 -17 3 -12 -8 4 -13 2 -13 -4 0 -6 -5 -8 -10 -5 -6 3
-10 1 -10 -5 0 -6 -5 -8 -12 -4 -9 5 -9 2 1 -9 7 -9 9 -17 4 -17 -5 0 -18 -7
-29 -16 -10 -8 -12 -12 -4 -8 13 7 13 5 1 -9 -7 -9 -18 -14 -24 -10 -6 3 -7 1
-3 -5 4 -7 3 -12 -3 -12 -6 0 -8 -7 -5 -15 5 -11 2 -13 -12 -8 -12 4 -15 3
-10 -5 4 -7 2 -12 -4 -12 -6 0 -8 -4 -5 -10 3 -5 -2 -10 -12 -10 -15 0 -16 -2
-3 -10 11 -7 12 -10 2 -10 -17 0 -43 -26 -35 -34 4 -3 1 -6 -6 -6 -7 0 -10 -4
-7 -9 3 -5 -1 -12 -10 -15 -8 -3 -12 -11 -9 -16 4 -6 1 -9 -7 -8 -7 2 -12 -3
-11 -9 2 -7 -2 -13 -7 -13 -6 0 -10 -7 -10 -16 0 -8 -4 -13 -9 -9 -5 3 -15
-11 -21 -30 -6 -19 -15 -33 -19 -30 -9 5 -36 -45 -32 -59 1 -5 -5 -6 -13 -3
-10 4 -13 -1 -11 -19 1 -14 0 -23 -2 -20 -7 7 -32 -18 -26 -26 2 -5 -1 -8 -7
-8 -7 0 -9 -7 -6 -16 3 -8 2 -12 -4 -9 -6 3 -10 1 -10 -5 0 -6 -4 -9 -8 -6 -4
2 -9 -5 -9 -17 -1 -12 -7 -23 -13 -25 -5 -2 -10 -10 -10 -18 0 -9 -5 -12 -12
-8 -8 5 -9 2 -5 -9 4 -10 2 -17 -4 -17 -6 0 -8 -7 -5 -16 3 -8 2 -12 -4 -9 -6
3 -10 -2 -10 -12 0 -15 -2 -16 -11 -3 -8 12 -10 9 -6 -12 2 -15 0 -25 -4 -22
-5 3 -9 -2 -9 -10 0 -9 -4 -16 -10 -16 -5 0 -10 -7 -10 -16 0 -8 -4 -13 -9 -9
-6 3 -8 -4 -6 -15 3 -14 -1 -20 -13 -20 -15 0 -15 -2 -2 -10 12 -8 11 -11 -8
-16 -17 -5 -20 -9 -11 -15 11 -6 10 -9 -3 -14 -9 -4 -14 -13 -11 -21 3 -8 1
-14 -5 -14 -5 0 -13 -12 -17 -27 -3 -15 -14 -33 -23 -41 -12 -9 -13 -12 -2 -7
10 4 9 2 -2 -8 -10 -8 -14 -17 -10 -21 4 -4 -2 -14 -12 -22 -11 -8 -16 -14
-12 -14 5 0 3 -7 -4 -15 -6 -8 -8 -20 -4 -26 4 -8 3 -9 -4 -5 -11 6 -16 -6
-13 -26 0 -5 -4 -8 -10 -8 -5 0 -7 -4 -4 -10 3 -5 2 -10 -4 -10 -6 0 -7 -7 -4
-17 4 -11 3 -14 -5 -9 -7 4 -13 1 -14 -6 0 -7 -2 -20 -2 -28 -1 -8 -8 -14 -14
-12 -10 2 -10 -3 -1 -20 6 -13 8 -20 4 -16 -14 13 -33 -35 -21 -51 9 -12 7
-12 -12 -2 -22 12 -23 11 -12 -8 8 -15 8 -21 0 -21 -6 0 -8 -4 -5 -10 3 -5 1
-10 -5 -10 -6 0 -8 -4 -5 -10 3 -5 2 -10 -4 -10 -6 0 -7 -7 -4 -17 4 -10 2
-14 -4 -10 -6 4 -9 -3 -7 -18 2 -23 -6 -30 -29 -26 -4 1 -4 -7 1 -16 10 -20 5
-46 -8 -38 -5 3 -7 -6 -4 -19 2 -14 0 -28 -6 -31 -6 -4 -8 -11 -5 -16 4 -5 1
-9 -5 -9 -7 0 -10 -7 -7 -15 4 -8 2 -17 -4 -20 -5 -4 -7 -11 -3 -16 3 -5 2 -9
-3 -8 -20 4 -27 -2 -13 -12 11 -8 12 -12 3 -16 -7 -2 -13 -13 -13 -23 0 -10
-6 -21 -12 -23 -10 -4 -9 -8 2 -16 13 -10 13 -12 0 -21 -15 -9 -16 -13 -19
-51 0 -11 -5 -17 -11 -14 -5 3 -9 -2 -8 -12 3 -38 -2 -54 -14 -47 -11 6 -11 4
0 -7 15 -17 16 -33 0 -23 -7 5 -9 2 -5 -9 3 -8 -1 -21 -9 -28 -11 -9 -12 -15
-3 -25 9 -11 8 -14 0 -14 -7 0 -9 -4 -6 -10 3 -5 0 -10 -7 -10 -8 0 -9 -3 -3
-8 6 -4 11 -15 12 -25 1 -13 -4 -17 -15 -12 -9 3 -13 3 -9 -1 4 -4 1 -14 -6
-22 -9 -13 -9 -14 1 -8 14 8 16 -3 2 -24 -6 -9 -5 -20 3 -29 10 -12 9 -14 -7
-8 -14 6 -17 4 -12 -9 3 -9 3 -21 -1 -27 -4 -7 -8 -25 -9 -42 -4 -45 -12 -75
-26 -93 -10 -12 -10 -14 -1 -8 8 4 13 1 13 -8 0 -9 -6 -16 -12 -16 -9 0 -8 -4
2 -10 8 -5 10 -10 3 -10 -6 0 -10 -11 -9 -24 2 -14 0 -30 -5 -37 -4 -8 -3 -20
4 -28 9 -12 9 -13 -1 -7 -7 4 -12 2 -12 -4 0 -6 -5 -8 -12 -4 -7 4 -8 3 -4 -5
4 -6 11 -9 16 -6 11 7 5 -27 -10 -54 -8 -16 -8 -21 1 -21 8 0 8 -4 -1 -15 -7
-9 -10 -18 -7 -22 4 -3 1 -13 -6 -21 -8 -11 -8 -14 0 -9 6 4 14 3 18 -3 3 -5
0 -10 -8 -10 -10 0 -13 -11 -11 -40 1 -22 -2 -40 -7 -40 -5 0 -5 -10 -1 -22
10 -29 4 -60 -10 -52 -5 4 -3 -5 7 -19 12 -19 13 -27 4 -33 -7 -4 -9 -3 -5 4
3 6 2 13 -2 16 -10 6 -10 -40 1 -50 3 -4 2 -14 -2 -23 -12 -22 -12 -533 0
-525 5 3 4 -7 -3 -22 -10 -22 -10 -28 0 -32 6 -2 12 -8 12 -13 0 -6 -4 -8 -8
-5 -11 7 -8 -51 3 -61 4 -5 5 -2 0 6 -6 10 -4 12 5 6 10 -6 9 -11 -5 -22 -11
-7 -13 -13 -6 -13 7 0 10 -4 7 -9 -4 -5 0 -12 6 -14 9 -4 9 -6 1 -6 -8 -1 -9
-10 -3 -31 5 -18 5 -32 -1 -36 -6 -3 -6 -10 -1 -17 15 -20 23 -89 9 -80 -7 4
-4 -6 7 -21 10 -16 12 -25 5 -21 -8 6 -10 4 -4 -5 14 -23 16 -72 2 -65 -6 4
-5 1 4 -7 9 -7 14 -19 12 -25 -3 -7 2 -26 11 -43 8 -17 10 -28 5 -25 -5 4 -9
-1 -9 -9 0 -8 5 -18 10 -21 6 -3 10 -11 10 -16 0 -6 -6 -7 -12 -2 -7 4 -5 -5
5 -20 10 -15 13 -27 7 -27 -7 0 -8 -5 -3 -13 8 -12 12 -27 16 -62 1 -11 6 -23
11 -27 6 -4 5 -13 -3 -21 -10 -13 -9 -17 6 -26 14 -8 15 -11 3 -11 -12 -1 -12
-3 2 -13 11 -9 14 -18 8 -27 -5 -8 -3 -25 6 -43 9 -16 13 -35 10 -43 -4 -10
-2 -12 6 -8 8 5 9 2 5 -9 -3 -10 -2 -17 4 -17 6 0 7 -5 4 -10 -4 -6 -1 -18 7
-27 9 -12 9 -15 1 -9 -9 5 -11 2 -7 -8 3 -9 10 -13 15 -10 5 3 6 -2 3 -10 -4
-9 -1 -16 6 -16 9 0 10 -4 2 -13 -8 -10 -6 -21 7 -43 14 -23 16 -35 9 -49 -8
-13 -7 -16 1 -11 7 5 11 -1 11 -13 0 -12 4 -21 9 -21 6 0 8 -9 6 -20 -2 -11 1
-22 6 -25 5 -4 7 -10 4 -15 -3 -4 2 -20 10 -36 7 -15 12 -31 9 -36 -3 -4 0 -8
6 -8 7 0 10 -6 7 -14 -3 -7 0 -19 6 -25 6 -6 7 -11 2 -11 -6 0 -4 -4 3 -9 7
-4 15 -14 16 -22 2 -8 8 -25 13 -39 6 -14 9 -28 6 -32 -2 -5 1 -8 7 -8 6 0 8
-4 5 -10 -3 -5 -2 -10 2 -10 5 0 10 -12 11 -27 1 -14 10 -35 20 -46 13 -15 13
-19 2 -13 -9 5 -8 2 2 -7 10 -8 15 -17 11 -20 -3 -4 1 -15 9 -24 25 -30 33
-47 17 -38 -8 5 -6 -1 4 -13 11 -11 16 -26 12 -31 -3 -6 -1 -11 5 -11 6 0 8
-5 4 -12 -5 -7 -2 -9 9 -5 11 4 14 2 10 -9 -3 -8 0 -20 6 -28 6 -7 8 -16 4
-19 -3 -4 -1 -7 6 -7 7 0 10 -4 6 -9 -3 -5 0 -16 7 -23 19 -21 49 -80 37 -72
-7 4 -7 -1 1 -15 6 -12 17 -24 25 -27 7 -3 11 -14 7 -26 -3 -14 -1 -19 6 -14
12 7 16 -5 13 -32 -1 -7 2 -12 6 -11 20 3 24 -2 13 -17 -8 -8 -9 -14 -4 -13
20 3 35 -2 29 -10 -3 -6 3 -24 14 -42 11 -18 17 -37 14 -42 -4 -6 1 -8 11 -4
14 6 16 3 11 -14 -5 -15 -4 -19 4 -15 6 4 11 0 11 -11 0 -10 9 -26 20 -36 11
-9 20 -24 20 -32 0 -8 6 -15 13 -15 8 0 7 -4 -3 -10 -13 -8 -12 -10 3 -10 9 0
17 -8 18 -17 0 -11 3 -13 6 -5 2 6 8 10 11 8 6 -3 7 64 1 72 -5 7 -4 29 3 44
5 10 4 19 -2 23 -6 4 -8 11 -5 16 12 18 14 49 4 55 -6 4 -6 11 2 20 9 11 9 14
0 14 -9 0 -9 6 0 23 15 26 15 27 -3 38 -10 7 -8 9 6 9 19 0 19 0 1 13 -12 10
-15 16 -6 21 6 4 8 18 5 32 -4 16 -2 24 6 24 9 0 9 4 -1 17 -8 9 -9 14 -3 11
6 -5 10 10 11 40 0 26 3 64 7 85 4 24 2 36 -4 32 -6 -3 -7 1 -4 9 3 9 11 13
16 10 6 -4 5 4 -2 16 -11 20 -10 22 4 17 12 -5 15 -3 9 6 -12 19 -12 37 0 37
8 0 8 3 0 11 -15 15 5 61 21 52 6 -4 3 2 -6 13 -16 18 -16 22 -3 41 10 14 11
23 4 25 -5 2 -7 11 -4 21 4 9 11 15 15 12 10 -6 8 15 -3 31 -4 7 0 15 9 18 12
5 13 10 5 19 -8 10 -7 17 1 25 9 9 9 12 -2 12 -9 0 -8 5 6 16 10 8 13 13 6 9
-6 -3 -12 -1 -12 4 0 6 5 11 11 11 8 0 7 6 -2 17 -8 10 -9 14 -2 10 6 -4 14
-3 18 3 3 5 2 10 -4 10 -6 0 -4 16 4 41 8 23 13 45 10 49 -3 5 -1 12 5 15 8 5
7 11 -1 21 -10 12 -9 13 7 7 16 -6 17 -4 6 9 -10 12 -9 18 3 28 9 7 14 19 11
26 -3 7 -1 16 5 20 5 3 7 15 3 26 -3 12 -2 18 3 15 5 -4 9 11 8 33 -1 31 1 37
11 29 10 -8 12 -6 9 13 -6 30 4 60 17 52 6 -4 6 2 -1 15 -9 16 -9 21 0 21 6 0
9 7 5 15 -3 10 1 15 12 15 10 0 13 3 7 8 -12 9 -16 44 -4 36 5 -3 10 0 10 5 2
14 6 30 8 34 2 1 5 13 7 27 2 13 9 27 15 31 8 4 7 8 -2 12 -12 5 -12 6 0 6 11
1 11 4 1 16 -11 13 -10 14 4 9 9 -4 16 -3 15 2 -4 23 2 35 14 28 8 -5 8 -2 -2
9 -10 13 -10 17 -1 17 8 0 11 9 7 26 -3 19 -1 24 10 20 8 -3 11 -1 8 4 -3 6 0
10 7 10 9 0 9 3 -2 10 -10 6 -11 10 -3 10 7 0 12 3 12 8 -3 18 2 33 9 28 4 -2
9 4 10 15 4 42 6 49 13 49 5 0 5 7 2 17 -5 12 -3 14 7 8 10 -6 12 -2 8 18 -3
15 -2 24 2 22 10 -6 22 24 15 35 -3 5 0 12 6 16 8 5 9 3 4 -7 -5 -8 -4 -11 1
-6 5 5 9 12 9 15 0 4 4 13 9 21 7 10 5 12 -5 7 -9 -5 -8 -3 2 6 20 17 34 51
16 43 -6 -4 -1 3 13 15 14 12 18 19 10 15 -10 -4 -9 -2 2 8 14 11 15 16 5 27
-8 8 -8 11 -1 7 7 -4 18 1 25 10 10 12 10 14 2 9 -20 -11 -15 2 8 25 13 13 19
29 17 44 -4 18 -1 22 10 17 10 -3 13 -1 8 6 -4 7 -2 12 3 12 6 0 11 7 11 15 0
8 5 15 11 15 5 0 7 5 4 11 -4 6 1 17 11 25 11 9 13 13 7 9 -9 -4 -11 -1 -7 9
3 9 14 16 23 16 13 0 13 2 2 9 -9 6 -10 11 -2 15 6 4 8 12 5 18 -4 6 -2 8 3 5
6 -4 17 1 24 10 12 14 12 16 0 8 -8 -5 -1 9 15 30 16 22 22 36 14 31 -8 -4 -7
-1 4 8 10 8 15 19 11 25 -3 6 1 11 9 11 8 0 18 5 22 12 5 7 3 8 -5 3 -9 -5 -9
-1 1 14 7 12 16 21 20 21 5 0 8 6 8 13 0 7 9 18 20 25 11 7 17 18 14 27 -4 8
-1 15 6 15 7 0 10 8 7 19 -4 15 -1 18 12 14 9 -4 12 -2 8 2 -4 5 3 15 15 23
16 9 17 12 4 7 -16 -5 -17 -3 -6 10 7 8 16 12 21 9 5 -3 9 -2 8 3 -4 22 3 33
19 33 13 0 14 2 4 9 -11 7 -11 9 2 14 10 4 13 12 9 23 -5 14 -3 16 11 11 15
-6 17 -3 13 13 -3 10 -2 19 2 18 21 -2 30 4 24 19 -4 11 -3 14 5 9 7 -4 12 -2
12 3 0 25 20 52 33 44 4 -2 7 3 7 12 0 9 13 29 29 44 16 16 27 32 23 37 -4 4
1 4 10 1 12 -4 15 -2 11 8 -3 8 2 18 11 21 9 3 13 10 10 15 -3 5 0 9 6 9 6 0
8 5 5 10 -4 6 -3 10 2 9 17 -4 42 13 37 26 -3 8 10 24 33 39 21 14 33 26 27
26 -5 0 -16 -6 -24 -12 -8 -7 -6 -3 4 9 10 13 23 20 27 17 8 -5 13 10 10 28 0
5 3 7 7 5 10 -3 72 60 72 73 0 5 7 6 17 3 10 -4 14 -2 10 4 -8 12 27 56 37 46
3 -3 6 1 6 10 0 18 33 40 44 29 4 -3 4 1 0 11 -3 10 -1 17 6 17 6 0 8 5 5 10
-4 6 -3 10 2 9 20 -3 33 2 30 14 -1 6 3 11 10 10 6 -1 17 5 25 14 11 14 11 16
-2 8 -13 -8 -13 -6 -2 8 8 9 19 15 25 14 7 -1 11 6 11 15 -1 9 4 14 11 12 7
-3 15 2 19 11 3 9 10 13 16 10 9 -6 14 8 11 28 -1 5 3 6 9 2 6 -3 26 10 44 30
19 20 38 37 43 37 14 1 43 25 37 31 -7 6 37 32 49 29 5 -1 6 2 2 7 -6 11 28
33 39 26 3 -3 4 -2 1 1 -7 10 24 36 34 29 6 -3 8 4 6 16 -3 17 -2 20 7 11 8
-8 17 -5 34 13 13 14 26 25 29 25 4 0 16 10 27 23 11 12 17 15 13 7 -4 -8 2
-4 13 9 13 16 24 21 33 16 12 -7 12 -6 0 9 -8 9 -10 16 -5 15 15 -5 54 12 54
23 0 5 7 8 15 4 8 -3 14 0 12 7 -1 7 6 11 17 9 10 -2 15 1 12 7 -4 5 3 12 14
16 11 4 17 11 14 17 -5 7 -1 9 9 5 11 -4 17 -1 17 8 0 13 19 20 36 13 3 -2 10
5 15 15 6 9 15 14 21 11 7 -5 9 -2 5 9 -4 11 -1 15 14 12 10 -2 19 0 19 6 0 5
7 9 16 9 8 0 12 5 9 10 -3 6 1 10 10 10 10 0 13 5 9 13 -6 9 -4 9 8 -1 13 -10
17 -10 22 3 3 8 12 15 19 15 8 0 27 12 42 28 16 15 25 22 22 15 -4 -6 12 -2
35 10 24 11 47 20 52 18 5 -1 3 6 -5 15 -8 10 -9 15 -3 11 7 -4 17 0 24 8 6 7
19 11 27 8 10 -4 14 -2 10 4 -4 6 6 9 23 8 26 -2 28 0 17 14 -8 10 -8 13 0 8
6 -4 15 -2 19 4 4 8 9 7 15 -2 7 -11 9 -10 9 4 0 10 4 16 9 13 5 -3 20 3 33
14 14 11 28 16 32 13 3 -3 6 -1 6 6 0 7 4 9 10 6 6 -3 10 -1 10 5 0 6 5 8 10
5 6 -3 10 -1 10 5 0 6 5 8 10 5 6 -3 10 -2 10 4 0 6 7 7 17 4 10 -4 14 -2 10
4 -8 12 20 26 34 17 5 -3 12 2 15 11 5 13 9 13 22 3 9 -8 13 -8 9 -2 -4 7 1
18 10 25 12 10 14 10 9 2 -12 -20 1 -15 25 10 12 12 19 16 15 10 -4 -7 -2 -13
3 -13 6 0 11 5 11 10 0 6 5 10 12 10 6 0 20 8 31 18 12 10 17 11 12 3 -5 -9
-4 -12 2 -8 14 9 24 47 12 47 -5 0 -9 6 -9 13 0 17 -67 76 -77 68 -4 -3 -1 3
7 13 14 18 13 19 -2 13 -12 -4 -19 0 -23 14 -4 10 -11 19 -16 19 -6 0 -7 5 -4
10 3 6 0 10 -7 10 -7 0 -19 14 -26 30 -8 17 -20 30 -28 30 -9 0 -12 5 -9 10 3
6 -1 10 -10 10 -9 0 -14 4 -10 10 3 5 -6 17 -20 26 -13 9 -22 21 -18 28 3 6 3
8 -2 4 -7 -7 -35 14 -35 27 0 4 -7 14 -16 23 -11 11 -13 17 -5 20 6 2 8 9 5
14 -4 7 -2 8 5 4 6 -4 19 -2 28 6 14 11 16 11 8 -2 -4 -8 2 -5 14 8 22 23 37
30 26 12 -11 -18 4 -11 26 13 12 12 19 16 15 10 -4 -7 -3 -13 2 -13 6 0 13 7
16 16 4 9 9 14 13 11 3 -4 14 -2 24 4 15 8 24 5 44 -15 14 -14 25 -22 25 -18
0 4 5 0 10 -8 9 -13 10 -13 10 0 1 9 5 6 10 -7 8 -20 26 -28 53 -24 4 0 7 -6
7 -15 0 -8 5 -12 10 -9 6 3 10 1 10 -6 0 -7 3 -10 6 -6 4 3 13 -1 21 -9 8 -8
18 -12 23 -9 5 3 15 -4 24 -16 8 -12 19 -18 25 -15 5 4 13 1 17 -5 5 -8 3 -9
-6 -4 -9 5 -11 4 -6 -3 4 -7 18 -12 32 -12 15 0 24 -6 24 -16 0 -8 4 -13 9 -9
5 3 12 1 16 -5 4 -6 11 -8 16 -5 5 3 6 0 3 -8 -5 -13 0 -15 45 -19 11 -1 19
-5 19 -8 -2 -27 3 -32 15 -15 8 10 19 15 25 11 7 -4 12 -1 12 8 0 8 13 17 30
21 17 4 30 11 30 16 0 5 9 9 20 9 11 0 20 5 20 11 0 5 5 7 10 4 6 -3 10 2 10
11 0 10 3 14 7 11 3 -4 13 -1 21 6 13 10 14 9 7 -3 -7 -12 -5 -12 11 1 21 18
55 33 67 31 4 -1 6 4 5 10 -2 8 5 12 16 10 10 -2 15 1 12 6 -3 6 1 13 10 16 9
3 12 2 8 -5 -3 -6 3 -5 14 2 12 7 19 17 16 21 -3 4 2 5 10 2 9 -3 16 -1 16 6
0 6 5 8 10 5 6 -3 10 -2 10 3 0 5 14 12 31 16 17 3 28 10 25 15 -3 5 1 11 9
15 8 3 15 0 15 -6 0 -7 6 -3 14 8 8 10 19 20 25 20 6 1 16 2 22 3 5 0 8 5 5
10 -4 5 5 8 18 7 17 -2 23 1 19 10 -3 9 2 14 15 14 11 0 27 6 34 13 7 8 21 13
31 11 9 -1 23 6 30 15 12 17 46 36 60 33 4 -1 7 3 7 9 0 5 10 9 23 7 17 -2 21
1 19 16 -3 13 1 17 11 13 8 -3 24 1 36 9 12 8 26 12 31 9 6 -4 9 -1 8 6 -2 7
3 13 11 14 7 0 18 10 22 23 5 13 5 21 0 18 -12 -8 -34 21 -26 34 9 14 -8 13
-23 -2 -9 -9 -12 -7 -12 10 0 12 -5 22 -11 22 -13 0 -40 26 -33 33 3 3 -9 11
-25 18 -17 8 -31 20 -31 26 0 12 -14 18 -34 14 -5 -1 -3 5 4 14 11 13 10 15
-3 10 -8 -4 -18 -1 -23 6 -5 8 -3 10 6 4 8 -5 11 -4 6 3 -4 6 -13 9 -20 6 -8
-3 -16 4 -19 16 -3 12 -9 20 -14 17 -4 -3 -14 1 -21 9 -7 8 -9 14 -5 14 4 0 0
5 -10 11 -9 5 -23 7 -30 3 -7 -5 -6 0 3 11 9 11 10 16 3 11 -7 -4 -13 -2 -13
4 0 6 -11 15 -25 22 -13 6 -22 15 -19 19 3 5 -2 9 -10 9 -9 0 -16 5 -16 11 0
5 -4 7 -10 4 -6 -4 -7 1 -3 11 4 12 3 15 -5 10 -7 -4 -15 -1 -18 8 -3 9 -13
16 -21 16 -8 0 -11 5 -8 10 3 6 2 10 -4 10 -5 0 -28 18 -50 40 -22 22 -43 40
-46 40 -12 0 -34 28 -28 34 5 5 -8 9 -27 8 -3 0 -11 6 -18 14 -7 8 -10 14 -7
14 4 0 0 7 -9 15 -8 8 -19 15 -25 15 -5 0 -12 9 -16 20 -3 11 -12 19 -18 17
-7 -1 -11 4 -10 10 2 7 0 12 -5 12 -4 -1 -14 -1 -22 0 -13 1 -13 2 0 11 12 8
10 10 -8 10 -13 0 -20 4 -17 10 6 10 -9 15 -30 10 -5 -1 -7 1 -3 5 9 9 -32 55
-49 55 -8 0 -12 4 -9 9 4 5 -7 15 -24 23 -16 7 -30 19 -30 26 0 7 -4 11 -9 8
-5 -3 -11 3 -14 14 -3 11 -12 20 -20 20 -9 0 -19 10 -22 21 -6 17 -9 19 -16 8
-6 -10 -9 -8 -9 10 0 20 -2 22 -15 11 -13 -11 -14 -10 -9 5 5 12 4 16 -3 12
-6 -4 -14 0 -17 9 -3 8 -11 12 -17 8 -7 -4 -9 -3 -5 4 8 13 -20 42 -40 42 -8
0 -12 5 -9 10 3 6 2 10 -2 10 -5 0 -14 9 -20 19 -10 16 -9 19 5 16 9 -1 30 7
46 18 16 12 26 16 22 9 -5 -8 -2 -10 8 -6 9 3 14 10 11 14 -3 5 4 6 15 3 11
-3 20 -1 20 5 0 9 31 24 58 26 7 1 17 8 22 16 9 13 10 13 10 0 0 -9 3 -11 8
-5 18 25 52 36 75 24 21 -12 21 -11 7 6 -11 14 -7 13 17 -4 19 -14 36 -20 45
-16 7 5 10 5 6 1 -8 -10 14 -36 25 -29 4 2 7 -1 7 -7 0 -6 5 -8 10 -5 6 3 10
1 10 -4 0 -6 7 -11 16 -11 8 0 12 -4 9 -10 -3 -5 0 -7 8 -4 8 3 18 0 22 -5 3
-6 11 -8 17 -5 7 4 8 2 4 -4 -4 -7 -2 -12 4 -12 6 0 8 -6 4 -12 -6 -10 -4 -10
7 0 14 13 30 16 28 5 -4 -27 1 -35 16 -23 14 11 19 7 16 -12 -1 -7 22 -12 42
-9 4 0 7 -5 7 -12 0 -7 13 -12 29 -12 21 -1 27 3 23 14 -3 9 -1 12 6 7 7 -4
12 -2 12 6 0 9 3 9 10 -2 6 -10 10 -11 10 -2 0 6 7 12 15 12 8 0 15 4 15 8 0
13 30 10 31 -2 0 -6 4 -3 8 7 6 17 8 17 29 -1 16 -14 19 -22 10 -25 -8 -3 -6
-6 5 -6 10 -1 15 -5 12 -11 -3 -5 -1 -10 6 -10 7 0 4 -7 -7 -15 -16 -13 -17
-14 -1 -9 12 4 17 2 15 -7 -4 -18 -22 -38 -30 -33 -15 9 -16 -14 -2 -32 9 -10
12 -12 8 -4 -7 12 -5 13 8 3 8 -7 19 -9 24 -5 4 4 2 -2 -6 -12 -14 -18 -13
-19 3 -13 11 4 20 1 24 -9 5 -13 7 -13 14 -2 7 10 9 9 9 -4 0 -10 3 -17 8 -16
14 3 62 -22 62 -32 0 -5 5 -10 11 -10 5 0 7 5 3 12 -4 7 -3 8 4 4 7 -4 12 -14
12 -21 0 -8 6 -12 14 -9 7 3 20 -2 29 -10 9 -9 19 -16 24 -16 5 0 33 -16 62
-35 30 -19 58 -32 63 -29 4 3 8 -5 8 -18 0 -19 2 -20 10 -8 9 13 11 13 20 0 8
-13 10 -12 10 3 0 10 4 16 9 12 5 -3 12 -1 16 5 3 5 15 10 26 10 10 0 19 6 19
13 0 8 4 7 10 -3 8 -13 10 -12 10 3 0 10 5 15 10 12 6 -3 16 -3 22 1 20 13 43
11 56 -3 7 -7 9 -13 5 -13 -4 0 -2 -4 5 -8 7 -5 14 -27 16 -49 3 -34 0 -40
-12 -35 -11 4 -14 1 -10 -10 5 -11 1 -14 -18 -10 -31 6 -31 -9 1 -36 28 -25
39 -28 30 -9 -4 6 0 4 8 -5 8 -10 17 -15 20 -11 4 3 7 1 7 -5 0 -7 7 -12 15
-12 8 0 23 -9 32 -20 10 -11 25 -20 34 -20 10 0 19 -5 21 -10 2 -6 13 -12 25
-13 12 0 20 -4 18 -7 -2 -3 5 -11 16 -18 15 -10 19 -10 20 0 0 7 4 3 9 -9 5
-13 18 -23 29 -23 11 0 23 -5 26 -10 4 -6 11 -7 17 -4 6 4 8 2 4 -4 -3 -6 -2
-13 4 -17 5 -3 10 -1 10 6 0 7 8 3 18 -7 19 -22 69 -26 64 -5 -1 7 2 10 7 7 5
-3 21 1 37 9 15 7 32 11 37 8 6 -3 8 -2 5 3 -3 5 14 19 38 30 24 12 41 17 38
10 -3 -6 0 -4 8 4 7 9 20 15 28 15 8 0 21 5 28 12 7 7 22 13 33 13 14 0 18 4
13 13 -5 7 -2 7 10 -2 14 -12 17 -12 14 -1 -2 8 3 15 10 16 6 1 17 2 23 3 5 0
8 5 5 10 -4 5 4 7 16 3 12 -3 19 -1 15 5 -3 5 4 9 16 8 12 -1 32 5 44 12 12 8
27 12 32 9 5 -4 13 -1 16 5 4 5 13 8 21 5 8 -3 11 0 8 8 -4 9 3 13 20 11 14
-2 26 1 26 6 0 4 6 6 14 3 8 -3 17 -1 20 5 4 6 14 7 23 4 10 -4 14 -2 10 4 -4
6 3 9 18 7 14 -1 25 3 25 9 0 8 3 7 9 -2 5 -8 11 -9 15 -3 4 6 15 9 26 7 11
-2 20 0 20 4 0 12 37 6 56 -10 16 -13 16 -12 5 10 -11 19 -11 22 1 15 7 -5 23
-9 36 -9 13 0 28 -7 34 -15 8 -13 9 -12 5 1 -4 13 -1 15 14 12 10 -3 19 -9 19
-14 0 -5 7 -6 15 -3 8 3 29 -4 46 -17 18 -13 29 -16 24 -8 -5 8 1 6 13 -5 12
-10 19 -23 16 -27 -3 -5 2 -6 11 -3 11 5 18 0 22 -15 3 -11 9 -21 15 -21 5 0
4 -8 -2 -19 -7 -14 -7 -22 0 -26 7 -4 7 -11 2 -18 -5 -7 -8 -22 -7 -34 1 -13
-2 -23 -6 -23 -10 0 -24 -41 -20 -59 1 -7 -2 -10 -7 -7 -10 6 -27 -22 -23 -37
1 -5 -3 -6 -9 -2 -5 3 -10 1 -10 -4 0 -6 -8 -11 -17 -11 -15 0 -16 -2 -3 -10
11 -7 11 -10 2 -10 -8 0 -10 -5 -6 -12 5 -8 1 -8 -12 2 -10 8 -16 11 -12 6 8
-9 -15 -36 -30 -36 -6 0 -12 -7 -16 -15 -3 -8 -12 -15 -19 -15 -8 0 -22 -10
-31 -22 -9 -13 -14 -16 -11 -8 4 10 2 9 -8 -2 -8 -10 -18 -14 -22 -10 -5 4 -6
0 -3 -9 4 -9 1 -16 -8 -16 -7 0 -11 5 -8 11 3 6 -2 2 -10 -8 -9 -11 -16 -16
-16 -11 0 5 -6 1 -12 -8 -7 -9 -24 -18 -38 -21 -14 -2 -24 -8 -23 -14 1 -6 -8
-9 -21 -8 -17 2 -23 -1 -19 -11 3 -9 0 -11 -10 -8 -8 4 -22 -1 -31 -10 -9 -9
-16 -13 -16 -9 0 3 -7 1 -15 -6 -8 -6 -20 -8 -26 -4 -8 4 -9 3 -5 -4 5 -8 0
-12 -13 -12 -12 0 -21 -4 -21 -10 0 -5 -5 -10 -11 -10 -5 0 -7 6 -4 13 4 6 0
4 -8 -5 -8 -10 -25 -19 -38 -22 -14 -2 -23 -9 -21 -17 3 -11 1 -11 -9 -2 -9 9
-15 8 -26 -3 -17 -17 -37 -19 -27 -2 4 7 3 8 -4 4 -7 -4 -12 -15 -12 -24 0
-15 -2 -15 -10 -2 -6 9 -10 10 -10 3 0 -6 -9 -10 -20 -8 -11 2 -18 0 -15 -5 3
-5 1 -11 -5 -15 -5 -3 -10 0 -10 7 -1 9 -5 7 -14 -4 -7 -10 -23 -18 -35 -18
-11 0 -21 -4 -21 -10 0 -5 -6 -7 -14 -4 -10 4 -15 -1 -15 -13 -1 -39 -5 -53
-13 -53 -5 0 -4 -10 3 -22 9 -17 9 -20 -2 -16 -10 4 -15 -4 -17 -26 -5 -68 -6
-76 -14 -76 -4 0 -4 -7 -1 -17 5 -12 3 -14 -8 -8 -12 8 -12 6 0 -8 10 -13 10
-17 1 -17 -7 0 -10 -7 -6 -16 3 -8 2 -12 -4 -9 -6 3 -10 -1 -10 -10 0 -9 5
-13 11 -9 6 3 3 -5 -6 -20 -11 -17 -13 -26 -6 -26 7 0 9 -5 6 -10 -4 -6 -11
-8 -16 -5 -5 3 -6 -1 -3 -9 4 -9 1 -16 -6 -16 -9 0 -10 -3 -1 -13 6 -8 8 -17
4 -21 -10 -9 -13 -38 -6 -49 3 -6 12 -2 20 8 9 13 13 14 13 5 0 -9 5 -8 16 6
14 17 15 17 10 1 -4 -11 -2 -16 5 -12 12 8 41 -14 33 -26 -3 -5 -1 -9 4 -9 16
0 17 -69 1 -84 -9 -8 -10 -8 -4 3 5 9 0 8 -17 -3 -14 -9 -28 -13 -33 -9 -4 5
-5 3 -1 -4 3 -6 2 -14 -4 -18 -5 -3 -10 0 -10 7 -1 9 -4 9 -13 -3 -17 -22 -43
-29 -56 -16 -7 7 -12 8 -11 2 4 -20 0 -36 -8 -31 -5 3 -8 -8 -7 -24 1 -17 -3
-30 -8 -30 -6 0 -7 -3 -4 -7 4 -3 1 -13 -6 -21 -10 -13 -9 -14 3 -7 13 8 13 6
1 -8 -7 -9 -11 -24 -7 -32 4 -11 2 -14 -6 -9 -8 5 -9 2 -5 -9 3 -9 2 -19 -3
-22 -5 -3 -7 -12 -3 -20 3 -8 0 -15 -6 -15 -6 0 -11 -5 -11 -11 0 -5 4 -8 10
-4 5 3 3 -7 -5 -22 -11 -21 -12 -29 -2 -35 9 -6 9 -8 -2 -8 -8 0 -11 -6 -7
-16 5 -13 4 -14 -7 -6 -11 10 -13 6 -12 -16 1 -16 5 -34 9 -40 5 -8 2 -10 -10
-5 -12 4 -15 3 -10 -5 4 -6 2 -21 -5 -33 -9 -17 -8 -20 3 -13 11 7 11 5 -1 -9
-12 -15 -8 -18 32 -29 25 -6 44 -15 41 -19 -2 -4 3 -15 12 -23 11 -12 12 -16
2 -16 -9 0 -10 -2 -1 -8 13 -9 12 -42 -2 -58 -8 -9 -14 -9 -24 0 -11 8 -13 8
-8 0 8 -14 -20 -27 -35 -17 -6 3 -8 1 -4 -5 3 -6 2 -13 -4 -17 -5 -3 -10 -1
-10 6 0 7 -7 4 -15 -7 -8 -10 -15 -15 -15 -10 0 6 -7 1 -16 -10 -8 -10 -12
-13 -8 -5 4 9 3 12 -4 7 -8 -4 -8 -15 -2 -31 6 -16 6 -27 -2 -31 -7 -5 -8 -3
-3 6 6 9 4 11 -4 6 -7 -5 -10 -11 -7 -14 3 -3 0 -12 -7 -20 -9 -13 -9 -14 1
-8 6 4 12 3 12 -3 0 -5 -4 -12 -9 -16 -6 -3 -8 -14 -6 -24 2 -11 -2 -22 -10
-25 -10 -3 -11 -14 -5 -41 7 -30 6 -34 -5 -25 -11 9 -13 7 -9 -14 3 -17 0 -26
-8 -26 -9 0 -8 -3 2 -10 12 -7 12 -10 1 -10 -8 0 -11 -6 -7 -16 3 -8 2 -13 -3
-10 -5 3 -9 -4 -10 -17 -1 -45 -5 -57 -18 -57 -7 0 -13 -4 -13 -9 0 -9 -48
-26 -62 -23 -5 1 -8 -3 -8 -10 0 -6 -3 -8 -7 -5 -3 4 -15 -1 -26 -10 -11 -10
-17 -12 -13 -6 5 9 2 11 -8 7 -9 -3 -13 -10 -10 -15 3 -5 -2 -6 -10 -3 -10 4
-16 1 -16 -7 0 -7 -3 -9 -7 -6 -3 4 -12 2 -20 -4 -7 -6 -13 -8 -13 -3 0 5 -4
3 -9 -5 -5 -8 -18 -15 -28 -17 -10 -1 -26 -5 -35 -8 -13 -6 -16 -3 -14 17 2
13 6 29 10 35 5 8 1 10 -11 5 -16 -6 -16 -5 -4 10 7 9 11 23 8 32 -4 8 -2 17
3 20 6 4 10 12 10 18 0 7 -4 6 -10 -3 -8 -13 -10 -12 -10 3 0 10 7 20 16 24 9
3 11 9 6 12 -13 9 -27 55 -14 47 12 -7 9 25 -4 46 -4 6 1 17 11 25 12 8 14 13
6 13 -9 0 -11 8 -7 26 5 18 3 24 -5 19 -8 -6 -8 -2 0 12 6 11 7 23 3 27 -3 4
0 11 8 16 10 7 11 10 3 10 -7 0 -13 7 -13 16 0 9 5 12 13 8 8 -5 8 -2 -2 9 -7
9 -10 17 -6 17 4 0 2 7 -5 15 -11 13 -10 14 6 8 17 -6 17 -5 5 10 -11 14 -11
17 0 17 9 0 10 3 4 8 -15 10 -19 46 -5 37 9 -6 9 -2 1 12 -7 14 -7 23 1 31 9
9 9 12 0 12 -9 0 -10 5 -3 17 5 10 5 26 0 40 -5 13 -5 23 -1 23 4 0 8 9 8 20
0 11 -4 20 -8 20 -5 0 -4 9 2 19 7 14 7 22 0 26 -8 5 -8 11 0 20 7 9 8 15 1
19 -6 4 -8 13 -5 21 4 8 11 12 18 8 8 -5 8 -3 1 8 -6 8 -10 29 -9 47 2 21 -2
30 -9 26 -7 -3 -4 1 6 9 18 15 24 32 7 22 -14 -9 -12 8 3 24 8 10 8 12 0 7 -6
-3 -14 -2 -18 4 -3 5 1 10 10 10 13 0 14 4 4 21 -8 16 -8 20 1 14 9 -6 9 -3 1
13 -13 24 -14 35 -3 28 4 -2 8 4 8 14 0 10 -3 17 -6 15 -4 -2 -7 2 -7 10 0 8
3 13 6 11 3 -2 6 18 7 45 0 29 -3 44 -8 37 -5 -9 -8 -10 -8 -1 0 6 4 14 8 17
11 6 9 36 -3 55 -5 9 -4 12 3 8 7 -5 9 9 8 40 -2 27 1 54 7 61 6 8 5 12 -3 12
-8 0 -9 6 -5 18 4 9 7 24 6 32 0 8 -1 36 -1 63 1 28 -3 47 -10 47 -6 0 -8 -4
-5 -10 4 -6 -3 -6 -21 0 -22 9 -25 8 -20 -5 7 -18 -5 -20 -23 -2 -10 10 -12 9
-9 -2 2 -7 -3 -16 -11 -19 -8 -3 -11 0 -7 7 5 7 1 9 -8 5 -9 -3 -14 -10 -11
-14 3 -4 -4 -10 -15 -13 -13 -3 -18 -1 -13 6 3 7 -3 4 -14 -6 -11 -10 -24 -17
-29 -16 -5 1 -11 0 -14 -1 -9 -3 -45 -11 -62 -14 -10 -1 -21 -6 -25 -11 -5 -4
-2 -5 6 0 10 6 12 4 7 -4 -6 -9 -11 -9 -24 1 -13 11 -14 11 -8 0 6 -9 3 -12
-10 -10 -12 2 -18 -2 -16 -11 3 -12 0 -12 -12 -1 -12 9 -16 9 -16 1 0 -7 -4
-9 -10 -6 -5 3 -10 2 -10 -3 0 -6 -10 -8 -22 -4 -16 4 -19 2 -13 -9 8 -12 6
-12 -9 0 -15 12 -17 12 -14 0 2 -9 -4 -13 -15 -11 -10 2 -25 -2 -32 -8 -8 -7
-19 -9 -24 -6 -5 4 -13 1 -18 -6 -4 -7 -17 -14 -28 -15 -39 -5 -55 -9 -62 -18
-5 -4 -2 -5 6 0 10 5 12 4 7 -3 -5 -9 -13 -9 -26 -2 -15 8 -24 5 -41 -12 -15
-16 -23 -19 -26 -10 -4 10 -8 10 -20 0 -15 -12 -34 -19 -65 -21 -9 -1 -14 -5
-11 -10 3 -5 -1 -7 -8 -6 -15 2 -42 -6 -72 -22 -10 -5 -22 -7 -27 -4 -6 4 -10
2 -10 -4 0 -5 -12 -8 -26 -5 -22 4 -25 2 -20 -12 6 -15 4 -15 -11 -3 -15 12
-16 12 -10 -5 6 -16 5 -17 -8 -6 -8 7 -16 10 -16 6 -1 -3 -2 -12 -3 -18 -1 -7
-7 -12 -14 -11 -8 2 -9 -4 -2 -23 6 -15 6 -23 1 -19 -6 3 -10 -3 -10 -12 -1
-10 -3 -34 -5 -53 -2 -19 -5 -39 -5 -43 -1 -5 -5 -6 -10 -3 -12 8 -8 -27 4
-36 6 -5 5 -8 -3 -8 -7 0 -10 -4 -7 -10 3 -5 2 -10 -2 -10 -5 0 -9 -12 -8 -27
0 -16 -6 -34 -15 -41 -8 -8 -9 -11 -2 -7 7 4 12 0 12 -10 0 -9 -4 -14 -9 -11
-5 4 -7 -4 -3 -16 4 -16 2 -19 -9 -13 -12 8 -12 6 0 -8 8 -10 9 -17 3 -17 -6
0 -9 -9 -7 -20 2 -11 0 -20 -5 -20 -4 0 -8 -16 -8 -36 0 -35 -17 -58 -34 -48
-4 3 -8 1 -8 -4 0 -6 -7 -13 -16 -16 -10 -4 -13 -2 -8 7 4 6 -2 3 -14 -7 -12
-11 -25 -16 -29 -13 -3 4 -13 -2 -20 -13 -12 -16 -18 -18 -35 -9 -11 6 -18 7
-15 2 3 -5 -3 -14 -13 -21 -16 -9 -18 -9 -14 2 3 7 -2 16 -11 20 -9 3 -13 10
-10 16 4 6 12 7 18 3 7 -4 6 1 -2 10 -8 10 -11 20 -8 24 4 3 2 12 -4 20 -9 10
-8 13 2 13 11 0 11 2 0 9 -13 8 -13 12 0 27 12 15 12 17 0 9 -11 -6 -13 -4 -8
9 6 14 3 17 -10 12 -15 -5 -15 -4 1 9 11 8 15 15 9 15 -5 0 -9 16 -8 35 1 19
-2 40 -6 47 -4 6 -3 21 3 31 8 15 7 18 -3 12 -9 -6 -11 -2 -7 13 4 13 1 22 -5
22 -8 0 -7 4 2 9 11 7 10 11 -5 20 -12 6 -14 11 -5 11 7 0 11 6 8 14 -3 7 0
19 6 26 9 9 9 11 1 7 -7 -4 -14 0 -18 8 -3 8 0 15 6 15 7 0 7 4 -1 13 -6 8 -8
17 -4 20 3 4 1 7 -6 7 -6 0 -14 -6 -17 -14 -3 -8 -12 -12 -20 -9 -10 3 -12 0
-8 -10 4 -12 1 -14 -16 -10 -14 4 -20 1 -18 -7 2 -7 -8 -17 -22 -21 -14 -4
-18 -8 -10 -8 11 -1 9 -5 -6 -14 -53 -32 -94 -59 -94 -64 0 -2 5 -1 10 2 6 3
10 4 10 1 0 -3 -16 -13 -36 -22 -23 -11 -33 -22 -30 -31 3 -8 1 -11 -4 -8 -6
3 -10 0 -10 -7 0 -9 -3 -9 -10 2 -8 12 -10 12 -10 1 0 -16 -34 -48 -61 -56
-12 -4 -16 -12 -12 -22 5 -12 2 -15 -10 -10 -11 4 -14 2 -11 -8 4 -10 0 -13
-15 -10 -12 2 -19 1 -17 -4 7 -10 -7 -29 -24 -33 -8 -2 -19 -12 -25 -23 -6
-11 -20 -24 -33 -30 -12 -5 -22 -16 -22 -23 0 -7 -4 -11 -9 -7 -5 3 -13 -4
-16 -15 -6 -18 -9 -19 -23 -8 -10 8 -13 9 -9 1 8 -12 -44 -73 -63 -73 -5 0 -9
-3 -9 -7 3 -20 -2 -26 -11 -13 -8 13 -10 13 -10 0 0 -8 -19 -32 -42 -54 -24
-22 -36 -36 -28 -32 15 7 -4 -9 -47 -40 -13 -9 -23 -21 -23 -25 0 -15 -43 -59
-52 -53 -4 3 -8 0 -8 -6 0 -6 -5 -8 -12 -4 -10 6 -10 4 0 -8 10 -13 10 -17 -4
-22 -9 -3 -21 -3 -27 1 -7 4 -5 -2 3 -12 14 -17 13 -18 -2 -12 -10 3 -17 3
-17 -1 3 -20 -2 -33 -11 -27 -5 3 -10 1 -10 -5 0 -15 -41 -65 -55 -67 -5 -1
-12 -9 -15 -18 -3 -9 -10 -17 -15 -18 -6 -1 -9 -5 -8 -9 2 -5 -1 -8 -6 -8 -5
0 -13 -9 -16 -20 -4 -11 -11 -18 -16 -15 -5 4 -9 1 -9 -5 0 -6 -5 -8 -12 -4
-6 4 -8 3 -5 -4 4 -5 4 -18 1 -27 -5 -13 -8 -14 -15 -3 -7 10 -9 9 -9 -4 0
-10 -5 -18 -11 -18 -5 0 -7 -4 -4 -10 3 -5 -1 -10 -10 -10 -9 0 -13 -4 -10
-10 3 -5 1 -10 -5 -10 -6 0 -9 -4 -5 -9 3 -5 -4 -12 -15 -16 -11 -3 -20 -13
-20 -21 0 -8 -5 -14 -11 -14 -5 0 -8 -4 -4 -9 3 -6 -4 -15 -15 -21 -11 -6 -18
-15 -15 -20 3 -5 -4 -14 -15 -20 -11 -6 -19 -16 -17 -23 1 -7 -6 -11 -15 -11
-9 1 -14 -4 -12 -11 3 -7 -9 -27 -27 -44 -20 -21 -29 -38 -26 -51 3 -13 1 -17
-9 -13 -9 3 -14 -1 -14 -12 0 -9 -4 -13 -10 -10 -5 3 -10 -2 -10 -13 0 -11
-12 -32 -27 -47 -16 -16 -21 -25 -13 -21 8 4 4 -2 -10 -14 -14 -12 -18 -19
-10 -15 8 4 4 -2 -9 -13 -18 -15 -21 -21 -10 -25 10 -4 9 -6 -3 -6 -10 -1 -17
-7 -15 -13 1 -7 -3 -12 -10 -11 -7 2 -10 -3 -7 -10 2 -7 -7 -26 -21 -41 -27
-29 -32 -42 -12 -30 8 5 8 3 -2 -9 -7 -9 -18 -14 -25 -10 -6 3 -8 3 -4 -2 4
-4 3 -14 -3 -22 -9 -10 -8 -13 0 -13 7 0 9 -5 6 -10 -4 -6 -11 -8 -16 -5 -8 6
-14 -16 -10 -38 1 -5 -3 -6 -9 -2 -9 6 -15 -8 -11 -29 1 -5 -5 -6 -12 -3 -11
4 -13 0 -10 -14 3 -11 0 -19 -6 -19 -7 0 -10 -4 -6 -9 3 -5 0 -13 -6 -16 -5
-4 -8 -14 -5 -22 3 -8 2 -12 -3 -9 -11 7 -23 -22 -16 -35 4 -5 -2 -6 -12 -2
-16 6 -17 5 -3 -12 14 -17 13 -18 -2 -12 -12 4 -15 2 -11 -9 3 -7 1 -14 -5
-14 -6 0 -9 -8 -8 -17 2 -10 -4 -24 -13 -31 -9 -8 -10 -10 -3 -7 11 6 11 3 1
-13 -7 -12 -18 -18 -24 -14 -5 3 -4 -1 3 -10 10 -13 10 -19 -3 -32 -9 -9 -13
-16 -9 -16 3 0 1 -7 -6 -15 -6 -8 -8 -20 -4 -26 4 -8 3 -9 -4 -5 -8 4 -12 0
-12 -11 0 -10 -7 -30 -14 -45 -11 -20 -12 -28 -3 -28 7 -1 1 -7 -12 -14 -14
-8 -19 -16 -13 -20 6 -3 13 0 15 6 4 8 6 9 6 2 1 -6 -5 -17 -13 -24 -8 -6 -12
-19 -9 -27 4 -10 2 -14 -4 -10 -6 4 -10 -1 -10 -11 0 -34 -3 -43 -12 -38 -5 4
-7 -3 -4 -15 4 -12 0 -25 -8 -31 -10 -7 -11 -11 -2 -14 7 -3 9 -12 6 -20 -3
-7 -9 -12 -13 -9 -5 3 -6 -5 -2 -17 4 -16 2 -19 -8 -13 -9 6 -11 4 -5 -5 12
-19 13 -60 1 -53 -5 4 -7 -1 -3 -10 3 -10 2 -17 -3 -17 -6 0 -10 5 -10 12 0 6
-2 9 -5 6 -10 -10 7 -38 19 -31 6 3 4 -2 -6 -13 -11 -13 -14 -29 -11 -48 4
-17 2 -27 -4 -23 -5 3 -8 -10 -7 -31 1 -20 -3 -42 -8 -49 -5 -7 -6 -18 -2 -25
12 -18 14 -38 4 -38 -4 0 -7 -15 -7 -33 1 -18 -3 -39 -8 -46 -5 -10 -4 -12 3
-7 7 4 12 1 12 -9 0 -9 -4 -13 -10 -10 -7 4 -7 -2 -1 -19 13 -32 8 -75 -10
-88 -10 -7 -7 -7 10 -3 18 6 22 4 15 -6 -13 -21 -14 -39 -2 -39 7 0 7 -4 1
-12 -6 -7 -8 -22 -6 -33 3 -11 5 -37 6 -57 1 -21 5 -38 10 -38 4 0 7 -4 7 -10
0 -5 -8 -6 -17 -3 -13 5 -12 1 5 -17 12 -13 19 -26 15 -29 -12 -9 -12 -42 0
-34 6 4 8 0 4 -9 -3 -9 0 -21 6 -28 9 -10 9 -11 -3 -5 -12 7 -13 6 -3 -7 7 -8
9 -19 5 -23 -4 -5 -1 -5 5 -1 8 5 13 1 14 -11 0 -11 3 -13 6 -5 2 6 9 10 13 7
10 -6 77 -7 127 -2 17 2 30 0 27 -4 -2 -4 5 -9 16 -12 11 -3 18 -1 14 4 -3 5
-1 9 5 9 5 0 13 -5 17 -11 4 -8 9 -7 15 2 7 12 9 12 9 0 0 -7 6 -11 15 -7 20
7 46 -3 39 -16 -4 -6 3 -5 15 1 13 7 21 8 21 2 0 -5 9 -8 20 -6 11 2 20 -1 20
-7 0 -5 6 -8 14 -5 7 3 19 0 26 -6 10 -9 11 -9 5 1 -6 11 -3 11 13 1 12 -7 18
-18 14 -24 -3 -5 2 -4 11 4 12 9 17 10 17 2 0 -7 5 -9 10 -6 6 3 10 2 10 -2 0
-5 9 -9 21 -9 15 0 19 5 15 19 -3 14 -1 16 9 7 10 -8 13 -7 11 7 0 10 -5 21
-11 25 -6 5 -5 8 4 8 8 0 11 6 7 16 -3 8 -2 13 3 10 15 -10 22 26 9 42 -12 14
-10 14 12 2 20 -10 23 -10 13 0 -10 11 -9 16 5 27 11 9 11 12 2 7 -11 -6 -10
-2 3 13 9 11 14 23 11 26 -4 4 1 9 10 13 9 3 16 12 16 19 0 8 7 21 16 29 8 9
12 21 8 27 -4 8 -3 9 4 5 7 -4 12 -2 12 4 0 6 4 9 8 6 4 -2 14 5 22 17 12 21
12 21 -6 8 -10 -8 -7 -3 8 12 15 15 33 27 40 27 10 0 9 3 -1 9 -12 8 -9 11 12
16 15 4 24 11 21 16 -5 8 9 13 28 10 4 0 4 7 1 17 -3 9 -3 14 2 10 4 -4 16 2
26 14 11 12 19 16 19 8 0 -7 11 -1 25 14 13 14 28 27 32 29 5 1 7 7 5 12 -2 6
2 5 9 -2 10 -10 15 -9 26 5 10 12 12 12 8 2 -4 -8 1 -6 10 5 9 11 25 19 37 17
14 -3 18 0 12 9 -5 9 -2 10 9 6 10 -4 17 -1 17 6 0 8 3 8 9 -2 6 -9 10 -10 12
-2 3 7 14 13 27 14 12 0 22 5 22 9 0 5 9 4 19 -2 14 -7 22 -7 27 2 5 7 3 8 -6
3 -9 -5 -11 -4 -6 4 6 9 11 9 24 -1 9 -7 13 -8 9 -2 -5 8 16 11 67 11 41 1 79
4 85 7 6 4 11 3 11 -1 0 -5 9 -9 20 -9 11 0 20 4 20 9 0 4 5 5 10 2 6 -4 8
-10 5 -14 -2 -5 7 -6 21 -3 16 3 30 -1 35 -9 7 -12 9 -12 9 0 0 11 3 11 15 1
10 -9 15 -9 15 -1 0 6 5 11 11 11 6 0 8 -7 5 -16 -4 -9 -2 -13 5 -8 6 4 15 0
20 -7 6 -10 9 -10 9 -2 0 7 7 10 15 7 8 -4 12 -11 8 -18 -4 -6 1 -5 10 3 14
11 18 11 23 -3 3 -9 10 -14 14 -11 4 3 10 -1 13 -9 3 -8 14 -13 24 -12 10 2
24 -5 31 -15 7 -10 21 -16 32 -14 11 2 23 -1 26 -7 5 -7 2 -8 -7 -3 -12 8 -12
6 0 -8 11 -14 17 -15 28 -5 8 6 13 7 12 2 -3 -18 1 -37 7 -31 4 3 15 -4 26
-16 11 -12 16 -16 12 -8 -5 10 -3 13 8 8 12 -4 14 -1 10 15 -3 13 -1 19 5 15
5 -3 10 0 10 8 0 8 -4 12 -9 9 -5 -3 1 11 12 31 11 20 15 33 8 29 -10 -6 -11
-5 -1 8 7 8 9 19 5 23 -4 5 0 6 9 3 12 -5 14 0 11 24 -4 24 -2 29 8 23 10 -6
12 -4 7 8 -3 10 -2 17 3 17 5 0 7 6 4 14 -3 8 0 17 7 22 8 5 10 3 4 -6 -5 -8
-4 -11 3 -6 6 4 8 14 5 23 -4 9 1 21 12 29 14 10 15 14 4 14 -12 1 -12 2 1 13
8 7 15 18 16 25 2 29 5 33 15 26 7 -4 10 -1 7 7 -3 8 2 20 11 27 9 8 11 11 4
8 -17 -9 10 42 42 78 28 32 31 40 13 31 -7 -4 -1 4 15 17 15 13 27 30 27 38 1
20 24 50 39 50 7 0 9 4 6 10 -3 5 -1 10 6 10 7 0 10 3 6 6 -3 4 4 15 16 26 12
11 15 16 7 12 -8 -4 -4 4 10 19 14 15 32 27 40 27 10 0 11 3 4 8 -7 4 -1 17
18 34 15 15 28 25 28 22 0 -3 12 8 26 25 14 17 22 36 18 42 -4 7 -3 9 3 6 6
-4 16 0 23 8 7 8 16 12 21 9 5 -3 6 2 3 11 -4 9 -2 15 4 13 13 -4 72 58 64 68
-4 5 1 2 11 -6 10 -7 17 -9 16 -4 -3 18 1 34 9 33 18 -3 32 2 32 12 0 5 -5 7
-12 3 -7 -5 -8 -3 -4 5 5 7 14 10 20 8 7 -3 18 4 25 14 6 11 16 17 22 13 6 -3
13 3 16 14 3 14 10 19 21 15 11 -5 13 -3 7 7 -6 9 -4 12 6 8 15 -5 51 26 41
37 -4 3 1 3 11 -1 10 -3 17 -1 17 6 0 6 4 9 9 6 5 -3 11 1 14 9 4 8 15 12 26
10 12 -2 20 1 18 8 -1 6 7 13 17 15 11 2 26 11 34 19 8 8 20 12 27 9 7 -2 16
5 19 17 5 18 8 20 16 7 9 -13 14 -7 11 12 0 4 6 5 14 2 8 -4 15 -1 15 5 0 6 7
8 17 4 9 -4 14 -2 10 3 -3 6 3 15 13 22 14 8 21 8 26 1 4 -8 9 -7 14 2 8 12
28 19 62 22 9 1 14 6 11 11 -4 5 3 7 15 4 12 -4 20 -2 17 2 -7 11 64 32 78 23
6 -4 7 -1 2 7 -6 10 -4 12 8 7 10 -3 17 -2 17 4 0 6 5 7 10 4 6 -4 22 1 37 10
14 9 22 12 18 5 -10 -16 37 -2 47 14 5 7 8 6 8 -4 0 -10 3 -11 8 -4 4 6 19 10
34 10 14 -1 24 2 22 6 -3 4 9 6 25 4 17 -2 28 1 25 5 -6 11 25 7 44 -4 7 -5
14 -2 18 8 5 11 10 13 19 5 9 -7 15 -8 19 -1 4 6 14 7 23 4 12 -5 14 -3 8 8
-6 11 -5 12 5 2 10 -9 17 -10 27 -2 9 9 13 8 13 0 0 -7 5 -9 13 -4 20 13 41
13 49 0 6 -9 8 -9 8 1 0 6 5 12 11 12 5 0 7 -6 3 -12 -5 -8 -1 -8 10 1 15 13
19 13 27 0 5 -9 9 -10 9 -2 0 6 9 10 20 8 11 -2 20 2 20 8 0 7 5 4 11 -6 6
-10 15 -14 22 -10 18 11 36 12 43 2 3 -5 13 -5 24 1 13 7 21 7 25 0 5 -8 11
-7 21 1 11 9 14 9 14 0 0 -7 4 -10 9 -6 5 3 12 1 15 -3 3 -5 21 -8 40 -7 18 2
40 -1 47 -6 7 -4 22 -3 32 3 14 7 17 7 13 -1 -5 -7 3 -11 19 -11 18 0 24 -4
19 -12 -6 -10 -4 -10 8 0 12 10 18 10 23 1 6 -8 10 -7 16 2 7 12 9 12 9 0 0
-8 6 -11 16 -7 10 4 13 2 8 -6 -5 -7 0 -9 14 -6 12 4 22 2 22 -3 0 -5 5 -9 11
-9 5 0 7 4 4 10 -3 6 1 7 9 4 9 -3 13 -10 10 -15 -3 -5 2 -6 10 -3 10 4 16 1
16 -7 0 -11 3 -11 10 1 5 8 10 10 10 4 0 -7 7 -15 16 -18 10 -4 13 -2 9 7 -4
6 1 3 9 -7 12 -15 16 -16 16 -5 0 12 2 12 10 -1 5 -8 10 -11 10 -6 0 5 8 2 18
-7 15 -13 21 -14 32 -4 10 9 11 9 6 0 -6 -12 0 -15 20 -12 4 0 10 -3 13 -8 9
-13 54 -36 47 -24 -4 7 -1 8 8 5 9 -3 13 -11 9 -17 -4 -6 -1 -7 6 -3 7 5 21 0
31 -9 10 -9 24 -14 29 -10 6 3 11 -1 11 -9 0 -10 6 -13 17 -9 12 5 14 3 8 -7
-6 -9 -4 -11 5 -5 8 5 18 2 25 -8 7 -10 24 -18 38 -19 14 -1 23 -7 20 -12 -4
-5 1 -7 12 -2 14 5 15 4 7 -7 -8 -10 -6 -13 11 -14 12 -1 29 -10 37 -20 9 -10
22 -19 30 -21 8 -2 17 -8 18 -13 2 -5 8 -7 12 -4 5 3 14 -3 20 -14 7 -13 16
-18 27 -14 9 4 14 2 11 -3 -6 -11 28 -45 36 -37 3 4 6 1 6 -5 0 -7 6 -12 14
-12 8 0 16 -7 20 -15 3 -8 11 -14 18 -13 7 2 12 -5 10 -14 -2 -11 3 -18 14
-18 21 0 56 -39 47 -53 -3 -5 -1 -7 4 -4 12 8 56 -27 46 -37 -3 -3 -1 -6 6 -6
7 0 19 -7 27 -15 9 -8 12 -15 7 -15 -4 0 5 -9 20 -19 21 -13 25 -20 15 -25 -7
-3 -3 -4 9 -2 15 3 20 0 16 -10 -3 -8 0 -14 7 -14 7 0 10 -7 6 -16 -3 -8 -2
-12 4 -9 6 3 10 1 10 -5 0 -6 5 -8 12 -4 8 5 9 2 5 -10 -4 -10 -3 -15 3 -11
11 7 32 -29 23 -39 -3 -3 1 -6 10 -6 15 0 22 -11 18 -32 0 -5 6 -8 14 -8 14 0
19 -12 16 -32 0 -5 6 -8 14 -8 8 0 15 -3 14 -7 -2 -16 14 -53 22 -53 5 0 9 -7
9 -15 0 -8 5 -15 10 -15 6 0 10 -7 10 -15 0 -8 4 -15 9 -15 8 0 20 -27 25 -55
1 -5 8 -9 15 -7 8 2 10 -4 6 -18 -4 -12 -2 -20 5 -20 6 0 8 -4 5 -10 -3 -5 -1
-10 4 -10 6 0 11 -9 11 -20 0 -11 4 -20 10 -20 5 0 9 -3 9 -7 -4 -22 2 -33 14
-27 8 5 8 2 -2 -9 -12 -15 -11 -17 2 -17 10 0 15 -7 12 -20 -2 -11 0 -20 5
-20 4 0 11 -7 14 -16 3 -8 2 -12 -4 -9 -6 3 -7 -1 -4 -9 3 -9 10 -14 14 -11 4
2 8 -7 8 -21 0 -15 4 -29 9 -33 5 -3 8 -13 8 -21 -1 -8 4 -25 12 -37 7 -13 11
-23 7 -23 -4 0 0 -8 7 -17 8 -10 9 -14 2 -10 -6 4 -14 3 -18 -3 -3 -5 1 -10 9
-10 9 0 13 -7 11 -20 -2 -11 0 -20 5 -20 4 0 11 -7 14 -16 4 -9 2 -13 -5 -8
-7 4 -10 1 -7 -7 3 -8 11 -13 17 -11 8 1 9 -2 5 -10 -12 -19 -14 -39 -3 -32 6
3 7 -5 3 -22 -4 -15 -3 -25 2 -21 5 3 9 -5 9 -18 0 -13 -4 -20 -10 -17 -5 3
-1 -4 9 -16 11 -12 15 -22 10 -22 -5 0 -10 -9 -10 -20 0 -11 4 -20 9 -20 4 0
6 -14 3 -30 -3 -24 -1 -30 14 -30 10 0 26 -3 36 -7 11 -4 15 -3 11 5 -10 14
22 20 52 10 19 -7 22 -5 17 7 -4 12 -2 13 12 7 9 -5 23 -7 31 -4 9 3 11 0 7
-9 -4 -8 -1 -6 7 4 11 14 16 15 20 5 4 -10 6 -10 6 1 1 11 4 11 16 1 8 -7 15
-8 15 -3 0 10 18 10 73 0 16 -4 25 -2 22 4 -4 5 -11 6 -17 3 -7 -4 -8 -2 -4 4
5 9 12 9 26 0 10 -7 16 -17 12 -23 -3 -5 2 -4 11 4 14 11 20 11 34 0 11 -10
14 -10 9 -1 -4 6 -3 12 3 12 5 0 13 -5 16 -10 5 -8 11 -7 21 1 13 10 18 6 15
-13 0 -4 6 -5 14 -2 9 4 15 0 16 -7 0 -8 4 -5 9 6 5 11 9 15 9 8 1 -6 12 -10
26 -9 14 2 22 -1 18 -7 -3 -5 0 -7 8 -5 8 3 20 -2 27 -11 8 -9 11 -10 7 -3 -8
16 6 15 41 -2 15 -8 31 -13 36 -10 4 3 8 0 8 -6 0 -6 5 -8 10 -5 6 3 10 1 10
-5 0 -6 5 -8 10 -5 6 3 10 0 10 -7 0 -9 3 -9 10 2 6 10 10 11 10 3 0 -7 7 -13
16 -13 9 0 12 -5 8 -12 -4 -7 -3 -8 5 -4 6 4 18 2 26 -4 8 -6 19 -9 25 -5 5 3
10 -1 10 -9 0 -9 6 -13 14 -10 7 3 16 -2 20 -11 4 -10 12 -15 22 -11 8 3 12 2
9 -4 -5 -9 1 -12 21 -9 3 0 14 -9 23 -20 10 -12 26 -21 35 -21 10 0 15 -4 12
-9 -3 -5 8 -14 24 -21 16 -7 27 -17 23 -23 -4 -6 0 -8 11 -4 9 4 15 3 13 -1
-2 -4 8 -18 21 -32 14 -14 22 -18 18 -10 -4 8 0 6 8 -4 9 -11 16 -24 16 -30 0
-5 3 -6 7 -3 3 4 13 -2 20 -13 8 -11 19 -18 24 -14 5 3 9 2 8 -3 -3 -20 2 -34
11 -28 5 3 10 0 10 -8 0 -8 7 -17 15 -21 8 -3 15 -13 15 -21 0 -9 5 -13 10
-10 6 3 10 -1 10 -9 0 -9 5 -16 11 -16 5 0 8 -3 6 -7 -7 -11 19 -33 29 -25 4
4 5 3 2 -3 -9 -17 11 -57 24 -49 8 5 9 2 5 -9 -3 -10 -2 -17 3 -17 6 0 10 -7
10 -15 0 -8 5 -15 10 -15 6 0 10 -7 10 -15 0 -8 5 -15 11 -15 8 0 8 -4 0 -14
-9 -11 -8 -15 4 -20 11 -4 14 -2 9 6 -4 6 -3 8 4 5 5 -4 8 -16 5 -26 -3 -10 1
-22 8 -26 8 -6 10 -4 4 5 -5 9 -4 11 4 6 9 -6 9 -11 0 -22 -8 -10 -8 -14 0
-14 6 0 14 -12 17 -27 4 -16 12 -34 18 -42 8 -11 8 -13 -1 -7 -9 5 -11 2 -7
-8 3 -9 10 -16 15 -16 6 0 4 -10 -2 -22 -11 -21 -11 -22 5 -9 14 12 16 12 10
-4 -6 -14 -4 -16 7 -10 12 7 12 6 1 -7 -9 -11 -10 -18 -2 -23 7 -4 7 -13 -1
-27 -8 -15 -8 -19 0 -14 6 4 11 2 11 -4 0 -6 5 -8 12 -4 7 5 8 3 2 -7 -13 -21
-14 -40 -1 -32 7 4 8 0 4 -11 -5 -12 -3 -16 5 -13 7 2 12 12 10 22 -2 10 1 14
7 10 6 -3 11 1 11 9 0 9 5 16 10 16 6 0 10 11 10 25 0 15 6 25 15 25 9 0 12 6
8 15 -3 10 0 15 8 13 8 -2 13 4 11 14 -1 10 6 23 18 30 22 14 28 33 8 23 -7
-4 -4 1 6 9 11 9 17 16 13 16 -5 0 -2 6 5 14 7 8 18 11 23 8 6 -3 4 1 -3 10
-11 14 -11 18 0 25 19 12 35 45 32 65 -1 12 3 15 14 11 10 -4 14 -3 10 2 -4 4
-1 20 7 35 8 15 11 31 7 35 -4 5 -2 5 5 1 6 -3 14 -2 18 4 3 5 0 10 -7 10 -9
0 -9 3 2 10 8 5 15 15 15 22 1 7 7 12 14 10 7 -1 10 2 6 8 -7 12 16 70 27 70
4 0 4 8 1 17 -5 13 -3 15 13 9 15 -6 16 -4 7 5 -9 9 -8 18 5 37 9 15 17 29 17
32 0 3 3 4 6 3 3 -1 5 8 5 20 -1 14 4 21 13 19 12 -3 12 0 1 12 -10 14 -10 16
5 16 14 0 15 3 5 15 -10 12 -9 16 2 20 8 3 15 12 16 20 1 8 3 22 4 30 1 8 6
15 11 15 5 0 7 7 3 15 -3 8 -1 15 5 15 6 0 7 5 3 12 -5 8 -1 9 12 4 15 -6 16
-5 7 5 -8 8 -9 18 -2 31 5 10 7 24 3 30 -4 7 -3 8 4 4 11 -6 16 6 13 27 0 4 3
7 9 7 5 0 10 5 10 11 0 5 -6 7 -12 3 -7 -4 -5 2 5 13 14 16 15 22 5 26 -8 4
-7 6 5 6 9 1 17 6 17 12 0 5 -6 7 -12 3 -9 -6 -9 -3 0 9 8 9 11 20 8 26 -3 5
-3 11 1 13 5 1 16 18 25 36 10 18 13 30 8 27 -16 -10 -12 5 6 22 12 13 13 18
3 24 -11 6 -10 9 3 14 9 4 14 13 12 20 -3 7 -1 16 5 20 6 3 11 12 11 18 0 7
-4 6 -10 -3 -6 -9 -10 -10 -10 -3 0 6 5 15 11 19 6 3 9 15 6 25 -3 11 -2 17 3
14 10 -6 22 24 14 36 -3 5 0 9 5 9 6 0 11 5 11 11 0 5 -5 7 -11 3 -7 -4 -6 3
2 17 7 13 12 28 11 33 -2 5 3 13 10 17 10 7 10 9 1 9 -7 0 -13 5 -13 10 0 6 3
9 8 9 19 -3 23 2 12 16 -7 9 -8 15 -2 15 6 0 9 12 7 26 -2 18 1 24 12 20 9 -4
11 -2 6 7 -11 17 -13 37 -3 37 5 0 7 11 5 25 -1 14 2 25 8 25 5 0 7 9 4 20 -3
11 -1 23 5 26 5 3 7 12 4 20 -3 7 -1 16 3 18 5 3 6 18 3 32 -4 20 -2 25 8 19
9 -6 10 -3 2 12 -6 10 -7 25 -2 34 5 8 7 27 6 41 -2 17 3 29 12 33 11 4 12 9
4 17 -8 8 -8 17 -1 31 7 12 7 17 1 13 -6 -4 -8 2 -5 14 3 11 10 17 15 14 6 -4
6 1 0 13 -6 11 -7 25 -2 33 6 10 3 21 -8 34 -9 11 -12 16 -5 13 6 -4 15 -2 19
5 11 17 11 62 1 69 -5 4 2 16 15 28 14 13 16 20 7 16 -14 -5 -16 2 -15 44 0
28 4 51 9 51 4 0 7 5 7 11 0 5 -6 7 -12 3 -9 -6 -9 -3 1 9 7 9 11 24 7 32 -3
8 0 15 6 15 7 0 3 7 -8 16 -10 8 -14 13 -7 10 6 -4 14 -2 18 4 3 5 1 10 -5 10
-7 0 -8 6 -1 19 6 10 7 21 4 25 -10 10 -12 36 -4 36 9 0 8 31 -2 47 -4 6 -3
14 3 18 6 4 7 12 3 18 -10 16 -13 37 -5 37 4 0 7 13 7 29 0 16 -3 27 -7 24
-13 -7 -9 12 4 25 9 9 9 12 0 12 -9 0 -10 5 -3 19 6 10 7 21 4 25 -10 10 -9
66 2 66 6 0 6 3 -1 8 -10 7 -13 26 -14 120 -1 31 -4 41 -13 35 -9 -5 -9 -3 0
9 7 8 10 18 6 21 -9 10 -10 88 -1 93 5 3 8 11 8 17 0 7 -4 6 -10 -3 -8 -13
-10 -12 -11 5 -1 11 -1 28 -1 38 1 10 -2 16 -6 13 -4 -2 -8 4 -8 15 0 10 4 19
9 19 5 0 4 6 -2 14 -9 10 -9 16 -1 21 7 4 8 11 1 19 -5 6 -11 34 -14 62 -2 28
-7 56 -11 62 -4 7 -2 12 5 12 6 0 1 9 -12 20 -21 17 -21 19 -4 13 17 -6 18 -4
8 9 -7 8 -10 18 -6 21 3 4 0 7 -8 7 -11 0 -11 2 1 10 10 6 11 10 3 10 -7 0
-12 3 -12 8 4 26 -3 72 -10 68 -5 -4 -7 3 -4 13 3 10 0 28 -6 39 -8 15 -8 22
2 25 9 4 9 6 -1 6 -7 1 -10 6 -7 11 3 6 1 10 -6 10 -8 0 -8 4 1 15 10 12 10
15 0 15 -7 0 -10 7 -7 15 4 8 2 17 -4 20 -5 4 -7 11 -4 16 4 5 2 9 -4 9 -6 0
-8 7 -5 15 4 8 2 15 -4 15 -5 0 -8 14 -6 30 2 17 -1 30 -7 30 -7 0 -9 11 -7
25 4 17 0 29 -11 35 -13 8 -14 9 -1 10 12 0 12 2 2 9 -8 4 -14 12 -15 17 -1 5
-6 8 -10 6 -5 -1 -5 3 -1 10 12 19 14 39 3 32 -5 -3 -9 9 -9 25 0 17 -4 31
-10 31 -5 0 -7 7 -4 15 4 8 1 21 -5 29 -6 7 -8 16 -4 19 3 4 -1 9 -10 13 -9 3
-13 12 -10 20 3 8 0 21 -7 29 -7 8 -9 15 -5 15 4 0 0 12 -10 26 -11 18 -13 24
-4 19 8 -5 3 4 -11 20 -14 16 -19 25 -12 21 16 -10 11 26 -8 49 -8 10 -15 25
-15 34 0 9 -5 15 -12 14 -9 -2 -10 4 -3 23 9 23 8 25 -12 19 -13 -3 -18 -3
-13 2 14 11 17 33 4 33 -5 0 -7 5 -4 10 3 6 1 10 -5 10 -6 0 -8 5 -5 10 3 6 2
10 -4 10 -6 0 -8 6 -5 14 3 7 -2 21 -11 30 -9 9 -13 16 -8 16 4 0 -1 7 -11 15
-11 8 -15 15 -8 15 6 0 9 7 6 15 -4 8 -11 12 -17 8 -5 -3 -7 -1 -4 4 4 6 0 23
-8 39 -7 15 -11 32 -8 37 4 6 1 7 -7 2 -10 -6 -12 -4 -7 8 3 9 3 16 -1 16 -19
-3 -25 2 -12 11 13 8 13 10 -2 10 -11 0 -15 5 -12 15 4 8 -1 17 -9 21 -9 3
-13 12 -10 20 3 7 -2 17 -11 20 -9 3 -13 10 -10 15 3 5 1 9 -4 9 -5 0 -9 7
-10 15 -1 8 -3 22 -4 30 -1 8 -4 12 -8 10 -3 -2 -12 11 -20 28 -7 18 -17 34
-21 37 -4 3 -9 12 -11 20 -2 8 -12 23 -22 33 -14 12 -15 17 -5 17 10 1 9 4 -4
11 -9 6 -15 14 -12 20 4 5 1 9 -4 9 -6 0 -11 6 -11 14 0 7 -7 19 -15 26 -8 6
-13 17 -12 23 1 7 -3 11 -10 10 -6 -1 -14 4 -17 13 -3 8 -1 12 4 9 6 -3 7 1 4
9 -3 9 -10 13 -15 10 -5 -3 -9 1 -9 9 0 8 -9 24 -20 37 -11 12 -17 26 -15 30
3 4 -2 11 -11 14 -10 4 -14 12 -10 23 4 10 4 14 0 11 -8 -8 -34 14 -27 25 2 4
-1 7 -7 7 -7 0 -10 7 -6 15 3 8 2 14 -2 12 -4 -1 -8 3 -10 8 -2 6 -13 15 -25
22 -15 8 -17 13 -7 13 11 0 9 6 -7 19 -13 11 -23 24 -23 30 0 5 -8 15 -17 20
-10 6 -14 11 -10 11 4 0 2 6 -5 14 -7 8 -16 12 -20 9 -4 -2 -5 2 -2 10 3 8 -2
17 -10 20 -9 4 -16 11 -16 17 0 17 -26 40 -35 32 -5 -4 -5 -2 -2 4 7 13 -27
57 -36 47 -4 -3 -4 4 -2 17 3 16 0 20 -11 16 -9 -3 -12 -2 -9 4 3 6 -1 13 -9
16 -8 3 -18 14 -21 25 -4 10 -14 19 -23 20 -10 0 -12 3 -5 6 10 3 10 7 0 18
-7 7 -15 11 -19 8 -5 -2 -8 1 -8 7 0 7 -14 25 -30 40 -17 16 -31 31 -30 34 0
4 -3 6 -7 7 -11 1 -32 42 -27 51 3 4 -2 5 -10 2 -11 -4 -16 0 -16 11 0 9 -4
13 -10 10 -5 -3 -10 1 -10 10 0 8 -15 24 -32 35 -18 11 -28 20 -23 20 6 0 0 9
-12 19 -12 10 -19 22 -15 26 4 3 2 6 -3 5 -22 -5 -35 1 -32 13 1 6 -4 11 -12
9 -12 -3 -12 -1 0 14 12 15 12 17 0 13 -8 -3 -32 12 -53 33 -21 21 -43 38 -48
38 -6 0 -9 6 -7 12 1 7 -9 14 -22 16 -19 3 -21 6 -10 13 11 7 10 9 -4 9 -10 0
-15 5 -12 10 3 6 0 10 -7 10 -17 0 -45 32 -42 48 1 7 0 8 -3 2 -7 -15 -23 -12
-23 6 0 8 -4 13 -8 10 -5 -3 -16 6 -26 20 -11 13 -25 24 -33 24 -8 0 -11 5 -8
10 3 6 -2 13 -12 17 -10 3 -26 13 -35 22 -34 32 -46 40 -52 34 -3 -4 -6 -1 -6
5 0 5 3 12 8 15 4 2 2 2 -5 1 -6 -2 -17 4 -23 12 -7 8 -19 14 -26 14 -8 0 -14
7 -14 16 0 10 -6 14 -15 10 -9 -3 -15 0 -15 9 0 8 -3 14 -7 13 -16 -3 -43 15
-43 27 0 8 -5 17 -12 21 -7 5 -8 3 -3 -6 5 -8 -7 -2 -27 13 -19 15 -38 24 -41
21 -4 -4 -4 4 -2 16 3 18 2 21 -7 12 -14 -14 -32 -16 -23 -3 7 12 -30 33 -40
23 -3 -4 -5 -2 -3 3 2 6 -1 11 -7 13 -5 2 -14 10 -18 18 -4 8 -15 14 -22 14
-8 0 -15 5 -15 10 0 6 -7 10 -16 10 -9 0 -12 5 -8 12 4 6 3 8 -4 4 -6 -3 -17
0 -25 8 -8 8 -18 12 -22 8 -5 -4 -6 0 -2 9 4 12 0 15 -19 13 -16 -1 -24 3 -24
14 0 8 -3 12 -6 9 -11 -10 -45 13 -38 25 5 7 2 9 -9 5 -9 -3 -19 -2 -22 4 -4
5 -11 6 -17 3 -6 -4 -8 -2 -4 4 3 6 2 13 -4 17 -5 3 -10 1 -10 -6 0 -7 -9 -2
-19 10 -11 13 -24 20 -29 17 -4 -3 -16 3 -25 12 -22 23 -45 42 -52 42 -3 0 -3
-6 0 -12 4 -7 -2 -3 -13 9 -11 12 -22 19 -26 16 -3 -4 -6 -1 -6 5 0 7 -3 11
-7 11 -19 -3 -34 2 -29 9 3 5 0 9 -7 9 -21 1 -42 8 -48 16 -3 5 -14 9 -23 11
-10 1 -21 8 -25 15 -4 7 -14 11 -22 9 -8 -2 -13 2 -12 9 2 7 -4 10 -12 7 -8
-4 -15 -1 -15 6 0 6 -4 8 -10 5 -5 -3 -10 -1 -10 5 0 6 -4 9 -9 5 -5 -3 -12
-1 -16 5 -3 5 -13 10 -22 10 -9 0 -24 6 -32 14 -9 8 -25 16 -36 18 -11 1 -26
10 -33 18 -12 13 -13 13 -6 0 6 -12 4 -12 -12 1 -30 25 -48 34 -39 20 4 -8 -3
-6 -18 3 -13 9 -31 15 -38 14 -7 -2 -13 2 -14 9 0 6 -4 15 -9 20 -5 5 -6 3 -2
-4 4 -7 2 -13 -3 -13 -6 0 -11 5 -11 11 0 5 -4 8 -8 5 -5 -3 -21 2 -36 10 -16
7 -35 14 -43 14 -8 0 -11 5 -7 12 5 7 3 8 -7 2 -24 -14 -42 -14 -29 0 8 10 5
13 -12 12 -13 -1 -32 4 -44 11 -11 7 -24 10 -27 6 -4 -3 -7 -2 -7 3 0 5 -9 11
-20 12 -44 4 -50 6 -50 15 0 5 -9 7 -21 4 -12 -3 -22 0 -26 9 -4 12 -8 12 -21
2 -12 -10 -14 -10 -8 0 6 11 -11 17 -36 13 -5 0 -8 3 -8 9 0 6 -9 6 -26 -1
-25 -9 -26 -8 -13 8 12 15 12 16 -2 11 -9 -4 -27 1 -40 9 -12 9 -19 11 -15 5
4 -7 2 -12 -3 -12 -6 0 -11 4 -11 9 0 6 -9 8 -20 6 -11 -2 -20 1 -20 7 0 7 -5
6 -14 -1 -11 -9 -16 -9 -22 0 -5 8 -3 9 6 4 8 -5 11 -4 7 3 -4 5 -18 9 -32 7
-14 -1 -25 2 -25 6 0 5 -5 9 -11 9 -5 0 -8 -4 -5 -9 4 -5 -5 -4 -18 2 -13 7
-22 16 -19 22 3 5 0 4 -7 -2 -11 -10 -17 -9 -32 4 -17 16 -18 16 -12 0 5 -15
3 -15 -25 -1 -17 8 -35 13 -41 9 -5 -3 -10 -1 -10 5 0 6 -5 8 -10 5 -6 -4 -18
-1 -27 7 -12 9 -15 9 -9 1 4 -7 2 -13 -3 -13 -6 0 -11 4 -11 10 0 5 -7 7 -15
4 -8 -4 -22 -1 -29 5 -10 8 -16 9 -21 1 -4 -7 -12 -7 -26 1 -12 6 -23 8 -26 6
-2 -3 -16 1 -31 9 -19 9 -30 10 -39 2 -12 -10 -17 -4 -14 15 1 5 -2 6 -7 3 -5
-3 -20 -7 -35 -10 -21 -4 -25 -1 -20 12 6 15 5 15 -10 3 -12 -9 -17 -10 -17
-2 0 8 -5 9 -19 1 -13 -7 -22 -7 -26 0 -3 5 -11 10 -16 10 -6 0 -7 -5 -4 -11
4 -6 -2 -5 -13 2 -12 7 -18 18 -16 24 3 5 -2 1 -10 -9 -9 -11 -16 -14 -16 -8
0 7 -5 12 -11 12 -5 0 -7 -6 -3 -12 4 -7 -1 -5 -12 4 -12 11 -24 14 -30 9 -5
-6 -24 -4 -47 4 -33 11 -36 11 -26 -2 10 -11 10 -14 -2 -11 -8 2 -17 7 -21 13
-9 12 -57 15 -64 3 -3 -4 -14 -3 -25 2 -14 8 -19 7 -19 -2 0 -10 -2 -10 -8 -1
-6 9 -80 12 -299 11 -160 -1 -290 -5 -288 -9z m-3235 -1523 c0 -2 -8 -10 -17
-17 -16 -13 -17 -12 -4 4 13 16 21 21 21 13z m3430 -830 c0 -3 -4 -8 -10 -11
-5 -3 -10 -1 -10 4 0 6 5 11 10 11 6 0 10 -2 10 -4z m-1189 -373 c13 -16 12
-17 -3 -4 -10 7 -18 15 -18 17 0 8 8 3 21 -13z m140 -160 c13 -16 12 -17 -3
-4 -10 7 -18 15 -18 17 0 8 8 3 21 -13z m-2236 -1943 c-3 -5 -12 -10 -18 -10
-7 0 -6 4 3 10 19 12 23 12 15 0z m2735 -433 c0 -2 -10 -12 -22 -23 l-23 -19
19 23 c18 21 26 27 26 19z m-4103 -772 c0 -8 -4 -12 -9 -9 -5 3 -6 10 -3 15 9
13 12 11 12 -6z m1868 -415 c3 -6 -1 -7 -9 -4 -18 7 -21 14 -7 14 6 0 13 -4
16 -10z"/>
<path d="M2440 8069 c0 -5 5 -7 10 -4 6 3 10 8 10 11 0 2 -4 4 -10 4 -5 0 -10
-5 -10 -11z"/>
<path d="M4987 7219 c7 -7 15 -10 18 -7 3 3 -2 9 -12 12 -14 6 -15 5 -6 -5z"/>
<path d="M5626 5232 c-2 -4 4 -8 14 -8 10 0 16 4 14 8 -3 4 -9 8 -14 8 -5 0
-11 -4 -14 -8z"/>
<path d="M2844 4808 l-19 -23 23 19 c12 11 22 21 22 23 0 8 -8 2 -26 -19z"/>
<path d="M3950 3059 c0 -5 5 -7 10 -4 6 3 10 8 10 11 0 2 -4 4 -10 4 -5 0 -10
-5 -10 -11z"/>
</g>
</svg>
