<?xml version="1.0" standalone="no"?>
<!DOCTYPE svg PUBLIC "-//W3C//DTD SVG 20010904//EN"
 "http://www.w3.org/TR/2001/REC-SVG-20010904/DTD/svg10.dtd">
<svg version="1.0" xmlns="http://www.w3.org/2000/svg"
 width="1760.000000pt" height="1760.000000pt" viewBox="0 0 1760.000000 1760.000000"
 preserveAspectRatio="xMidYMid meet">
<metadata>
Created by potrace 1.14, written by Peter Selinger 2001-2017
</metadata>
<g transform="translate(0.000000,1760.000000) scale(0.100000,-0.100000)"
fill="#000000" stroke="none">
<path d="M1500 11469 c0 -20 -115 -46 -126 -27 -3 4 -10 5 -17 1 -16 -9 -58
-10 -63 -1 -3 5 -13 5 -22 0 -21 -9 -43 -9 -59 1 -6 4 -14 3 -17 -1 -3 -5 -24
-7 -46 -5 -26 3 -40 0 -40 -8 0 -8 -4 -8 -15 1 -8 7 -15 8 -15 3 0 -5 -12 -10
-27 -11 -15 -1 -29 -6 -32 -11 -3 -4 -14 -7 -23 -5 -10 1 -18 -2 -18 -6 0 -5
-16 -14 -36 -20 -19 -7 -38 -18 -41 -26 -3 -8 -9 -12 -13 -9 -11 7 -130 -109
-130 -126 0 -7 -3 -9 -7 -6 -7 8 -53 -79 -53 -100 0 -7 -4 -13 -10 -13 -5 0
-7 -7 -4 -15 4 -8 1 -15 -7 -15 -7 0 -10 -3 -6 -6 3 -3 2 -16 -3 -29 -5 -14
-5 -26 2 -33 8 -8 7 -13 -3 -17 -11 -4 -14 -24 -13 -88 0 -45 2 -86 4 -92 1
-5 1 -12 0 -15 -7 -16 -7 -78 1 -97 4 -12 5 -25 0 -27 -10 -7 -8 -117 3 -135
6 -9 5 -12 -1 -8 -9 5 -11 -85 -3 -118 1 -5 1 -14 0 -20 -2 -5 -4 -23 -5 -40
-2 -16 -3 -36 -4 -43 -1 -8 -13 -11 -38 -9 -21 3 -48 0 -61 -4 -17 -7 -21 -6
-16 3 5 8 2 9 -12 4 -10 -5 -30 -9 -44 -10 -14 -1 -31 -5 -38 -9 -6 -5 -12 -6
-12 -2 0 3 -15 -1 -34 -9 -19 -8 -37 -12 -40 -8 -3 3 -6 0 -6 -7 0 -7 -4 -10
-9 -6 -5 3 -16 -2 -25 -10 -8 -9 -19 -16 -23 -15 -4 0 -16 -7 -26 -15 -10 -9
-23 -13 -29 -9 -7 4 -8 3 -4 -4 4 -8 -3 -16 -19 -22 -14 -5 -23 -14 -20 -20 3
-5 0 -10 -7 -10 -13 0 -68 -55 -68 -67 0 -3 -8 -12 -17 -20 -10 -8 -12 -11 -4
-7 9 5 12 3 7 -4 -4 -7 -14 -12 -21 -12 -9 0 -12 -6 -9 -15 4 -8 1 -15 -5 -15
-6 0 -10 -3 -10 -7 4 -22 -2 -33 -13 -27 -7 4 -10 4 -6 -1 4 -4 2 -15 -5 -23
-8 -11 -8 -14 0 -9 6 4 3 -10 -7 -30 -10 -21 -16 -45 -15 -55 2 -10 0 -18 -6
-18 -6 0 -9 -587 -9 -1570 0 -1027 4 -1570 10 -1570 6 0 10 -5 10 -11 0 -5 -5
-7 -11 -3 -7 4 -6 -3 2 -17 7 -13 12 -27 11 -31 -1 -4 3 -20 10 -35 6 -15 11
-31 10 -35 -1 -5 3 -8 9 -8 5 0 7 -4 4 -10 -3 -5 -1 -10 5 -10 6 0 8 -4 5 -10
-3 -5 -1 -10 6 -10 7 0 10 -3 6 -6 -6 -6 1 -17 36 -55 9 -10 17 -22 17 -25 0
-8 102 -104 111 -104 4 0 14 -6 21 -13 7 -6 31 -21 53 -32 22 -11 43 -24 47
-30 5 -6 8 -5 8 4 0 11 3 11 15 1 8 -7 15 -9 15 -4 0 5 4 3 8 -4 5 -7 26 -14
48 -16 21 -3 39 -5 39 -6 0 -5 887 -4 891 1 2 3 18 6 35 7 18 0 35 4 38 9 6 8
19 12 49 17 8 1 18 9 23 17 5 8 9 10 9 6 0 -4 10 -2 23 5 12 7 26 11 30 10 5
-1 6 2 3 7 -4 5 3 12 14 16 11 3 20 11 20 16 0 5 7 9 16 9 9 0 12 5 8 12 -5 8
-2 9 10 5 9 -4 15 -3 12 1 -3 5 3 15 12 24 33 30 120 168 106 168 -4 0 -1 6 5
13 6 8 8 17 4 20 -3 4 -1 7 4 7 6 0 10 8 8 18 -1 9 1 22 6 27 4 6 6 20 5 30
-2 11 -1 25 3 30 10 18 11 46 1 40 -5 -3 -10 -2 -10 3 0 6 7 13 16 16 8 3 12
10 9 16 -10 16 -15 50 -7 50 4 0 7 23 7 50 0 28 4 50 10 50 5 0 3 5 -5 10 -13
9 -13 10 0 10 13 0 13 1 0 10 -8 5 -10 10 -4 10 6 0 10 10 9 23 -1 12 1 29 6
38 5 9 3 21 -3 27 -9 9 -8 12 3 12 12 0 12 2 -1 10 -8 5 -10 10 -5 10 6 0 11
28 13 63 4 98 6 112 17 119 6 5 5 8 -4 8 -10 0 -11 3 -3 13 7 8 7 18 2 27 -5
8 -6 19 -2 25 8 12 11 42 12 113 1 33 5 50 12 46 6 -4 6 1 -1 14 -6 12 -8 23
-3 26 4 2 7 30 7 60 -1 31 1 56 4 56 3 0 6 13 7 30 1 19 -3 27 -10 23 -6 -4
-5 1 3 10 7 9 10 17 7 17 -4 0 -2 8 3 18 7 13 6 23 -1 30 -8 8 -8 12 -2 12 12
0 12 29 -1 49 -6 10 -4 12 5 6 10 -6 12 -3 8 13 -4 13 -1 22 5 22 8 0 7 4 -2
9 -7 5 -9 11 -4 14 5 3 9 23 7 44 -1 21 2 46 8 56 6 11 5 17 -2 17 -6 0 -8 5
-4 12 8 12 12 48 15 133 1 28 5 57 10 66 5 9 3 21 -3 27 -7 7 -8 12 -2 12 6 0
10 30 9 69 0 38 3 67 6 65 3 -2 5 12 5 31 l-1 34 -63 -64 c-35 -36 -67 -65
-72 -65 -6 0 -9 -3 -8 -7 4 -11 -39 -53 -46 -45 -3 3 -6 0 -6 -6 0 -6 -28 -39
-62 -74 -35 -34 -62 -66 -61 -70 2 -4 0 -7 -5 -7 -19 3 -33 -2 -27 -10 3 -5
-4 -12 -15 -16 -11 -3 -19 -11 -17 -17 1 -6 -6 -12 -15 -13 -10 -2 -18 1 -18
6 0 5 -9 9 -20 9 -11 0 -23 7 -26 15 -4 8 -10 12 -15 9 -5 -3 -9 0 -9 5 0 6
-7 11 -15 11 -8 0 -15 5 -15 10 0 6 -9 10 -20 10 -11 0 -20 4 -20 9 0 5 -7 12
-16 15 -12 4 -10 -4 8 -37 13 -23 26 -43 31 -45 4 -2 7 -10 7 -17 0 -7 5 -15
10 -17 6 -2 12 -13 13 -25 0 -12 4 -20 8 -17 4 2 9 -4 11 -14 5 -19 -35 -65
-48 -54 -4 4 -4 2 -1 -4 3 -6 -7 -21 -24 -33 -16 -12 -27 -26 -24 -32 4 -5 3
-8 -2 -7 -5 2 -25 -14 -44 -34 l-36 -37 -35 17 c-20 9 -34 20 -32 23 4 7 -34
22 -48 20 -5 -1 -8 6 -8 15 0 8 -4 13 -9 9 -5 -3 -16 1 -24 9 -8 8 -17 13 -20
10 -7 -7 14 -54 23 -54 8 0 23 -39 21 -52 -1 -5 2 -8 7 -8 4 0 16 -15 26 -34
l18 -35 -28 -28 c-16 -15 -32 -27 -37 -25 -5 1 -6 -2 -2 -8 3 -5 -1 -13 -9
-16 -9 -3 -16 -14 -16 -23 0 -14 -2 -14 -10 -1 -7 10 -10 11 -10 2 0 -7 -60
-73 -134 -147 -73 -74 -132 -136 -129 -139 3 -2 -3 -3 -14 -1 -10 2 -21 4 -25
4 -5 1 -8 10 -8 22 0 11 -5 17 -10 14 -9 -6 -14 8 -11 28 0 4 -4 7 -11 7 -6 0
-8 3 -5 6 3 4 1 16 -5 28 -13 23 -15 37 -19 111 -2 28 0 56 4 63 5 6 4 12 -1
12 -6 0 -8 9 -5 20 3 11 10 17 17 13 6 -4 5 0 -2 9 -8 10 -9 19 -3 22 5 4 8
15 6 26 -2 11 1 20 6 20 5 0 9 6 8 13 -3 23 1 38 9 33 4 -2 8 3 9 12 2 29 9
50 20 63 5 8 13 27 17 42 4 15 11 25 16 22 5 -3 7 0 4 8 -3 8 0 18 5 22 6 3 9
11 6 16 -4 5 1 9 10 9 9 0 14 4 10 10 -3 5 3 18 14 29 11 11 17 22 14 25 -4 3
-1 6 5 6 6 0 13 8 16 18 4 9 26 38 50 64 24 26 41 50 38 53 -3 3 0 5 6 5 7 0
12 7 12 15 0 8 3 14 7 14 18 -3 33 1 31 9 -3 10 40 53 75 75 15 10 25 23 21
29 -4 7 -3 8 5 4 6 -4 14 0 17 8 3 9 10 13 15 10 5 -3 9 0 9 6 0 6 5 8 10 5 6
-3 10 2 10 11 0 10 3 15 6 11 3 -3 24 8 47 24 22 16 46 29 54 29 8 0 11 5 8
10 -5 9 6 12 32 9 13 -1 20 36 12 59 -5 13 -11 35 -14 50 -3 15 -7 38 -10 52
-4 14 -7 30 -8 35 -1 6 -7 11 -12 12 -6 1 -9 -4 -7 -12 1 -7 -2 -16 -8 -20 -8
-5 -8 -11 1 -21 9 -11 8 -15 -4 -20 -8 -3 -14 -13 -12 -22 1 -9 -1 -22 -6 -28
-5 -6 -10 -23 -11 -38 -1 -14 -6 -26 -11 -26 -4 0 -5 -5 -1 -12 4 -7 3 -8 -5
-4 -6 4 -66 8 -132 8 -113 0 -121 2 -129 22 -4 11 -6 24 -3 29 2 4 -1 7 -7 7
-7 0 -9 8 -5 20 3 11 2 20 -3 20 -6 0 -8 8 -5 19 3 10 0 22 -6 25 -6 4 -11 18
-11 31 0 13 -4 27 -10 30 -5 3 -7 0 -4 -8 3 -8 -1 -17 -9 -20 -10 -3 -13 -14
-10 -31 3 -16 1 -26 -6 -26 -7 0 -9 -5 -6 -10 4 -6 12 -8 18 -4 7 3 3 -2 -7
-10 -11 -9 -16 -16 -12 -16 5 0 4 -6 -3 -13 -8 -10 -7 -17 2 -26 9 -10 9 -12
-3 -9 -8 2 -14 -4 -15 -12 0 -13 -38 -15 -278 -16 -181 -1 -280 2 -284 9 -4 6
-1 7 7 2 10 -6 11 -4 4 6 -11 19 -14 39 -5 39 4 0 8 6 9 13 2 29 9 49 23 66 8
9 15 24 17 31 2 8 12 21 22 30 11 10 17 20 14 23 -3 3 4 10 15 17 12 6 18 16
15 22 -4 7 -3 8 4 4 7 -4 22 4 36 18 13 14 28 26 35 26 6 0 11 4 11 8 0 13 50
33 62 26 7 -4 8 -2 4 5 -8 12 33 32 48 23 5 -3 6 0 2 6 -5 8 2 12 18 12 14 0
26 5 26 11 0 6 7 9 15 5 8 -3 15 -1 15 5 0 6 4 8 9 4 5 -3 13 -1 16 5 4 6 16
8 27 4 14 -4 18 -2 14 5 -4 6 0 11 11 12 10 0 29 3 43 6 14 3 37 6 53 7 15 0
27 5 27 9 0 5 4 6 9 2 5 -3 13 -1 16 5 5 8 11 8 20 0 8 -7 20 -8 27 -3 16 10
278 12 278 2 0 -4 14 -5 31 -2 24 3 29 2 23 -9 -6 -10 -4 -10 9 1 9 7 17 9 17
4 0 -6 14 -9 30 -7 17 2 30 -1 30 -7 0 -6 9 -9 20 -6 11 3 27 -1 35 -10 12
-11 15 -11 15 -1 0 9 3 9 8 2 4 -6 20 -13 35 -16 15 -3 26 -3 23 -1 -4 4 13
32 57 96 6 10 12 22 12 28 0 5 7 14 15 19 8 5 11 10 5 10 -5 0 -3 5 5 11 11 8
9 9 -10 3 -13 -4 -30 -13 -38 -20 -7 -8 -20 -14 -28 -14 -8 0 -14 -3 -14 -7 0
-5 -14 -16 -31 -25 -18 -11 -27 -13 -24 -5 4 6 -2 1 -13 -12 l-20 -24 -11 21
c-6 12 -18 22 -26 22 -7 0 -17 9 -20 20 -3 11 -13 20 -21 20 -8 0 -14 10 -14
23 0 18 -2 19 -10 7 -6 -10 -10 -11 -10 -2 0 15 -36 52 -52 52 -6 0 -8 3 -5 7
4 3 0 11 -9 18 -14 10 -14 14 -3 26 8 8 15 20 17 28 1 7 9 20 17 28 8 8 15 20
15 28 0 7 4 15 10 17 5 2 13 18 16 37 l7 35 -23 -22 c-13 -12 -29 -22 -36 -22
-6 0 -17 -7 -24 -15 -7 -9 -19 -14 -26 -11 -8 3 -13 0 -11 -7 1 -7 -4 -11 -10
-9 -7 1 -13 -2 -13 -8 0 -21 -36 -9 -60 20 -14 17 -30 30 -37 30 -6 0 -15 9
-18 20 -3 11 -14 20 -22 20 -9 0 -14 2 -11 5 8 8 -198 215 -213 215 -7 0 -10
3 -6 6 3 3 -8 19 -25 36 l-30 29 20 20 c12 10 26 19 32 19 5 0 10 5 10 11 0 5
5 7 10 4 6 -3 10 -1 10 6 0 7 3 10 6 6 4 -3 20 1 36 9 23 12 28 12 22 2 -6
-10 -5 -11 8 -1 8 7 18 10 21 6 4 -3 7 -1 7 7 0 10 3 10 15 0 8 -7 15 -8 15
-3 0 10 51 8 78 -2 7 -3 10 0 7 5 -3 6 -1 10 4 10 6 0 11 -4 11 -9 0 -4 10 -7
23 -7 12 1 28 -2 35 -7 6 -5 12 -6 12 -2 0 4 7 2 15 -5 12 -10 15 -10 15 1 0
9 3 10 8 3 4 -6 33 -19 65 -29 31 -10 57 -22 57 -26 0 -5 9 -9 20 -9 11 0 20
-5 20 -11 0 -5 4 -8 9 -4 5 3 15 0 23 -7 7 -7 27 -20 43 -28 17 -8 38 -23 47
-33 9 -10 19 -18 23 -17 4 1 18 -7 31 -19 13 -12 27 -21 29 -21 3 0 19 -13 35
-30 16 -16 34 -30 40 -30 5 0 10 -6 10 -14 0 -8 9 -18 20 -21 11 -3 20 -10 20
-15 0 -4 20 -29 46 -54 25 -25 42 -51 39 -56 -4 -6 1 -7 12 -3 10 3 15 3 11
-2 -4 -4 6 -24 22 -43 16 -19 27 -39 25 -43 -3 -4 2 -9 10 -13 8 -3 15 -12 15
-21 0 -8 4 -15 8 -15 5 0 14 -16 22 -35 8 -19 17 -35 22 -35 4 0 8 -12 8 -26
0 -17 4 -23 12 -18 8 5 9 2 5 -9 -3 -10 -2 -17 4 -17 6 0 7 -4 4 -10 -3 -5 1
-10 9 -10 9 0 15 3 15 8 -3 19 2 33 10 28 5 -4 8 6 6 20 -1 14 3 28 10 31 7 2
16 16 19 29 4 15 11 22 18 18 6 -4 8 -3 4 4 -3 6 -2 13 4 17 6 4 8 11 5 16 -4
5 -2 9 3 9 5 0 12 9 15 21 4 13 10 18 18 13 8 -4 10 -3 5 4 -4 6 2 19 14 29
11 10 20 21 20 26 0 9 13 26 57 72 17 19 29 36 26 38 -2 3 5 8 16 12 12 3 20
9 18 13 -2 4 4 15 15 25 10 9 18 15 18 12 0 -2 17 13 38 34 20 21 47 42 60 46
12 3 20 10 17 15 -3 5 4 11 15 15 11 3 20 11 20 17 0 5 7 8 15 4 9 -3 15 0 15
10 0 8 5 12 10 9 6 -3 10 -1 10 4 0 6 7 11 15 11 8 0 15 5 15 11 0 5 4 8 9 4
5 -3 13 0 16 5 8 12 55 34 68 32 4 -1 10 5 13 13 3 8 10 12 15 9 6 -3 16 0 24
6 8 6 19 9 25 5 5 -3 10 -1 10 5 0 7 7 10 15 6 8 -3 15 -1 15 4 0 5 10 7 21 5
12 -3 18 -1 15 3 -4 4 19 12 51 17 40 7 60 7 65 0 5 -6 8 -5 8 3 0 9 5 10 18
3 10 -5 24 -6 32 -1 8 5 21 5 29 1 9 -5 24 -7 34 -6 9 2 17 0 17 -4 0 -4 12
-8 28 -9 15 -1 29 -7 30 -12 2 -6 9 -10 15 -10 7 0 25 -11 40 -24 27 -23 28
-25 11 -45 -10 -11 -22 -17 -27 -14 -6 3 -7 1 -3 -6 4 -6 0 -14 -8 -17 -9 -3
-16 -14 -16 -23 0 -14 -2 -14 -10 -1 -7 11 -10 11 -10 2 0 -14 -300 -320 -300
-306 0 5 -4 2 -10 -6 -8 -12 -10 -12 -16 3 -3 9 -10 14 -15 11 -5 -3 -9 0 -9
6 0 6 -4 9 -9 6 -5 -3 -12 1 -15 10 -3 8 -10 12 -16 9 -5 -3 -10 -3 -10 2 0 4
-14 14 -30 21 -17 8 -28 17 -26 21 3 4 -4 8 -15 8 -20 2 -27 -13 -8 -19 5 -2
12 -12 13 -23 2 -11 8 -19 14 -18 6 1 13 -4 16 -13 4 -10 1 -13 -7 -9 -6 4 -3
-1 7 -9 11 -9 17 -19 13 -22 -3 -4 4 -15 16 -26 12 -11 15 -16 7 -12 -11 6
-10 2 3 -13 17 -20 23 -37 10 -30 -10 4 -53 -40 -45 -47 3 -3 1 -6 -5 -6 -15
0 -53 -36 -53 -50 0 -7 -2 -11 -5 -8 -3 3 -24 -13 -45 -35 -33 -33 -41 -37
-46 -23 -4 10 -13 15 -20 12 -7 -3 -16 4 -19 15 -4 10 -11 16 -17 13 -6 -4
-17 2 -25 12 -8 10 -17 19 -21 18 -15 -2 -42 9 -42 17 0 5 -4 9 -8 9 -5 0 -9
-7 -9 -15 0 -8 4 -15 9 -15 4 0 8 -6 8 -13 0 -7 9 -23 20 -35 12 -12 17 -22
13 -22 -4 0 -3 -4 4 -8 6 -4 13 -14 15 -21 7 -33 30 -50 55 -40 14 5 29 6 35
3 7 -4 8 -2 4 4 -6 11 28 18 58 13 4 -1 14 3 22 10 8 6 20 9 28 6 8 -3 17 -3
21 1 10 11 53 13 228 15 128 0 170 -2 177 -12 5 -10 9 -10 15 -2 5 8 11 9 19
2 7 -6 22 -9 34 -6 12 2 22 0 22 -5 0 -5 8 -9 18 -9 35 -1 52 -5 52 -10 0 -4
11 -8 23 -9 13 -1 37 -8 52 -16 16 -8 32 -13 37 -10 4 3 8 0 8 -5 0 -6 9 -11
19 -11 11 0 21 -5 23 -10 2 -6 14 -12 28 -15 14 -3 30 -12 36 -20 6 -8 19 -15
28 -15 9 0 16 -4 16 -10 0 -5 7 -10 15 -10 8 0 15 -6 15 -12 0 -7 14 -21 31
-31 18 -10 29 -20 26 -24 -4 -3 5 -14 18 -25 14 -11 25 -25 25 -33 0 -7 5 -15
11 -17 5 -2 11 -10 13 -18 1 -8 7 -24 13 -35 5 -11 8 -26 6 -32 -3 -7 0 -13 5
-13 5 0 8 -12 7 -27 -1 -22 -6 -27 -34 -31 -18 -2 -40 3 -49 10 -9 8 -13 8 -9
1 5 -8 -16 -11 -78 -11 -62 0 -83 3 -78 11 5 9 3 9 -8 0 -9 -7 -53 -11 -127
-10 -67 1 -114 -2 -116 -8 -3 -6 -5 -5 -5 2 -1 6 -10 9 -23 5 -16 -4 -19 -2
-13 9 7 12 6 12 -7 1 -13 -11 -17 -8 -23 20 -4 18 -7 39 -6 46 1 6 -3 12 -9
12 -7 0 -7 6 1 21 8 15 8 19 0 15 -10 -6 -16 20 -12 47 0 4 -3 7 -9 7 -5 0
-10 8 -11 18 -1 18 -17 -39 -21 -75 -1 -13 -6 -23 -10 -23 -4 0 -7 -8 -6 -17
1 -58 -23 -93 -48 -72 -10 8 -15 9 -11 2 5 -8 -10 -11 -57 -11 -45 1 -63 4
-59 12 4 6 -1 5 -10 -2 -9 -8 -33 -12 -59 -10 -34 3 -43 8 -45 23 -1 11 -6 34
-11 52 -6 17 -8 34 -4 37 3 3 1 6 -5 6 -9 0 -11 6 -14 53 -1 13 -7 24 -15 24
-7 0 -11 -4 -8 -9 3 -4 -1 -8 -8 -8 -9 0 -9 -3 2 -10 8 -5 10 -10 4 -10 -6 0
-11 -6 -12 -12 0 -7 -3 -26 -6 -43 -2 -16 -5 -34 -5 -38 -1 -5 -5 -6 -9 -3 -5
3 -7 -5 -6 -17 1 -12 3 -30 3 -39 1 -12 6 -15 18 -11 11 4 14 3 9 -5 -5 -8 0
-12 13 -12 12 0 21 -5 21 -11 0 -5 5 -7 10 -4 6 3 10 1 10 -6 0 -7 3 -9 6 -6
4 4 15 -3 25 -14 9 -11 20 -20 23 -20 24 3 30 0 17 -8 -11 -7 -9 -10 10 -13
13 -2 23 -9 21 -16 -1 -8 2 -10 9 -7 6 4 19 -2 30 -14 11 -12 24 -21 30 -21 6
0 7 -4 4 -10 -3 -5 -1 -10 5 -10 18 0 192 -185 182 -195 -3 -3 1 -5 8 -5 7 0
10 -3 7 -7 -4 -3 2 -13 13 -20 11 -8 18 -18 16 -22 -3 -4 4 -13 14 -21 10 -8
17 -17 14 -22 -3 -4 1 -11 10 -14 8 -3 12 -12 9 -20 -3 -8 0 -14 7 -14 6 0 9
-4 6 -9 -4 -5 -2 -11 3 -13 5 -1 11 -10 13 -18 2 -8 9 -21 16 -28 7 -8 10 -18
7 -23 -4 -5 -1 -9 5 -9 6 0 8 -4 5 -10 -3 -5 -2 -10 4 -10 5 0 8 -9 6 -20 -2
-11 0 -20 6 -20 5 0 9 -8 9 -18 0 -10 6 -24 13 -31 10 -11 9 -12 -3 -6 -13 8
-13 6 -1 -8 7 -9 11 -26 8 -37 -3 -13 -1 -18 6 -13 6 4 8 0 4 -10 -4 -10 -2
-17 5 -17 7 0 7 -4 -1 -14 -7 -8 -8 -17 -4 -19 5 -3 8 -30 7 -59 -3 -71 -3
-70 -12 -64 -4 2 -6 -11 -4 -30 2 -19 0 -34 -6 -34 -5 0 -13 -12 -16 -26 -8
-30 -30 -56 -40 -46 -4 3 -4 -1 0 -11 14 -37 -22 -14 -98 63 -43 44 -84 80
-90 80 -6 0 -9 3 -6 6 3 3 -42 53 -101 111 -58 58 -106 113 -106 122 0 9 7 24
15 34 8 10 15 21 14 25 0 4 4 12 10 19 28 31 32 39 28 51 -2 6 1 12 7 12 6 0
11 7 11 16 0 9 5 12 12 8 7 -4 8 -3 4 5 -6 8 -12 9 -20 2 -7 -6 -16 -8 -19 -4
-4 3 -7 1 -7 -5 0 -6 -18 -20 -40 -30 -22 -10 -38 -20 -36 -23 3 -2 -6 -9 -20
-16 -16 -7 -22 -7 -17 -1 4 7 1 8 -6 4 -7 -5 -10 -15 -6 -24 5 -12 1 -12 -17
4 -49 41 -113 109 -111 116 3 8 -13 12 -32 8 -5 -1 -7 1 -3 5 4 4 -4 18 -18
32 -25 25 -31 43 -14 43 6 0 10 7 10 15 0 7 8 19 18 24 9 6 13 11 9 11 -5 0 1
13 12 29 11 15 18 31 14 35 -3 3 2 6 12 6 15 0 16 2 4 17 -8 10 -9 14 -2 10 6
-4 14 -3 18 3 9 15 -7 12 -49 -8 -20 -10 -33 -21 -30 -25 7 -6 -10 -11 -28 -8
-5 0 -8 -4 -8 -10 0 -5 -4 -7 -10 -4 -5 3 -10 -1 -10 -10 0 -9 -5 -13 -10 -10
-6 4 -17 1 -25 -5 -12 -10 -15 -10 -15 0 0 8 -3 11 -6 7 -7 -7 -74 61 -74 76
0 5 -3 8 -6 4 -8 -8 -34 18 -34 33 0 6 -3 9 -7 7 -10 -5 -43 30 -36 37 4 3 1
6 -5 6 -14 0 -92 76 -92 90 0 5 -7 10 -16 10 -8 0 -13 4 -10 8 3 5 -6 15 -19
22 -13 7 -22 17 -19 22 5 7 -10 12 -29 9 -5 -1 -6 2 -3 7 11 18 -9 30 -28 16
-16 -11 -17 -16 -6 -29 10 -12 10 -15 0 -15 -9 0 -9 -4 1 -17 12 -14 12 -16 0
-8 -11 6 -12 5 -5 -6 9 -14 11 -35 17 -154 2 -34 5 -65 8 -70 3 -6 4 -29 4
-52 0 -24 4 -43 10 -43 5 0 3 -5 -5 -10 -13 -9 -13 -10 0 -10 13 0 13 -2 1 -9
-10 -7 -12 -14 -5 -23 6 -7 10 -29 9 -48 0 -19 5 -38 10 -42 6 -5 5 -8 -3 -8
-8 0 -10 -5 -5 -12 13 -23 14 -50 1 -43 -7 4 -4 -1 6 -9 11 -9 15 -16 9 -16
-7 0 -8 -11 -4 -32 4 -18 7 -50 6 -70 -2 -21 0 -38 4 -38 3 0 6 -42 6 -94 0
-52 3 -92 6 -90 4 2 9 -3 13 -11 3 -8 1 -17 -4 -20 -6 -4 -6 -14 1 -27 9 -16
8 -19 -2 -13 -8 6 -10 4 -4 -5 4 -7 9 -34 11 -59 2 -25 6 -75 9 -111 10 -129
16 -206 20 -250 1 -25 4 -45 5 -45 7 0 5 -47 -2 -51 -5 -3 -5 -11 1 -18 5 -6
12 -45 15 -86 2 -41 8 -95 11 -120 4 -25 7 -53 7 -62 -1 -10 4 -18 9 -18 6 0
7 -4 4 -10 -3 -5 -2 -10 4 -10 6 0 8 -7 5 -15 -4 -8 -1 -15 5 -15 6 0 11 -9
11 -20 0 -11 6 -20 13 -20 8 0 7 -4 -3 -10 -13 -8 -12 -10 4 -10 12 0 16 -5
13 -14 -4 -9 2 -17 14 -21 10 -4 19 -12 19 -19 0 -7 9 -21 20 -31 11 -10 20
-23 20 -29 0 -7 14 -17 31 -23 20 -8 28 -16 23 -24 -4 -7 -3 -9 3 -6 6 4 16 0
23 -8 7 -8 21 -15 32 -15 10 0 16 -4 13 -10 -3 -5 0 -10 8 -10 8 0 27 -7 43
-14 15 -8 31 -13 36 -10 4 3 8 0 8 -6 0 -6 10 -10 23 -9 12 2 33 -3 46 -10 17
-9 21 -10 16 -1 -5 9 -2 10 11 3 21 -10 860 -11 870 -1 3 4 12 4 20 1 8 -3 14
1 14 8 0 11 3 11 10 -1 5 -8 10 -10 10 -3 0 6 8 10 18 8 9 -1 22 2 29 7 7 5
17 7 23 3 5 -3 13 1 16 9 3 9 10 14 14 11 5 -3 14 1 22 8 7 8 19 12 27 9 8 -3
11 0 7 7 -4 6 -1 11 7 11 8 0 27 11 43 25 16 14 35 25 43 25 8 0 12 3 8 6 -3
4 12 24 33 44 22 21 40 43 40 49 0 6 5 11 11 11 5 0 7 5 4 10 -3 6 1 13 10 16
9 4 14 13 11 21 -4 9 -2 11 6 7 7 -5 9 -2 5 9 -3 9 1 18 10 21 8 4 13 13 9 21
-3 8 -1 15 3 15 9 0 27 76 23 93 -1 4 3 7 9 7 5 0 7 5 3 11 -3 6 0 15 7 20 11
7 11 9 1 9 -7 0 -10 5 -7 10 3 6 6 691 5 1523 -1 831 -1 1521 -1 1532 0 10 -5
26 -12 34 -10 12 -9 13 1 7 11 -7 12 -4 3 12 -6 11 -11 30 -11 41 0 12 -4 21
-10 21 -5 0 -7 7 -4 15 4 8 1 15 -5 15 -6 0 -8 7 -5 15 4 8 1 15 -5 15 -6 0
-11 9 -11 21 0 11 -5 17 -10 14 -6 -3 -10 3 -10 14 0 12 -5 21 -11 21 -5 0 -8
4 -5 9 3 5 -1 11 -9 15 -8 3 -15 11 -15 18 0 8 -9 20 -20 28 -11 8 -20 20 -20
28 0 7 -4 11 -8 8 -5 -3 -22 8 -37 24 -16 17 -35 30 -42 30 -7 0 -13 4 -13 8
0 8 -46 35 -63 36 -4 1 -11 6 -15 12 -4 6 -15 10 -24 8 -10 -1 -18 1 -18 5 0
4 -6 8 -12 9 -23 2 -43 7 -57 16 -11 7 -12 6 -6 -5 8 -12 6 -12 -8 -1 -9 8
-21 11 -27 7 -5 -3 -10 0 -10 7 0 9 -3 9 -10 -2 -5 -8 -10 -10 -10 -5 0 6 -27
10 -60 11 -39 0 -57 -3 -54 -10 3 -6 0 -4 -8 5 -10 13 -13 89 -13 362 0 190
-3 343 -7 340 -5 -2 -8 6 -8 19 0 41 -3 58 -12 58 -5 0 -6 5 -3 10 3 6 1 10
-5 10 -6 0 -9 4 -6 9 3 4 -1 17 -9 27 -8 10 -15 25 -15 32 0 7 -7 20 -15 29
-8 8 -13 18 -10 23 3 5 -4 11 -15 15 -18 6 -24 17 -21 38 0 4 -5 7 -13 7 -8 0
-17 9 -21 20 -3 11 -9 19 -13 19 -20 -3 -32 3 -32 15 0 8 -13 19 -30 25 -16 5
-30 14 -30 19 0 6 -7 13 -16 16 -9 3 -12 2 -8 -5 3 -6 -3 -5 -15 3 -12 7 -21
16 -21 19 0 4 -12 7 -26 7 -15 0 -29 3 -33 8 -6 9 -44 16 -93 18 -16 1 -28 5
-28 9 0 5 -5 5 -11 2 -17 -11 -59 -13 -65 -3 -3 4 -10 5 -17 1 -16 -9 -58 -10
-63 -1 -3 5 -13 5 -22 0 -21 -9 -43 -9 -59 1 -7 5 -13 4 -13 -1 0 -14 -41 -7
-51 9 -7 12 -9 12 -9 -1 0 -10 -3 -11 -8 -4 -21 33 -51 34 -562 34 -329 -1
-510 -4 -510 -11z m-27 -218 c5 0 5 -6 1 -13 -4 -6 -3 -8 4 -4 6 3 17 0 24 -8
22 -21 1010 -22 1042 0 13 8 26 11 31 7 4 -5 5 -2 1 5 -9 15 -16 14 184 16
137 2 168 0 184 -13 11 -9 16 -10 12 -4 -5 9 -2 11 8 7 9 -3 14 -9 11 -14 -2
-4 7 -5 20 -2 16 3 25 0 25 -9 0 -7 3 -9 6 -6 4 4 20 -5 36 -18 16 -14 34 -25
40 -25 6 0 9 -2 6 -5 -3 -3 10 -22 28 -42 18 -20 31 -40 28 -45 -3 -4 -1 -8 4
-8 10 0 23 -33 25 -60 1 -8 5 -18 10 -21 10 -7 16 -674 7 -689 -3 -5 -40 -7
-83 -6 -42 2 -77 -1 -77 -6 0 -5 -5 -6 -11 -2 -18 11 -238 11 -232 0 4 -5 2
-6 -4 -3 -20 13 -73 17 -73 7 0 -6 -5 -8 -12 -4 -16 10 -308 11 -308 1 0 -4
-5 -5 -11 -1 -18 11 -238 11 -232 0 4 -5 2 -6 -4 -3 -20 13 -73 17 -73 7 0 -6
-5 -8 -11 -4 -17 10 -189 11 -189 1 0 -4 -5 -5 -12 -1 -18 11 -68 13 -68 2 0
-5 -5 -6 -12 -2 -18 11 -68 13 -68 2 0 -5 -5 -6 -12 -2 -18 11 -68 13 -68 2 0
-5 -5 -6 -11 -2 -17 10 -109 12 -109 2 0 -5 -5 -6 -12 -2 -18 11 -157 11 -151
0 4 -5 2 -6 -4 -3 -20 13 -73 17 -73 7 0 -6 -5 -8 -11 -4 -17 10 -229 11 -229
1 0 -4 -6 -5 -12 -1 -19 12 -171 11 -187 -1 -11 -7 -13 -7 -7 3 4 6 4 12 -1
12 -10 0 -10 176 0 186 3 4 4 11 0 17 -9 15 -10 138 -1 144 5 2 5 10 1 16 -10
17 -10 250 0 265 6 8 5 12 -2 12 -7 0 -9 4 -6 10 7 12 17 49 18 72 1 9 5 14 9
12 4 -3 8 3 8 13 1 19 80 135 80 118 0 -6 5 -2 11 8 6 9 14 15 19 12 4 -3 10
2 14 10 3 8 12 15 21 15 8 0 15 5 15 11 0 6 7 9 15 5 8 -3 15 -1 15 5 0 6 5 7
10 4 6 -3 10 -2 10 4 0 6 7 8 15 5 8 -4 15 -2 15 3 0 7 320 10 363 4z"/>
<path d="M5610 11270 l-65 -5 0 -1443 c0 -1143 3 -1446 12 -1454 9 -8 13 -7
13 3 0 11 2 11 10 -1 5 -8 10 -10 10 -5 0 14 53 13 62 0 5 -6 8 -5 8 4 0 11 3
11 15 1 11 -9 15 -9 15 -1 0 7 5 9 11 5 18 -11 89 -10 89 1 0 6 5 3 10 -5 6
-9 10 -10 10 -3 0 8 9 9 30 3 21 -6 30 -5 30 3 0 7 4 6 10 -3 6 -9 10 -10 10
-3 0 8 9 9 30 3 21 -6 30 -5 30 3 0 7 4 6 10 -3 6 -9 10 -10 10 -3 0 8 9 9 30
3 21 -6 30 -5 30 3 0 7 4 6 10 -3 5 -8 10 -10 10 -4 0 7 8 11 18 10 9 0 17 6
17 14 0 8 5 18 10 22 7 5 7 8 0 8 -6 0 -10 44 -10 112 0 64 4 116 10 120 7 5
6 8 0 8 -7 0 -10 20 -9 50 2 27 -2 52 -7 56 -6 3 -6 10 -1 17 12 16 12 96 1
103 -5 3 -6 11 -2 17 12 19 11 81 -1 89 -8 6 -8 8 1 8 15 0 15 71 0 89 -8 10
-8 12 -1 8 15 -9 16 94 1 112 -8 10 -8 13 -1 8 8 -4 11 30 10 119 -1 91 3 129
12 136 7 6 15 8 19 5 3 -4 12 -2 20 4 7 6 13 7 13 2 0 -11 29 -11 48 1 6 4 12
2 12 -3 0 -13 22 -10 32 4 5 6 8 6 8 -2 0 -12 17 -12 37 0 6 4 15 2 19 -4 4
-8 9 -7 15 2 6 9 9 10 9 2 0 -12 17 -12 37 0 6 4 15 2 19 -4 4 -8 9 -7 15 2 6
9 9 10 9 2 0 -12 17 -12 37 0 6 4 15 2 19 -4 4 -8 9 -7 15 2 6 9 9 10 9 2 0
-12 17 -12 37 0 6 4 14 3 17 -1 6 -10 54 -8 63 2 4 3 12 1 19 -4 14 -12 36
-10 47 5 4 7 10 7 15 0 8 -12 27 -13 38 -3 4 4 13 3 20 -3 9 -7 19 -7 31 0 11
5 25 6 33 1 8 -5 21 -5 31 1 12 6 20 5 25 -2 4 -8 9 -7 15 2 6 9 9 10 9 2 0
-12 17 -12 37 0 6 4 15 2 19 -4 4 -8 9 -7 15 2 6 9 9 10 9 2 0 -12 17 -12 37
0 6 4 15 2 19 -4 4 -8 9 -7 15 2 6 9 9 10 9 2 0 -12 17 -12 37 0 6 4 15 2 19
-4 4 -8 9 -7 15 2 6 9 9 10 9 2 0 -12 17 -12 37 0 6 4 14 3 17 -1 6 -10 54 -8
63 2 4 3 12 1 19 -4 14 -12 36 -10 47 5 4 7 10 7 15 0 8 -12 27 -13 38 -3 4 4
13 3 20 -2 14 -12 36 -10 47 5 5 7 10 7 15 0 22 -31 44 -4 38 48 -2 15 2 27 8
27 7 0 7 3 1 8 -5 4 -10 14 -10 22 0 8 5 18 10 22 7 5 7 8 0 8 -13 0 -13 63 0
72 7 5 7 8 0 8 -6 0 -10 25 -8 62 1 37 -3 68 -10 77 -8 9 -8 12 -1 8 8 -4 12
9 13 43 1 49 0 50 -29 46 -17 -2 -30 1 -30 5 0 5 -5 9 -11 9 -5 0 -8 -3 -6 -7
3 -5 -10 -8 -29 -8 -19 0 -34 3 -34 8 0 4 -5 7 -11 7 -5 0 -8 -3 -6 -7 3 -5
-10 -8 -29 -8 -19 0 -34 3 -34 8 0 4 -5 7 -11 7 -5 0 -8 -3 -6 -7 3 -5 -10 -8
-29 -8 -19 0 -34 3 -34 8 0 4 -5 7 -11 7 -5 0 -8 -3 -6 -7 3 -5 -10 -8 -29 -8
-19 0 -34 3 -34 8 0 4 -5 7 -11 7 -5 0 -8 -3 -6 -7 3 -5 -10 -8 -29 -8 -19 0
-34 3 -34 8 0 4 -5 7 -11 7 -5 0 -8 -3 -6 -7 3 -5 -10 -8 -29 -8 -19 0 -34 3
-34 8 0 4 -5 7 -11 7 -5 0 -8 -3 -6 -7 3 -5 -10 -8 -29 -8 -19 0 -34 3 -34 8
0 4 -5 7 -11 7 -5 0 -8 -3 -6 -7 3 -5 -10 -8 -29 -8 -19 0 -34 3 -34 8 0 4 -5
7 -11 7 -5 0 -8 -3 -6 -7 3 -5 -10 -8 -29 -8 -19 0 -34 3 -34 8 0 4 -5 7 -11
7 -5 0 -8 -3 -6 -7 3 -5 -10 -8 -29 -8 -19 0 -34 3 -34 8 0 4 -5 7 -11 7 -5 0
-8 -3 -6 -7 3 -5 -10 -8 -29 -8 -19 0 -34 3 -34 8 0 4 -5 7 -11 7 -5 0 -8 -3
-6 -7 3 -5 -10 -8 -29 -8 -19 0 -34 3 -34 8 0 4 -5 7 -11 7 -5 0 -8 -3 -6 -7
3 -5 -19 -8 -49 -8 -30 0 -54 5 -54 10 0 6 -5 3 -10 -5 -8 -12 -10 -12 -10 -1
0 11 -3 11 -15 1 -11 -9 -15 -9 -15 -1 0 7 -5 9 -12 4 -19 -11 -38 -12 -38 -2
0 6 -6 7 -12 3 -18 -11 -48 -12 -48 -2 0 4 -5 8 -11 8 -5 0 -8 -3 -6 -7 3 -5
-10 -8 -29 -8 -19 0 -34 3 -34 8 0 4 -6 7 -13 7 -10 0 -12 13 -10 46 3 35 1
44 -9 38 -10 -6 -10 -4 -2 7 16 21 17 89 2 89 -9 0 -10 3 -2 8 8 5 11 109 10
339 -1 355 -1 352 47 337 15 -5 17 -3 11 7 -6 11 -5 12 7 2 12 -10 18 -10 27
-1 7 7 12 8 12 2 0 -5 9 -10 20 -11 13 -1 18 2 13 10 -5 9 -3 9 8 0 12 -10 18
-10 27 -1 7 7 12 8 12 2 0 -5 9 -10 20 -11 13 -1 18 2 14 10 -5 9 -3 9 6 0 10
-9 17 -10 27 -2 7 7 13 7 13 2 0 -5 9 -9 20 -10 13 -1 18 2 13 10 -5 9 -3 9 8
0 12 -10 18 -10 27 -1 7 7 12 8 12 2 0 -5 9 -10 20 -11 13 -1 18 2 13 10 -5 9
-3 9 8 0 12 -10 18 -10 27 -1 7 7 12 8 12 2 0 -5 9 -10 20 -11 13 -1 18 2 14
10 -5 9 -3 9 6 0 10 -9 17 -10 27 -2 7 7 13 7 13 2 0 -5 9 -9 20 -10 13 -1 18
2 13 10 -5 9 -3 9 8 0 12 -10 18 -10 27 -1 7 7 12 8 12 2 0 -5 9 -10 20 -11
11 -1 18 2 16 6 -3 4 1 8 9 8 8 0 15 -3 15 -7 0 -10 33 -8 48 3 6 5 12 5 12 0
0 -5 9 -9 20 -10 11 -1 18 2 16 6 -3 4 1 8 9 8 8 0 15 -3 15 -7 0 -8 94 -5
108 4 7 4 12 3 12 -2 0 -12 32 -12 48 1 6 5 12 5 12 0 0 -5 9 -9 20 -10 11 -1
18 2 16 6 -3 4 1 8 9 8 8 0 15 -3 15 -7 0 -8 94 -5 108 4 7 4 12 3 12 -2 0
-12 32 -12 48 1 6 5 12 5 12 0 0 -5 9 -9 20 -10 11 -1 18 2 16 6 -3 4 1 8 9 8
8 0 15 -3 15 -7 0 -10 33 -8 48 3 6 5 12 5 12 0 0 -5 9 -9 20 -10 13 -1 18 2
13 10 -5 9 -3 9 8 0 12 -10 18 -10 27 -1 7 7 12 8 12 2 0 -5 9 -10 20 -11 13
-1 18 2 13 10 -5 9 -3 9 8 0 12 -10 18 -10 27 -1 7 7 12 8 12 2 0 -5 9 -10 20
-11 13 -1 18 2 13 10 -4 8 -1 8 9 -1 12 -10 18 -10 23 -1 6 8 9 8 15 -1 11
-17 33 -2 26 17 -4 10 -2 13 8 10 11 -5 13 0 6 24 -11 37 -11 41 3 58 9 12 9
13 0 7 -8 -4 -13 -1 -13 9 0 10 5 13 12 9 7 -5 8 -3 3 7 -14 22 -15 60 -2 52
9 -5 8 -2 0 9 -7 8 -10 17 -7 21 3 3 0 15 -6 28 -11 19 -10 21 3 16 10 -4 14
-1 12 6 -11 30 -13 67 -4 73 6 4 7 10 0 17 -12 15 -12 29 0 44 7 7 6 14 -1 18
-6 3 -8 11 -5 16 4 5 -9 9 -27 9 -345 4 -1981 4 -2028 0z"/>
<path d="M8426 11273 c-1 -1 -16 -3 -32 -5 l-31 -2 4 -64 c2 -48 0 -61 -10
-56 -9 5 -9 4 1 -7 14 -16 16 -33 2 -24 -6 3 -7 -1 -4 -9 3 -9 11 -13 16 -10
6 4 7 0 1 -12 -4 -11 -8 -63 -7 -116 1 -54 -3 -95 -7 -92 -5 3 -6 -2 -3 -10 3
-9 11 -13 16 -10 6 4 7 0 1 -12 -4 -11 -8 -63 -7 -116 1 -54 -3 -95 -7 -92 -5
3 -6 -2 -3 -10 3 -9 11 -13 17 -9 6 4 7 1 2 -6 -10 -17 -12 -82 -2 -88 4 -3 3
-11 -3 -18 -7 -8 -9 -23 -5 -35 4 -13 2 -20 -7 -20 -9 0 -9 -3 -2 -8 6 -4 11
-21 11 -38 -1 -16 3 -35 6 -41 4 -7 2 -15 -4 -18 -6 -4 -8 -18 -5 -31 4 -16 2
-24 -6 -24 -9 0 -10 -3 -2 -8 6 -4 11 -21 11 -38 -1 -16 3 -35 6 -41 4 -7 2
-15 -4 -18 -6 -4 -8 -18 -5 -31 4 -16 2 -24 -6 -24 -9 0 -10 -3 -2 -8 6 -4 11
-21 11 -38 -1 -16 3 -35 6 -41 4 -7 2 -15 -4 -18 -6 -4 -8 -18 -5 -31 4 -16 2
-24 -6 -24 -9 0 -10 -3 -2 -8 6 -4 11 -21 11 -38 -1 -16 3 -35 6 -41 4 -7 2
-15 -4 -18 -6 -4 -8 -18 -5 -31 4 -16 2 -24 -6 -24 -9 0 -10 -3 -2 -8 6 -4 11
-21 11 -38 -1 -16 3 -35 6 -41 4 -7 2 -15 -4 -18 -6 -4 -8 -18 -5 -31 4 -16 2
-24 -6 -24 -9 0 -10 -3 -2 -8 6 -4 10 -27 10 -52 -1 -25 2 -57 5 -72 5 -17 3
-29 -4 -32 -7 -2 -7 -5 -2 -5 6 -1 9 -21 8 -46 0 -25 2 -45 6 -45 4 0 7 -15 8
-32 1 -32 10 -103 13 -103 1 0 4 -16 7 -35 2 -19 9 -37 14 -38 5 -2 6 -8 3
-13 -3 -6 0 -17 8 -26 11 -14 11 -16 0 -9 -11 7 -12 4 -3 -11 6 -11 8 -23 6
-27 -3 -3 -2 -4 2 -1 7 5 33 -60 33 -83 0 -7 7 -20 16 -29 8 -9 13 -21 10 -28
-3 -8 2 -16 10 -19 9 -3 12 -10 9 -16 -3 -5 -1 -10 4 -10 6 0 11 -9 11 -20 0
-10 8 -24 18 -29 9 -6 14 -11 10 -11 -4 0 -1 -8 7 -17 8 -10 15 -21 15 -26 0
-4 11 -18 25 -31 14 -13 25 -27 25 -32 0 -5 16 -22 35 -39 19 -16 35 -35 35
-41 0 -6 11 -17 25 -24 14 -7 25 -17 25 -22 0 -5 16 -18 35 -29 19 -12 33 -24
30 -29 -3 -4 9 -10 25 -14 17 -3 30 -12 30 -19 0 -8 14 -17 31 -21 17 -3 28
-10 24 -16 -3 -6 0 -7 9 -4 9 3 16 1 16 -5 0 -6 7 -11 15 -11 8 0 15 -4 15 -9
0 -5 8 -8 18 -7 9 0 16 -4 15 -10 -1 -7 6 -10 17 -7 11 3 20 1 20 -5 0 -6 10
-8 22 -4 16 4 19 2 13 -8 -6 -10 -4 -12 8 -7 10 3 17 2 17 -4 0 -6 4 -8 9 -4
5 3 13 0 16 -6 4 -5 13 -8 21 -5 8 3 14 0 14 -6 0 -6 2 -9 6 -6 3 3 25 0 49
-7 24 -8 46 -11 49 -8 3 3 12 1 19 -6 8 -6 37 -12 65 -13 29 -1 52 -5 52 -8 0
-13 442 -12 465 2 6 3 25 6 43 6 18 0 39 5 45 9 7 5 27 8 45 8 17 -1 32 2 32
6 0 4 9 6 20 4 11 -2 20 0 20 4 0 4 7 8 15 9 8 1 22 3 30 4 8 1 15 5 15 9 0 5
7 6 15 3 8 -4 15 -1 15 6 0 6 4 9 9 5 5 -3 12 -1 16 5 4 6 11 8 16 5 5 -4 9
-1 9 6 0 7 3 10 6 6 4 -3 21 1 38 10 17 10 34 16 39 15 4 -1 7 3 7 9 0 5 4 8
9 5 5 -3 14 1 21 9 7 8 19 15 26 15 8 0 14 4 14 8 0 10 51 37 63 33 5 -1 6 3
3 8 -5 8 21 25 34 21 2 -1 7 6 10 15 3 9 10 17 15 18 14 2 121 111 128 131 4
9 11 16 17 16 5 0 10 7 10 16 0 8 4 13 9 10 5 -3 14 8 20 24 5 17 15 30 22 30
6 0 8 7 5 16 -3 8 -2 13 3 10 5 -3 12 5 15 19 4 14 11 25 17 25 6 0 8 4 5 9
-3 5 1 14 9 21 8 7 15 21 15 31 0 11 5 19 12 19 6 0 8 3 5 7 -4 3 -1 13 6 21
10 13 9 14 -1 8 -11 -7 -11 -4 0 13 7 12 16 21 19 21 4 0 5 9 2 20 -3 11 0 20
6 20 6 0 10 3 10 8 -1 4 0 9 1 12 3 10 9 36 16 70 3 19 11 38 17 42 8 5 7 8
-3 8 -9 0 -11 3 -5 8 6 4 10 16 9 27 0 11 3 25 7 30 3 6 6 22 5 38 -1 15 2 27
7 27 5 0 3 8 -4 17 -12 14 -12 16 0 8 11 -6 13 -2 7 19 -4 15 -3 25 1 23 5 -3
9 3 9 14 0 10 -4 19 -9 19 -5 0 -5 6 1 13 5 6 9 32 7 57 -2 26 2 48 9 52 6 4
7 8 1 8 -11 0 -11 72 0 89 3 6 0 11 -7 11 -9 0 -9 3 2 10 10 6 11 10 3 10 -9
0 -10 7 -3 25 6 16 6 26 -1 31 -8 4 -7 9 2 15 8 5 10 9 4 9 -5 0 -10 11 -10
25 0 14 3 25 7 25 4 0 3 11 -2 24 -5 15 -5 27 3 35 6 6 7 11 1 11 -10 0 -10
72 1 89 3 6 0 11 -7 11 -9 0 -9 3 2 10 10 6 11 10 3 10 -9 0 -10 7 -3 26 6 14
6 23 1 20 -5 -3 -11 1 -14 9 -4 8 -1 12 6 9 8 -3 13 4 13 16 0 11 -5 20 -11
20 -5 0 -3 5 5 10 8 5 11 10 5 10 -11 0 -11 72 0 89 3 6 0 11 -7 11 -9 0 -9 3
2 10 10 6 11 10 3 10 -9 0 -10 7 -3 26 6 14 6 23 1 20 -5 -3 -11 1 -14 9 -4 8
-1 12 6 9 8 -3 13 4 13 16 0 11 -5 20 -11 20 -5 0 -3 5 5 10 8 5 11 10 5 10
-11 0 -11 72 0 89 3 6 0 11 -7 11 -9 0 -9 3 2 10 10 6 11 10 3 10 -9 0 -10 7
-3 26 6 14 6 23 1 20 -5 -3 -11 1 -14 9 -4 8 -1 12 6 9 8 -3 13 4 13 16 0 11
-5 20 -11 20 -5 0 -3 5 5 10 8 5 11 10 5 10 -11 0 -11 72 0 89 3 6 0 11 -7 11
-9 0 -9 3 2 10 10 6 11 10 3 10 -9 0 -10 7 -3 26 6 14 6 23 1 20 -5 -3 -11 1
-14 9 -4 8 -1 12 6 9 8 -3 13 4 13 16 0 11 -5 20 -11 20 -5 0 -3 5 5 10 8 5
11 10 5 10 -11 0 -11 72 0 89 3 6 0 11 -7 11 -9 0 -9 3 2 10 10 6 11 10 3 10
-9 0 -10 7 -3 25 6 16 6 26 -1 31 -8 4 -7 9 2 15 8 5 10 9 4 9 -5 0 -10 11
-10 25 0 14 5 25 10 25 6 0 3 5 -5 10 -12 8 -12 10 -1 10 10 0 11 3 2 13 -8
10 -7 17 1 25 7 7 8 12 2 12 -5 0 -9 14 -9 30 0 17 4 30 9 30 6 0 5 5 -1 11
-11 11 -520 15 -531 4 -11 -11 -9 -109 3 -117 6 -5 6 -8 -2 -8 -7 0 -13 -7
-13 -16 0 -9 5 -12 12 -8 7 5 8 3 2 -7 -11 -18 -13 -99 -1 -106 4 -3 0 -14
-10 -26 -10 -11 -13 -17 -7 -14 7 4 15 0 18 -9 3 -8 2 -13 -3 -10 -12 7 -8
-108 4 -116 6 -5 5 -8 -2 -8 -7 0 -13 -7 -13 -16 0 -9 5 -12 12 -8 7 5 8 3 2
-7 -11 -18 -13 -99 -1 -106 4 -3 0 -14 -10 -26 -10 -11 -13 -17 -7 -14 7 4 15
0 18 -9 3 -8 2 -13 -3 -10 -12 7 -8 -108 4 -116 6 -5 5 -8 -2 -8 -7 0 -13 -7
-13 -16 0 -9 5 -12 12 -8 7 5 8 3 2 -7 -11 -18 -13 -99 -1 -106 4 -3 0 -14
-10 -26 -10 -11 -13 -17 -7 -14 7 4 15 0 18 -9 3 -8 2 -13 -3 -10 -12 7 -8
-108 4 -116 6 -5 5 -8 -2 -8 -7 0 -13 -7 -13 -16 0 -9 5 -12 12 -8 7 5 8 3 2
-7 -11 -18 -13 -99 -1 -106 4 -3 0 -14 -10 -26 -10 -11 -13 -17 -7 -14 7 4 15
0 18 -9 3 -8 2 -13 -3 -10 -12 7 -8 -108 4 -116 6 -5 5 -8 -2 -8 -7 0 -13 -7
-13 -16 0 -9 5 -12 12 -8 7 5 8 3 2 -7 -11 -18 -13 -99 -1 -106 4 -3 0 -14
-10 -26 -10 -11 -13 -17 -7 -14 7 4 15 0 18 -9 3 -8 2 -13 -2 -10 -5 3 -9 -16
-9 -42 -2 -99 -7 -153 -15 -158 -5 -3 -4 -12 3 -20 7 -9 7 -14 1 -14 -5 0 -9
-13 -8 -30 1 -16 -3 -30 -8 -30 -6 0 -5 -4 2 -9 11 -7 11 -9 -1 -14 -9 -3 -13
-16 -12 -31 2 -14 -1 -26 -7 -26 -6 0 -8 -7 -5 -15 4 -8 2 -17 -4 -20 -5 -4
-7 -10 -4 -15 3 -4 -2 -13 -11 -20 -8 -7 -13 -19 -10 -27 3 -7 0 -13 -6 -13
-6 0 -8 -3 -5 -7 4 -3 2 -12 -4 -20 -6 -7 -8 -13 -3 -13 5 0 2 -5 -6 -10 -8
-5 -15 -13 -15 -17 -1 -17 -42 -73 -48 -66 -4 3 -7 -4 -7 -16 0 -12 -4 -19
-10 -16 -5 3 -10 1 -10 -5 0 -14 -51 -56 -63 -52 -5 1 -6 -1 -4 -5 3 -5 -1
-14 -9 -21 -8 -7 -14 -10 -14 -6 0 4 -9 -3 -20 -16 -13 -15 -20 -18 -20 -9 0
10 -3 10 -8 3 -10 -17 -85 -57 -76 -42 4 7 -1 6 -12 -3 -10 -9 -25 -14 -31
-12 -7 3 -13 1 -13 -4 0 -6 -6 -10 -12 -10 -7 0 -31 -5 -53 -10 -22 -6 -48 -9
-58 -7 -9 1 -17 -1 -17 -4 0 -4 -54 -7 -120 -7 -73 0 -120 4 -120 10 0 6 -5 3
-10 -5 -5 -8 -10 -10 -10 -5 0 6 -13 11 -30 11 -16 1 -37 5 -47 9 -10 5 -26 7
-35 6 -10 -1 -18 3 -18 10 0 7 -3 10 -6 6 -4 -3 -23 1 -43 9 -20 8 -37 15 -38
15 -16 -4 -23 1 -17 12 4 6 4 9 0 5 -10 -9 -86 31 -86 45 0 6 -3 7 -6 4 -9 -9
-121 106 -129 132 -3 12 -10 21 -15 21 -5 0 -14 16 -21 35 -7 19 -17 35 -22
35 -4 0 -6 4 -2 9 3 5 1 12 -5 16 -6 4 -8 11 -5 16 4 5 1 9 -4 9 -6 0 -11 11
-11 25 0 14 -4 25 -8 25 -5 0 -9 6 -9 13 0 6 -4 26 -8 42 -3 17 -8 46 -10 65
-2 19 -5 36 -6 38 -1 1 -2 11 -3 21 0 11 -4 23 -8 27 -4 4 -2 14 5 22 10 13 9
14 -1 8 -9 -6 -12 4 -12 41 0 26 -1 427 -2 891 l-2 842 -30 1 c-142 2 -448 4
-450 2z"/>
<path d="M11734 11272 l-61 -3 1 -67 c1 -37 -3 -70 -9 -74 -6 -5 -5 -8 4 -8
10 0 11 -3 2 -14 -7 -8 -8 -16 -4 -19 4 -3 7 -63 7 -134 -1 -87 2 -130 10
-135 6 -4 43 -7 83 -7 40 0 78 -3 84 -7 8 -4 9 -3 5 4 -4 7 -2 12 3 12 6 0 11
-5 11 -11 0 -8 4 -8 14 0 8 7 17 8 19 4 3 -5 29 -6 59 -3 29 3 83 3 121 0 37
-3 67 -3 67 1 0 5 90 2 138 -5 12 -2 22 0 22 3 0 7 159 4 178 -4 7 -3 10 0 7
5 -3 6 -1 10 4 10 6 0 11 -5 11 -11 0 -8 4 -8 14 0 8 7 17 8 19 4 3 -5 29 -6
59 -3 29 3 83 3 121 0 37 -3 67 -3 67 0 0 3 34 3 75 0 47 -3 75 -1 75 5 0 7 3
7 8 0 7 -10 142 -15 142 -5 0 6 117 3 158 -4 12 -2 22 0 22 3 0 4 16 5 35 3
19 -2 35 -6 35 -9 0 -3 -16 -21 -35 -40 -19 -19 -33 -39 -30 -43 3 -5 -4 -12
-16 -15 -11 -4 -18 -9 -15 -12 3 -3 -4 -14 -16 -24 -11 -11 -17 -19 -12 -19 5
0 -6 -13 -24 -30 -18 -16 -30 -30 -26 -30 4 0 -3 -9 -16 -20 -13 -11 -20 -20
-17 -20 3 0 -7 -13 -21 -29 -15 -17 -38 -44 -52 -62 -14 -17 -35 -42 -46 -54
-12 -13 -32 -38 -44 -56 -13 -17 -36 -46 -52 -63 -60 -66 -69 -76 -63 -76 3 0
-5 -11 -17 -24 -13 -13 -27 -21 -32 -18 -5 3 -6 0 -3 -5 4 -6 -5 -23 -18 -39
-14 -16 -25 -33 -25 -37 0 -5 -5 -5 -12 -1 -8 5 -9 2 -4 -12 4 -10 4 -15 0
-12 -9 10 -34 -17 -34 -37 0 -11 -5 -15 -16 -11 -8 3 -12 2 -9 -4 3 -6 1 -10
-4 -10 -6 0 -11 -5 -11 -11 0 -7 -11 -22 -26 -35 -14 -13 -22 -24 -18 -24 4 0
-4 -11 -17 -24 -35 -34 -79 -89 -79 -98 0 -4 -7 -8 -16 -8 -8 0 -13 -4 -9 -10
3 -5 -3 -18 -15 -30 -11 -11 -20 -25 -20 -32 0 -6 -3 -9 -6 -5 -6 5 -81 -82
-87 -100 -1 -4 -18 -22 -37 -40 -19 -18 -31 -33 -27 -33 4 0 -10 -18 -31 -40
-22 -21 -37 -42 -34 -45 3 -3 0 -5 -7 -5 -7 0 -9 -4 -6 -10 3 -5 -1 -10 -10
-10 -12 0 -15 -5 -11 -17 4 -10 4 -14 0 -10 -7 7 -18 -5 -64 -65 -14 -18 -37
-45 -52 -60 -16 -15 -28 -32 -28 -38 0 -6 -7 -13 -15 -16 -8 -4 -15 -10 -15
-16 0 -15 -27 -38 -35 -30 -4 4 -6 2 -5 -3 5 -21 0 -36 -10 -30 -5 3 -10 -3
-10 -14 0 -12 -6 -20 -12 -19 -7 2 -12 -3 -10 -9 1 -7 -5 -13 -14 -13 -8 0
-12 -4 -9 -10 3 -5 1 -10 -5 -10 -6 0 -9 -4 -5 -9 3 -5 -4 -12 -15 -16 -11 -3
-20 -11 -20 -17 0 -12 -6 -19 -62 -77 -18 -19 -26 -31 -18 -26 8 4 6 -1 -5
-12 -11 -11 -24 -18 -29 -15 -5 3 -6 0 -3 -5 4 -6 0 -16 -8 -23 -8 -7 -12 -17
-8 -23 3 -6 1 -7 -5 -3 -10 6 -36 -27 -37 -46 0 -3 -4 -10 -9 -15 -6 -5 -6 -2
-1 7 4 8 -3 4 -17 -10 -13 -14 -23 -28 -21 -32 2 -3 -2 -8 -8 -10 -16 -5 -18
-356 -2 -377 9 -12 12 -13 13 -2 0 11 3 11 15 1 12 -10 15 -10 15 1 0 11 2 11
10 -1 6 -10 10 -11 10 -3 0 9 7 10 25 3 16 -6 25 -6 25 1 0 6 7 6 20 -1 15 -8
20 -8 20 2 0 9 3 9 10 -2 9 -13 10 -13 10 0 0 13 1 13 10 0 7 -11 10 -11 10
-2 0 10 5 10 20 2 15 -8 20 -8 20 2 0 9 3 9 10 -2 5 -8 10 -10 10 -5 0 14 53
13 62 0 5 -6 8 -5 8 3 0 10 5 10 20 2 15 -8 20 -8 20 2 0 9 3 9 10 -2 6 -10
10 -11 10 -3 0 9 7 10 25 3 16 -6 25 -6 25 1 0 6 7 6 20 -1 15 -8 20 -8 20 2
0 9 3 9 10 -2 9 -13 10 -13 10 0 0 13 1 13 10 0 7 -11 10 -11 10 -2 0 10 5 10
20 2 15 -8 20 -8 20 2 0 9 3 9 10 -2 5 -8 10 -10 10 -5 0 14 53 13 62 0 5 -6
8 -5 8 3 0 10 5 10 20 2 15 -8 20 -8 20 2 0 9 3 9 10 -2 6 -10 10 -11 10 -3 0
9 7 10 25 3 16 -6 25 -6 25 1 0 6 7 6 20 -1 15 -8 20 -8 20 2 0 9 3 9 10 -2 9
-13 10 -13 10 0 0 13 1 13 10 0 7 -11 10 -11 10 -2 0 10 5 10 20 2 15 -8 20
-8 20 2 0 9 3 9 10 -2 5 -8 10 -10 10 -5 0 14 53 13 62 0 5 -6 8 -5 8 3 0 10
5 10 20 2 15 -8 20 -8 20 2 0 9 3 9 10 -2 6 -10 10 -11 10 -3 0 9 7 10 25 3
16 -6 25 -6 25 1 0 6 7 6 20 -1 15 -8 20 -8 20 2 0 9 3 9 10 -2 5 -8 10 -10
10 -5 0 14 53 13 62 0 5 -6 8 -5 8 3 0 10 5 10 20 2 15 -8 20 -8 20 2 0 9 3 9
10 -2 6 -10 10 -11 10 -3 0 9 7 10 25 3 16 -6 25 -6 25 1 0 6 7 6 20 -1 15 -8
20 -8 20 2 0 9 3 9 10 -2 5 -8 10 -10 10 -5 0 14 53 13 62 0 5 -6 8 -5 8 3 0
10 5 10 20 2 15 -8 20 -8 20 2 0 9 3 9 10 -2 6 -10 10 -11 10 -3 0 9 7 10 25
3 16 -6 25 -6 25 1 0 6 7 6 20 -1 15 -8 20 -8 20 2 0 9 3 9 10 -2 5 -8 10 -10
10 -5 0 14 53 13 62 0 5 -6 8 -5 8 4 0 11 3 11 15 1 11 -9 15 -9 15 -1 0 7 5
9 11 5 18 -11 89 -10 89 1 0 6 5 3 10 -5 6 -9 10 -10 10 -3 0 8 9 9 30 3 21
-6 30 -5 30 3 0 7 4 6 10 -3 6 -9 10 -10 10 -3 0 8 9 9 30 3 21 -6 30 -5 30 3
0 7 4 6 10 -3 6 -9 10 -10 10 -3 0 8 9 9 30 3 21 -6 30 -5 30 3 0 7 4 6 10 -3
5 -8 10 -10 10 -5 0 6 17 10 37 10 21 0 41 -4 45 -10 5 -6 8 -5 8 3 0 10 5 10
20 2 15 -8 20 -8 20 2 0 9 3 9 10 -2 6 -10 10 -11 10 -3 0 9 7 10 25 3 16 -6
25 -6 25 1 0 6 7 6 20 -1 15 -8 20 -8 20 2 0 9 3 9 10 -2 5 -8 10 -10 10 -5 0
6 14 10 30 10 17 0 30 -4 30 -10 0 -7 3 -7 8 0 4 6 20 10 37 10 23 0 30 4 30
20 0 11 -3 25 -8 32 -4 6 -3 14 3 18 8 5 7 11 -2 23 -10 12 -10 14 0 8 6 -4
12 -3 12 3 0 5 -4 12 -10 16 -6 4 -6 15 0 31 7 17 7 23 0 19 -6 -4 -6 4 0 21
8 21 8 29 -2 36 -10 6 -10 8 -1 8 9 0 10 7 3 24 -6 16 -5 27 3 35 9 9 8 14 -3
21 -12 8 -12 10 -1 10 11 0 11 3 1 15 -7 8 -9 15 -4 15 5 0 9 14 9 30 1 17 -3
30 -8 30 -5 0 -4 6 2 14 10 11 8 16 -8 21 -12 3 -25 4 -30 1 -5 -4 -12 0 -14
6 -3 7 -6 8 -6 2 -1 -6 -21 -9 -52 -7 -39 3 -49 1 -44 -9 3 -7 -1 -4 -9 6 -9
11 -16 14 -16 8 0 -14 -21 -12 -32 3 -5 7 -8 6 -8 -1 0 -6 -20 -9 -51 -7 -39
3 -49 1 -44 -9 3 -7 -1 -4 -9 6 -9 11 -16 15 -16 9 0 -12 -18 -12 -36 0 -6 3
-14 3 -18 0 -4 -4 -57 -6 -117 -5 -69 1 -108 -2 -104 -8 3 -6 -1 -7 -9 -4 -9
3 -13 11 -9 17 4 6 1 7 -8 2 -7 -5 -28 -8 -47 -7 -25 2 -32 -1 -27 -10 4 -7
-1 -4 -9 6 -9 11 -16 16 -16 10 0 -10 -101 -11 -117 -1 -6 4 -13 4 -17 0 -10
-11 -136 -9 -140 2 -3 6 -5 6 -5 -1 -1 -6 -21 -9 -52 -7 -39 3 -49 1 -44 -9 3
-7 -1 -4 -9 6 -9 11 -16 14 -16 8 0 -14 -21 -12 -32 3 -5 7 -8 6 -8 -1 0 -6
-20 -9 -51 -7 -39 3 -49 1 -44 -9 3 -7 -1 -4 -9 6 -9 11 -16 15 -16 10 0 -6
-26 -8 -61 -6 -41 2 -59 0 -55 -7 4 -7 1 -8 -8 -5 -9 3 -13 11 -9 17 4 6 1 7
-6 3 -15 -9 -111 -14 -111 -5 0 3 -6 6 -14 6 -9 0 -12 -6 -8 -16 5 -13 3 -14
-10 -3 -11 8 -38 12 -82 9 -72 -4 -90 9 -58 41 9 10 28 33 42 51 14 19 33 43
43 54 9 11 17 24 17 29 0 5 4 6 10 3 5 -3 12 6 16 20 3 13 9 23 13 21 3 -2 12
2 19 10 7 8 10 14 7 14 -6 0 31 45 63 76 12 12 22 25 22 29 0 4 10 16 23 27
12 11 15 16 7 12 -8 -4 4 11 27 33 23 22 40 43 37 46 -3 3 4 10 15 17 12 6 19
15 16 21 -4 5 1 9 10 9 9 0 14 4 10 9 -3 6 4 15 16 21 11 7 18 14 15 17 -3 3
7 18 22 33 39 40 57 64 65 83 3 9 14 17 24 17 15 0 16 2 3 10 -13 8 -12 10 3
10 9 0 17 5 17 10 0 15 37 49 46 42 4 -4 5 0 2 8 -5 16 26 52 37 42 3 -4 3 2
-1 12 -5 14 -4 17 4 12 7 -4 12 -2 12 5 0 6 13 24 28 39 16 15 32 34 35 44 4
9 11 16 17 16 6 0 9 4 6 8 -3 5 6 16 19 26 14 10 21 24 18 32 -3 8 -2 14 3 13
20 -3 35 2 29 10 -3 6 2 14 11 19 9 5 14 11 13 13 -4 4 40 57 77 93 11 12 23
29 27 39 3 9 11 17 17 17 5 0 10 6 10 13 0 7 10 23 23 34 33 31 67 73 67 84 0
5 7 9 16 9 8 0 12 5 9 10 -3 6 -1 10 4 10 6 0 11 4 11 9 0 5 13 24 29 43 64
72 81 93 81 101 0 5 4 5 10 2 6 -4 7 1 3 12 -3 10 -2 15 2 11 9 -8 42 31 37
45 -1 4 5 7 15 7 9 0 14 3 10 6 -3 3 8 19 24 35 16 15 29 32 29 36 0 4 12 19
25 32 14 13 25 27 25 33 0 5 5 6 10 3 6 -3 10 1 10 9 0 18 41 62 53 58 5 -1 6
2 3 7 -3 5 6 20 21 35 14 14 23 26 19 26 -4 0 6 13 21 29 15 16 39 43 53 61
14 17 33 40 43 51 9 10 17 23 17 28 0 5 6 11 14 14 12 5 14 40 15 191 l0 186
-82 0 c-640 3 -2207 4 -2253 2z"/>
<path d="M15713 11265 c-8 -9 -24 -40 -28 -55 0 -3 -9 -20 -18 -37 -10 -18
-14 -33 -10 -33 5 0 0 -5 -9 -11 -10 -5 -15 -16 -12 -24 4 -8 1 -15 -5 -15 -6
0 -10 -3 -10 -7 3 -21 -2 -34 -11 -28 -6 4 -10 3 -8 -2 4 -16 -14 -73 -23 -73
-5 0 -9 -9 -9 -19 0 -11 -6 -26 -12 -33 -7 -7 -14 -20 -16 -28 -2 -8 -15 -40
-29 -70 -14 -30 -26 -61 -26 -67 0 -7 -3 -13 -7 -13 -4 0 -13 -18 -20 -40 -7
-22 -17 -40 -23 -40 -5 0 -7 -7 -3 -15 3 -8 1 -15 -5 -15 -6 0 -9 -6 -7 -12 3
-7 -4 -21 -14 -32 -10 -11 -17 -25 -15 -30 2 -6 -2 -17 -10 -24 -7 -8 -11 -18
-8 -23 4 -5 1 -9 -5 -9 -7 0 -10 -7 -6 -15 3 -8 -2 -18 -10 -23 -9 -5 -16 -13
-16 -18 0 -5 -4 -19 -9 -32 -5 -13 -9 -28 -9 -33 0 -5 -5 -9 -11 -9 -5 0 -8
-4 -5 -9 3 -5 -1 -12 -10 -15 -13 -5 -14 -9 -4 -21 10 -12 9 -16 -4 -21 -9 -3
-16 -15 -16 -25 0 -10 -4 -19 -10 -19 -5 0 -9 -3 -8 -7 1 -5 -3 -18 -10 -30
-7 -13 -10 -23 -6 -23 4 0 -1 -9 -11 -20 -10 -11 -15 -20 -12 -20 3 0 -5 -21
-18 -47 -13 -27 -25 -55 -27 -63 -2 -8 -5 -17 -8 -20 -15 -15 -30 -52 -25 -60
4 -6 3 -10 -2 -10 -4 0 -14 -15 -22 -32 -33 -78 -46 -103 -55 -110 -6 -4 -7
-8 -3 -8 4 0 2 -10 -5 -22 -7 -13 -11 -26 -10 -30 1 -5 -3 -8 -9 -8 -5 0 -8
-4 -4 -9 3 -5 -1 -16 -9 -24 -11 -11 -12 -17 -3 -27 9 -10 9 -11 0 -6 -8 4
-13 1 -13 -8 0 -9 -5 -16 -11 -16 -5 0 -8 -4 -4 -9 3 -5 0 -15 -7 -23 -7 -7
-14 -19 -15 -26 -2 -6 -4 -18 -5 -24 -2 -7 -6 -15 -10 -18 -3 -3 -8 -12 -10
-20 -2 -8 -9 -21 -16 -29 -7 -7 -11 -19 -8 -27 3 -7 0 -14 -5 -16 -5 -2 -11
-13 -12 -25 0 -12 -4 -20 -7 -18 -3 1 -13 -13 -23 -32 -11 -22 -13 -32 -5 -28
7 4 4 -1 -6 -9 -11 -9 -16 -16 -12 -16 5 0 1 -11 -8 -25 -9 -14 -14 -31 -10
-37 4 -7 3 -8 -4 -4 -8 5 -12 -1 -12 -14 0 -12 -4 -19 -9 -15 -6 3 -8 -4 -6
-15 2 -11 -1 -20 -6 -20 -6 0 -7 -4 -4 -10 3 -5 1 -10 -5 -10 -6 0 -8 -4 -5
-10 3 -5 1 -10 -5 -10 -6 0 -9 -4 -5 -9 3 -5 1 -12 -5 -16 -6 -4 -8 -11 -5
-16 4 -5 1 -9 -4 -9 -6 0 -11 -6 -11 -13 0 -7 -9 -29 -20 -50 -11 -20 -20 -44
-20 -52 0 -8 -5 -15 -11 -15 -6 0 -9 -7 -5 -15 3 -8 1 -15 -5 -15 -6 0 -9 -7
-6 -14 4 -10 1 -13 -9 -9 -8 3 -14 2 -13 -3 5 -17 -13 -74 -22 -74 -5 0 -8 -3
-7 -7 4 -15 -14 -53 -24 -53 -6 0 -9 -3 -5 -6 3 -4 0 -19 -9 -35 -8 -16 -11
-29 -7 -29 5 0 0 -5 -9 -11 -10 -5 -15 -16 -12 -24 4 -8 1 -15 -5 -15 -6 0
-11 -3 -10 -7 2 -15 -13 -53 -20 -49 -3 2 -7 -8 -8 -22 0 -15 -6 -28 -12 -30
-6 -2 -9 -8 -5 -13 3 -5 0 -9 -6 -9 -6 0 -8 -4 -5 -10 3 -5 2 -10 -4 -10 -6 0
-8 -6 -5 -14 3 -7 -3 -16 -13 -20 -15 -6 -15 -8 -3 -16 13 -8 12 -10 -2 -10
-11 0 -15 -5 -12 -14 3 -8 0 -17 -5 -21 -6 -3 -9 -11 -6 -16 4 -5 1 -9 -6 -9
-7 0 -9 -3 -6 -7 4 -3 3 -11 -3 -17 -5 -7 -5 -17 0 -26 6 -8 10 -10 10 -4 0
12 49 12 68 0 7 -4 12 -1 12 6 0 9 3 9 10 -2 6 -9 10 -10 10 -3 0 8 9 9 30 3
21 -6 30 -5 30 3 0 7 4 6 10 -3 6 -9 10 -10 10 -3 0 8 9 9 30 3 21 -6 30 -5
30 3 0 7 4 6 10 -3 5 -8 10 -10 10 -5 0 6 17 10 37 10 21 0 41 -4 45 -10 5 -6
8 -5 8 3 0 10 5 10 20 2 15 -8 20 -8 20 2 0 9 3 9 10 -2 6 -10 10 -11 10 -3 0
9 7 10 25 3 16 -6 25 -6 25 1 0 6 7 6 20 -1 15 -8 20 -8 20 2 0 9 3 9 10 -2 5
-8 10 -10 10 -4 0 7 10 14 21 17 16 4 20 11 16 26 -3 11 -1 21 5 23 5 2 10 10
12 18 1 8 7 25 14 36 6 12 8 24 5 28 -3 3 -1 6 6 6 7 0 9 5 6 10 -3 6 -1 10 5
10 6 0 8 5 5 10 -3 6 -2 10 2 10 5 0 9 10 10 22 1 11 8 25 15 29 7 5 9 9 3 9
-5 0 -4 5 3 12 7 7 12 20 12 30 0 10 5 18 11 18 6 0 9 6 6 14 -3 8 1 17 8 20
8 3 12 12 9 21 -3 8 -2 15 4 15 5 0 9 8 8 18 0 9 4 16 11 15 7 -2 10 3 7 11
-3 8 -1 17 5 21 6 3 11 17 11 31 0 13 5 24 11 24 5 0 7 5 4 10 -3 6 -1 10 6
10 7 0 9 3 6 6 -3 4 -1 16 5 28 7 11 13 28 14 36 2 8 8 16 13 18 6 2 11 8 11
13 0 6 -5 7 -11 4 -6 -4 -5 2 2 13 7 12 17 18 21 16 4 -3 8 2 8 12 0 12 3 14
13 5 10 -8 17 -7 25 1 9 9 12 9 12 -3 0 -12 2 -12 10 1 6 9 10 10 10 3 0 -8 9
-9 30 -3 20 6 30 5 30 -2 0 -6 7 -5 17 3 15 12 16 12 8 -1 -7 -12 -6 -13 6 -3
12 10 18 10 27 1 9 -9 12 -9 12 1 0 10 3 11 14 2 8 -7 17 -8 20 -3 6 10 36 9
54 -2 7 -4 12 -2 12 5 0 8 4 9 13 0 10 -8 17 -7 25 1 9 9 12 9 12 -1 0 -7 5
-9 13 -4 16 10 39 10 55 -1 8 -5 12 -4 12 4 0 10 3 10 15 0 12 -10 15 -10 15
1 0 12 2 12 9 0 7 -11 9 -11 14 0 5 12 6 12 6 0 1 -11 4 -11 16 -1 12 10 15
10 15 0 0 -9 4 -9 17 1 15 12 16 12 8 -1 -8 -13 -7 -13 8 -1 12 9 17 10 17 2
0 -9 5 -9 20 -1 15 8 20 8 20 -1 0 -8 5 -7 17 2 15 12 16 12 8 -1 -6 -12 -5
-13 5 -3 10 9 17 10 27 2 10 -9 13 -8 13 1 0 9 3 10 13 1 10 -8 17 -7 25 1 9
9 12 9 12 0 0 -10 5 -10 20 -2 15 8 20 8 20 -1 0 -8 5 -7 17 2 15 12 16 12 8
-1 -7 -12 -6 -13 6 -3 12 10 18 10 27 1 9 -9 12 -9 12 1 0 10 3 11 14 2 8 -7
17 -8 20 -3 6 10 36 9 54 -2 7 -4 12 -2 12 5 0 8 4 9 13 0 10 -8 17 -7 25 1 9
9 12 9 12 -1 0 -7 5 -9 13 -4 16 10 39 10 55 -1 8 -5 12 -4 12 4 0 10 3 10 15
0 12 -10 15 -10 15 1 0 12 2 12 9 0 7 -11 9 -11 14 0 5 12 6 12 6 0 1 -11 4
-11 16 -1 12 10 15 10 15 0 0 -9 4 -9 17 1 15 12 16 12 8 -1 -8 -13 -7 -13 8
-1 12 9 17 10 17 2 0 -9 5 -9 20 -1 15 8 20 8 20 -1 0 -8 5 -7 17 2 15 12 16
12 8 -1 -7 -12 -6 -13 6 -3 12 10 18 10 27 1 9 -9 12 -9 12 1 0 10 3 11 13 2
10 -8 17 -7 25 1 9 9 12 9 12 -1 0 -11 3 -11 15 -1 12 10 15 10 15 -1 0 -10 3
-10 11 -2 15 15 39 5 32 -13 -3 -8 0 -14 7 -14 6 0 9 -4 5 -9 -3 -5 -1 -12 5
-16 5 -3 10 -15 10 -26 0 -11 5 -17 10 -14 6 4 10 -7 10 -25 0 -21 4 -29 12
-24 8 5 9 2 5 -9 -3 -10 -2 -17 4 -17 6 0 7 -4 4 -10 -3 -5 -1 -10 5 -10 6 0
8 -4 5 -10 -3 -5 -2 -10 3 -10 6 0 8 -10 4 -22 -3 -13 -1 -19 5 -15 9 6 24
-25 27 -56 1 -4 6 -11 11 -15 10 -7 16 -23 18 -54 1 -9 5 -14 9 -12 4 3 8 -4
8 -15 0 -12 5 -21 11 -21 5 0 8 -4 4 -9 -3 -5 -1 -12 5 -16 5 -3 10 -15 10
-26 0 -10 4 -19 10 -19 5 0 7 -7 4 -15 -4 -9 4 -24 17 -36 13 -11 18 -18 11
-14 -7 4 -4 -9 8 -30 11 -19 20 -40 20 -46 0 -6 6 -16 13 -23 15 -16 67 -27
67 -14 0 5 9 4 20 -2 15 -8 20 -8 20 2 0 9 3 9 10 -2 5 -8 10 -10 10 -5 0 14
53 13 62 0 5 -6 8 -5 8 4 0 11 3 11 15 1 11 -9 15 -9 15 -1 0 7 5 9 11 5 18
-11 89 -10 89 1 0 6 5 3 10 -5 6 -9 10 -10 10 -3 0 8 9 9 30 3 21 -6 30 -5 30
3 0 7 4 6 10 -3 6 -9 10 -10 10 -3 0 8 9 9 30 3 21 -6 30 -5 30 3 0 7 4 6 10
-3 6 -10 10 -11 10 -3 0 9 7 10 25 3 14 -5 26 -6 27 -2 4 22 3 38 -5 43 -4 3
-9 16 -10 27 -1 12 -5 22 -9 22 -4 0 -8 7 -8 15 0 8 -4 15 -8 15 -4 0 -9 10
-9 22 -1 13 -7 24 -13 26 -5 2 -10 12 -10 23 0 10 -5 19 -11 19 -6 0 -9 7 -5
15 3 8 1 15 -5 15 -6 0 -7 5 -4 10 3 6 1 10 -4 10 -6 0 -11 6 -11 13 0 6 -7
25 -15 41 -8 15 -12 33 -8 39 3 6 1 7 -5 3 -7 -4 -12 -1 -12 8 0 9 -9 30 -19
48 -11 17 -18 35 -15 40 3 4 0 8 -6 8 -6 0 -9 4 -6 9 4 5 0 11 -6 13 -7 3 -13
11 -14 19 -2 25 -16 59 -25 59 -5 0 -6 6 -3 14 3 7 -2 21 -11 30 -9 9 -13 16
-9 16 3 0 1 7 -6 15 -7 8 -9 15 -4 15 5 0 1 5 -8 11 -10 5 -15 16 -12 24 4 9
0 15 -7 15 -11 0 -11 3 1 10 10 7 11 10 2 10 -10 0 -24 22 -37 60 -1 3 -10 23
-20 45 -10 22 -18 43 -17 48 1 4 -2 7 -8 7 -6 0 -9 3 -8 8 0 4 -6 23 -15 42
-8 19 -13 39 -10 44 4 5 1 6 -5 2 -6 -3 -13 6 -17 24 -4 16 -11 30 -16 30 -6
0 -7 5 -4 10 3 6 2 10 -4 10 -6 0 -8 7 -5 15 4 8 1 15 -6 15 -6 0 -9 4 -5 9 3
5 0 13 -6 16 -5 4 -8 14 -5 22 3 8 1 11 -4 8 -6 -3 -13 2 -16 12 -3 10 -15 40
-27 67 -12 28 -21 54 -19 58 1 4 -3 8 -9 8 -5 0 -7 5 -4 10 3 6 1 10 -5 10 -6
0 -9 4 -5 9 3 5 1 12 -5 16 -5 3 -10 15 -10 26 0 13 -4 18 -12 13 -7 -5 -9 0
-6 14 4 13 0 23 -10 27 -8 3 -12 8 -9 12 4 3 0 15 -8 27 -8 11 -15 28 -15 38
0 10 -4 18 -10 18 -5 0 -10 9 -10 20 0 11 -5 20 -11 20 -5 0 -8 4 -5 9 3 5 -4
21 -16 37 -13 15 -17 25 -10 20 7 -4 -1 18 -18 49 -17 31 -28 60 -25 65 3 4 2
10 -2 12 -9 4 -49 83 -58 116 -4 12 -11 19 -17 16 -6 -4 -8 -3 -5 3 8 12 -14
73 -26 73 -4 0 -6 4 -2 9 3 5 -2 17 -11 25 -8 9 -13 16 -10 16 4 0 -3 18 -14
40 -11 22 -18 40 -14 40 3 0 -2 7 -11 16 -9 9 -14 21 -12 28 2 6 -3 17 -10 25
-8 7 -17 26 -20 42 -3 16 -9 26 -14 23 -5 -3 -9 4 -9 14 0 21 -40 105 -52 110
-4 2 -5 9 -2 16 3 8 -2 21 -11 30 -9 9 -13 16 -9 16 3 0 1 7 -6 15 -6 8 -9 18
-6 24 3 5 -1 12 -10 15 -8 3 -12 10 -9 16 3 6 -1 17 -9 26 -9 9 -14 20 -11 25
4 5 2 9 -3 9 -9 0 -25 40 -26 65 -1 6 -7 14 -13 18 -7 4 -13 17 -13 27 0 11
-4 20 -8 20 -5 0 -15 19 -22 43 -8 23 -20 50 -28 60 -8 9 -12 17 -7 17 4 0 0
11 -9 25 -9 14 -14 25 -12 25 3 0 -6 18 -18 41 l-23 40 -260 2 c-163 1 -264
-2 -270 -8z m273 -570 c-3 -8 0 -15 6 -15 6 0 9 -3 5 -6 -3 -4 1 -13 9 -21 8
-9 13 -20 11 -27 -2 -6 2 -17 10 -24 7 -8 11 -18 8 -23 -4 -5 -1 -9 4 -9 6 0
11 -9 11 -20 0 -11 5 -20 11 -20 5 0 8 -4 4 -9 -3 -5 -1 -12 4 -16 6 -3 7 -13
4 -22 -4 -11 -3 -14 5 -9 8 5 12 0 12 -13 0 -11 5 -23 11 -27 6 -3 9 -15 6
-25 -3 -11 -2 -17 3 -14 7 5 26 -33 32 -65 2 -8 6 -17 9 -20 10 -9 46 -89 38
-84 -5 3 0 -11 12 -30 12 -20 17 -36 12 -36 -4 0 -2 -4 5 -9 7 -4 14 -14 16
-22 1 -8 9 -30 19 -49 9 -19 17 -42 19 -50 2 -8 9 -21 16 -28 7 -8 10 -18 7
-23 -4 -5 -1 -9 6 -9 7 0 10 -3 6 -6 -3 -3 3 -22 14 -41 11 -19 17 -38 14 -44
-4 -5 -1 -9 4 -9 6 0 11 -9 11 -20 0 -11 5 -20 10 -20 6 0 10 -12 10 -26 0
-14 4 -23 8 -20 4 2 14 -15 21 -40 7 -24 17 -44 22 -44 5 0 6 -7 3 -15 -4 -8
-1 -15 6 -15 6 0 9 -4 6 -8 -3 -5 4 -23 15 -41 11 -18 17 -36 14 -42 -4 -5 -1
-9 5 -9 6 0 8 -4 5 -10 -3 -5 -1 -10 4 -10 6 0 11 -6 11 -12 0 -7 6 -25 14
-40 13 -25 13 -27 -7 -30 -12 -2 -34 -1 -49 3 -21 6 -30 3 -38 -9 -5 -9 -10
-12 -10 -6 0 7 -9 14 -20 17 -13 3 -18 1 -13 -6 4 -6 0 -8 -9 -5 -8 4 -21 2
-28 -2 -8 -5 -23 -2 -39 8 -14 10 -22 12 -18 5 10 -16 2 -16 -25 -2 -11 6 -18
7 -15 2 7 -11 -107 -8 -124 3 -7 4 -9 3 -6 -3 8 -12 -63 -10 -83 2 -9 5 -11 4
-6 -3 10 -16 -7 -15 -23 1 -8 7 -11 7 -8 1 8 -13 -62 -12 -83 1 -9 5 -11 4 -6
-3 9 -15 5 -15 -29 -2 -17 7 -24 7 -20 0 3 -6 2 -10 -4 -10 -5 0 -13 5 -17 11
-4 7 -9 8 -17 0 -6 -6 -16 -7 -28 -1 -12 7 -20 6 -25 -2 -5 -7 -3 -8 6 -3 9 5
11 4 6 -3 -5 -9 -15 -7 -34 6 -14 9 -23 12 -20 6 5 -7 -4 -11 -22 -11 -16 0
-27 5 -23 10 3 5 -2 5 -13 -1 -11 -5 -28 -8 -39 -6 -33 6 -58 6 -89 -2 -20 -5
-27 -3 -22 4 4 7 -3 8 -23 2 -45 -13 -46 -10 -10 75 7 17 12 33 11 38 -1 4 3
7 8 7 5 0 9 3 8 8 -1 6 4 21 35 92 5 14 10 28 9 33 -1 4 3 7 9 7 5 0 8 4 4 9
-3 5 -1 12 5 16 6 4 8 11 5 16 -4 5 -1 9 4 9 6 0 11 9 11 20 0 11 4 20 10 20
5 0 9 3 8 8 -2 4 6 27 16 52 21 48 23 54 25 71 0 5 5 8 9 5 4 -2 9 4 9 16 1
11 11 37 22 59 12 21 19 39 16 39 -3 0 4 16 15 36 11 19 18 39 16 43 -3 4 2
17 12 27 9 10 19 28 21 39 1 11 8 29 14 40 6 11 10 23 9 28 -1 4 3 7 10 7 6 0
9 3 6 6 -4 3 7 35 23 72 17 37 34 76 38 87 5 11 17 38 27 60 10 22 17 43 16
48 -1 4 3 7 9 7 5 0 8 4 4 9 -3 5 1 16 9 24 8 8 12 17 9 21 -4 3 2 12 12 20
13 9 15 15 6 20 -9 6 -8 13 5 27 20 23 38 25 30 4z"/>
<path d="M1413 9315 c0 -8 4 -12 9 -9 5 3 6 10 3 15 -9 13 -12 11 -12 -6z"/>
<path d="M2073 8455 c0 -8 4 -15 9 -15 4 0 8 4 8 9 0 6 -4 12 -8 15 -5 3 -9
-1 -9 -9z"/>
<path d="M10284 7752 c4 -7 -3 -10 -21 -9 l-28 2 -2 -618 c0 -339 3 -615 7
-612 5 3 11 1 15 -5 4 -7 12 -7 25 0 11 6 21 6 24 1 9 -14 44 -1 48 17 3 16 0
1194 -4 1219 -1 8 -7 9 -17 3 -10 -5 -24 -4 -35 2 -13 8 -17 7 -12 0z"/>
<path d="M5685 7580 c3 -5 2 -10 -3 -10 -14 0 -21 -47 -9 -59 8 -8 7 -11 -3
-11 -13 0 -13 -2 0 -10 12 -8 12 -10 1 -10 -10 0 -11 -3 -2 -13 8 -10 7 -17
-1 -25 -8 -8 -9 -12 -1 -12 6 0 9 -9 6 -20 -4 -17 -14 -20 -57 -21 -107 -2
-101 1 -102 -51 -1 -48 8 -56 50 -49 4 1 15 -4 24 -11 12 -10 14 -10 8 0 -9
15 6 16 21 1 8 -8 13 -8 17 0 11 17 24 13 37 -10 7 -15 8 -19 0 -15 -7 4 -9 1
-5 -8 8 -20 11 -156 4 -156 -8 0 -5 -44 4 -58 4 -7 2 -12 -6 -12 -9 0 -9 -3 2
-10 12 -8 12 -10 1 -10 -10 0 -11 -3 -2 -13 8 -10 7 -17 -1 -25 -7 -7 -8 -12
-2 -12 6 0 8 -21 4 -54 -3 -30 -2 -52 2 -50 4 3 8 0 8 -5 0 -6 -4 -11 -9 -11
-6 0 -6 -12 -1 -30 5 -18 5 -30 0 -30 -6 0 -6 -10 0 -24 5 -13 7 -32 6 -42 -2
-11 1 -26 5 -34 4 -8 16 -34 25 -57 10 -23 21 -40 26 -37 4 3 11 -1 14 -9 3
-9 19 -21 35 -27 16 -7 27 -15 25 -19 -4 -6 28 -11 87 -14 15 -1 27 -6 27 -11
0 -5 6 -4 13 2 7 6 22 11 32 11 48 0 115 20 115 33 0 6 6 8 13 5 9 -3 14 6 15
30 2 20 -1 32 -7 29 -5 -4 -11 4 -13 16 -4 28 -21 33 -42 13 -11 -11 -16 -13
-16 -4 0 8 -4 7 -12 -4 -10 -12 -26 -15 -73 -13 -33 2 -69 7 -80 11 -23 8 -54
46 -58 72 -1 10 -6 24 -10 31 -5 6 -6 12 -2 12 3 0 1 10 -6 21 -6 13 -7 19 -1
15 17 -10 20 18 4 37 -14 15 -13 17 4 18 18 0 18 1 -1 9 -11 5 -15 9 -10 9 12
1 13 261 0 280 -5 9 -4 12 1 8 6 -3 9 25 8 69 -1 40 2 71 7 68 5 -3 9 -1 9 4
0 11 81 10 99 -2 9 -6 12 -5 8 1 -8 13 52 12 72 -1 10 -6 12 -5 7 3 -6 8 3 11
29 8 l36 -4 -3 51 -3 51 -65 2 c-36 1 -95 2 -132 2 -63 1 -66 2 -64 24 2 13 7
30 11 38 7 11 5 11 -10 -1 -12 -9 -16 -10 -11 -2 11 18 14 112 4 118 -5 3 -6
10 -3 15 4 5 -6 4 -21 -1 -21 -8 -29 -8 -36 2 -6 10 -8 10 -8 -2 0 -9 -3 -11
-8 -5 -9 13 -35 18 -27 5z"/>
<path d="M7419 7403 c-2 -6 -24 -12 -49 -14 -25 -1 -49 -5 -55 -8 -10 -5 -34
-10 -67 -13 -10 -1 -18 -6 -18 -10 0 -4 -9 -8 -20 -8 -11 0 -20 -4 -20 -9 0
-8 -34 -21 -45 -18 -3 1 -12 -8 -20 -21 -9 -12 -21 -20 -26 -17 -15 10 -10 -6
16 -52 28 -47 46 -54 68 -23 8 11 17 17 20 13 4 -3 7 -1 7 6 0 8 7 11 15 7 8
-3 19 2 24 12 6 9 11 13 11 8 0 -5 8 -2 17 5 15 12 16 12 8 -1 -8 -13 -7 -13
9 0 20 16 37 19 139 25 37 2 67 0 67 -5 0 -4 11 -7 25 -5 14 1 25 -2 25 -7 0
-6 7 -8 15 -4 8 3 15 1 15 -4 0 -6 6 -10 13 -10 7 0 19 -10 27 -21 8 -12 21
-28 28 -35 7 -8 11 -14 7 -14 -4 0 0 -7 9 -15 8 -9 13 -22 10 -29 -3 -8 0 -17
6 -21 8 -5 7 -11 -2 -23 -7 -9 -8 -13 -2 -9 7 4 11 -7 11 -33 0 -22 -4 -37 -9
-34 -4 3 -8 2 -8 -3 0 -4 -86 -8 -190 -7 -105 0 -190 -3 -190 -7 0 -4 -8 -8
-17 -8 -39 -1 -53 -5 -53 -13 0 -5 -4 -7 -9 -4 -11 7 -82 -49 -97 -75 -5 -11
-14 -16 -18 -12 -5 4 -5 -2 -2 -14 6 -17 4 -22 -6 -18 -11 4 -13 -3 -10 -30 2
-19 0 -35 -5 -35 -5 0 -9 -10 -7 -22 1 -13 3 -23 4 -23 1 0 3 -13 5 -30 1 -16
4 -31 5 -32 1 -2 3 -6 4 -10 1 -5 5 -14 9 -20 5 -7 5 -13 2 -13 -3 0 13 -19
37 -43 38 -39 62 -55 78 -54 3 0 16 -6 30 -13 28 -16 48 -20 105 -23 22 -1 43
-6 47 -12 5 -6 8 -6 8 1 0 6 15 10 35 9 19 -2 35 0 35 4 0 3 11 7 25 8 45 4
55 6 55 14 0 4 12 10 27 14 15 3 31 12 35 18 4 7 13 12 20 12 7 1 12 6 11 12
-2 7 6 15 17 18 11 4 18 11 15 16 -4 5 -2 9 4 9 5 0 9 -17 9 -37 0 -77 1 -84
20 -82 9 1 19 0 22 -1 15 -5 67 -4 64 2 -3 4 4 11 13 17 17 10 17 10 -2 11
-12 0 -16 3 -9 8 16 10 15 562 0 562 -6 0 -4 5 4 10 8 5 10 10 3 10 -6 0 -10
8 -8 18 1 9 -5 35 -13 57 -16 40 -62 117 -62 102 0 -4 -12 4 -26 18 -14 14
-30 23 -35 20 -5 -4 -9 -1 -9 4 0 6 -7 11 -16 11 -8 0 -13 4 -10 9 4 5 -3 7
-14 4 -11 -3 -20 -1 -20 4 0 9 -7 10 -92 14 -30 2 -45 6 -41 13 4 6 0 5 -9 -2
-13 -10 -17 -10 -20 0 -3 9 -6 10 -9 1z m-69 -495 c0 11 301 9 319 -2 10 -7
12 -6 6 4 -5 8 -4 11 3 6 13 -8 12 -46 -2 -65 -8 -11 -8 -13 1 -8 15 9 14 -32
-1 -52 -8 -11 -8 -13 2 -7 10 6 10 2 0 -21 -6 -15 -17 -32 -23 -38 -7 -5 -13
-13 -13 -17 -3 -12 -42 -49 -42 -40 0 4 -5 -1 -11 -10 -5 -10 -16 -18 -23 -18
-8 0 -19 -7 -27 -16 -7 -9 -22 -14 -36 -11 -13 2 -23 0 -23 -5 0 -5 -4 -6 -10
-3 -5 3 -19 1 -30 -5 -13 -7 -20 -7 -20 -1 0 7 -8 7 -24 1 -13 -5 -27 -6 -30
-2 -7 6 -25 10 -58 14 -10 1 -18 6 -18 10 0 4 -6 8 -12 8 -20 0 -68 45 -68 64
0 9 -5 16 -12 16 -6 0 -9 2 -6 6 3 3 2 21 -2 40 -5 20 -4 34 2 34 5 0 6 5 3
10 -3 6 -2 10 4 10 6 0 8 7 5 15 -4 8 -1 15 6 15 6 0 8 5 5 10 -3 6 1 10 10
10 8 0 18 7 21 15 3 8 21 17 40 21 19 3 31 11 28 16 -4 6 3 5 15 -1 11 -7 21
-8 21 -3z"/>
<path d="M9465 7400 c-3 -5 -24 -10 -45 -10 -21 0 -41 -6 -43 -12 -4 -10 -6
-9 -6 1 -1 9 -5 10 -13 4 -7 -5 -29 -16 -48 -23 -19 -7 -47 -22 -61 -31 -14
-10 -29 -15 -33 -11 -4 4 -6 2 -5 -3 2 -6 -12 -26 -31 -46 -39 -40 -63 -72
-63 -85 0 -5 -7 -15 -14 -22 -7 -8 -11 -18 -8 -23 4 -5 1 -9 -6 -9 -7 0 -9 -3
-6 -7 4 -3 2 -12 -4 -20 -6 -7 -9 -13 -5 -13 4 0 0 -13 -9 -30 -9 -16 -12 -30
-7 -30 5 0 9 -7 9 -15 0 -8 -3 -15 -6 -15 -4 0 -5 -24 -4 -52 1 -29 2 -53 3
-53 2 0 12 -66 13 -82 0 -7 3 -13 7 -13 3 0 7 -10 7 -22 1 -13 7 -24 13 -26 5
-2 10 -12 10 -22 0 -10 7 -21 16 -24 8 -3 12 -10 9 -16 -3 -5 -1 -10 4 -10 6
0 11 -7 11 -16 0 -8 5 -12 10 -9 6 3 10 1 10 -5 0 -14 20 -34 43 -43 9 -3 17
-10 17 -15 0 -5 18 -17 40 -27 22 -10 40 -21 40 -26 0 -4 8 -6 18 -4 9 1 26
-2 37 -8 21 -11 42 -16 90 -19 17 -1 33 -7 37 -13 5 -6 8 -6 8 0 0 6 24 10 55
9 30 -1 55 2 55 7 0 4 8 6 18 4 9 -1 22 0 27 4 6 3 15 6 20 7 27 5 85 36 85
45 0 5 4 8 9 4 5 -3 16 1 24 9 8 8 17 12 21 9 3 -4 6 -1 6 5 0 7 9 21 20 32
20 20 19 47 -1 35 -5 -4 -9 1 -9 9 0 9 -5 16 -11 16 -5 0 -8 4 -5 8 2 4 -4 14
-16 21 -11 7 -17 8 -13 2 3 -6 0 -11 -7 -11 -8 0 -21 -9 -31 -20 -10 -12 -23
-18 -29 -14 -6 4 -8 3 -5 -3 6 -9 -54 -39 -103 -51 -27 -7 -170 -8 -170 -2 0
4 -13 6 -30 5 -16 -1 -27 2 -24 6 3 5 -7 11 -21 15 -14 3 -25 10 -25 16 0 5
-4 6 -10 3 -13 -8 -100 80 -100 100 0 10 -5 13 -12 9 -7 -5 -9 0 -6 14 4 13 0
23 -9 26 -8 4 -13 13 -9 21 3 8 0 15 -6 15 -6 0 -5 6 3 17 10 11 10 14 2 9
-15 -8 -17 12 -4 33 8 12 12 12 25 2 9 -8 16 -9 16 -3 0 6 8 9 18 7 9 -2 17
-4 17 -5 0 -1 8 -3 18 -5 9 -2 15 1 11 6 -6 10 25 7 44 -4 7 -5 12 -3 12 5 0
9 3 9 10 -2 5 -8 10 -10 10 -4 0 11 48 10 78 -1 7 -3 10 0 7 5 -7 11 23 9 43
-3 6 -5 12 -5 12 0 0 4 31 8 69 8 41 1 67 -3 64 -9 -3 -5 -1 -6 5 -2 15 9 93
16 88 7 -3 -4 4 -7 15 -7 10 0 19 3 19 6 0 3 26 4 58 3 86 -3 90 -1 82 52 -4
27 -3 45 3 45 6 0 6 5 0 13 -6 6 -9 20 -8 30 2 9 0 17 -4 17 -4 0 -8 6 -9 13
-4 49 -43 126 -84 165 -10 9 -18 22 -18 30 0 7 -5 10 -12 6 -7 -5 -9 -2 -5 9
4 11 2 14 -9 10 -7 -3 -14 0 -14 7 0 6 -4 8 -10 5 -5 -3 -10 -2 -10 2 0 15
-110 65 -131 60 -10 -3 -17 -1 -13 4 3 5 -15 9 -40 9 -25 0 -48 5 -51 10 -3 6
-10 10 -15 10 -5 0 -12 -4 -15 -10z m75 -116 c0 4 9 2 20 -4 14 -8 20 -8 20 0
0 6 7 4 16 -4 8 -9 20 -14 25 -11 5 4 9 1 9 -4 0 -6 7 -11 16 -11 8 0 12 -4 9
-10 -3 -5 0 -10 7 -10 19 -1 61 -41 78 -75 8 -17 19 -33 23 -36 4 -3 9 -16 10
-27 1 -12 4 -22 8 -22 8 0 18 -60 10 -61 -3 0 -24 -1 -46 -2 -22 -1 -43 -6
-47 -12 -5 -6 -8 -6 -8 0 0 6 -13 11 -30 11 -18 1 -27 -2 -23 -9 4 -6 1 -7 -8
-1 -18 11 -178 13 -185 2 -3 -5 -11 -5 -17 -1 -19 12 -180 11 -196 -1 -11 -8
-13 -8 -7 2 6 9 1 11 -17 8 -22 -4 -24 -1 -23 25 0 16 4 29 9 29 4 0 6 4 3 9
-8 12 4 42 13 36 4 -2 8 2 9 10 1 8 3 22 4 30 1 8 8 17 15 19 8 3 11 11 8 16
-4 6 -3 9 2 8 4 -1 25 13 46 32 20 19 40 35 45 36 16 2 47 18 54 28 5 7 8 7 8
-2 0 -7 5 -10 11 -6 7 4 30 9 52 12 31 3 38 1 33 -9 -4 -8 -1 -6 6 3 9 12 16
14 25 6 7 -6 13 -7 13 -4z"/>
<path d="M12700 7405 c0 -6 -8 -11 -17 -12 -70 -3 -103 -8 -103 -17 0 -6 -4
-5 -9 3 -6 9 -11 10 -15 2 -4 -6 -12 -9 -17 -6 -5 4 -9 1 -9 -5 0 -6 -4 -9 -9
-5 -5 3 -16 -2 -25 -10 -8 -9 -18 -16 -21 -15 -21 1 -25 -1 -20 -10 3 -5 0 -7
-9 -4 -8 3 -19 -3 -26 -15 -6 -12 -16 -21 -23 -21 -7 0 -21 -14 -32 -30 -11
-16 -26 -30 -32 -30 -7 0 -12 -3 -11 -7 5 -18 -14 -53 -25 -47 -7 4 -9 4 -5 0
9 -11 -12 -66 -25 -66 -8 0 -7 -3 1 -9 11 -7 11 -11 -2 -23 -11 -11 -12 -18
-3 -27 6 -6 7 -11 1 -11 -12 0 -11 -120 0 -138 4 -7 2 -12 -3 -12 -6 0 -2 -16
9 -36 11 -19 15 -32 8 -28 -10 6 -11 5 -1 -8 7 -8 10 -18 6 -21 -3 -4 -1 -7 6
-7 7 0 9 -4 6 -10 -3 -5 -1 -10 4 -10 6 0 11 -6 11 -13 0 -7 9 -23 20 -35 11
-12 20 -26 20 -32 0 -6 5 -8 10 -5 6 3 10 -1 10 -9 0 -9 6 -16 14 -16 7 0 21
-11 32 -24 10 -14 21 -23 26 -20 4 3 8 0 8 -6 0 -6 5 -8 10 -5 6 3 10 2 10 -3
0 -8 24 -20 52 -26 3 0 9 -4 13 -8 4 -4 13 -4 21 -1 8 3 14 1 14 -4 0 -12 48
-16 150 -14 91 2 100 3 100 11 0 4 6 7 13 8 31 3 49 10 58 23 5 8 9 10 9 6 0
-4 10 -2 23 5 12 7 26 11 30 10 5 -1 7 1 4 5 -4 8 25 40 41 46 4 1 6 4 5 7 0
3 5 11 13 18 17 15 17 14 15 -102 0 -44 -5 -84 -10 -89 -5 -5 -7 -16 -4 -23 3
-8 0 -14 -6 -14 -6 0 -8 -7 -5 -15 4 -8 2 -15 -2 -15 -5 0 -15 -14 -23 -31 -7
-17 -24 -35 -37 -41 -13 -6 -21 -15 -18 -19 3 -5 -4 -9 -15 -9 -11 0 -23 -5
-26 -10 -4 -6 -11 -8 -16 -5 -5 4 -9 2 -9 -3 0 -6 -13 -9 -29 -8 -17 1 -28 -1
-25 -5 2 -4 -23 -7 -56 -6 -33 1 -62 -2 -64 -8 -3 -6 -5 -6 -5 1 -1 6 -16 9
-36 8 -19 -2 -35 1 -35 6 0 4 -8 7 -17 5 -10 -1 -24 3 -32 9 -12 9 -13 8 -6
-4 5 -9 -1 -7 -14 5 -13 11 -26 19 -30 18 -13 -5 -41 9 -41 20 0 7 -4 6 -10
-3 -8 -13 -10 -12 -10 3 0 10 -4 16 -9 12 -5 -3 -16 2 -24 10 -9 8 -20 15 -25
15 -6 0 -12 4 -14 10 -5 16 -29 -5 -31 -28 0 -11 -4 -19 -9 -16 -4 2 -12 -5
-18 -16 -9 -17 -6 -25 15 -46 14 -13 25 -21 25 -17 0 4 5 0 11 -10 6 -9 14
-15 20 -12 5 4 16 -1 25 -9 8 -9 24 -16 35 -16 10 0 19 -5 19 -11 0 -6 9 -9
20 -6 11 3 20 0 20 -6 0 -6 3 -7 7 -4 3 4 13 1 21 -6 13 -10 14 -9 8 1 -7 11
-4 12 13 3 11 -7 50 -13 86 -14 36 -1 65 -6 65 -11 0 -5 6 -4 13 1 6 5 36 9
64 9 29 -1 53 1 53 4 0 3 8 6 18 7 40 3 62 8 62 13 0 3 9 6 20 7 11 1 27 9 36
17 9 9 20 13 26 10 6 -4 8 -2 4 4 -3 6 3 13 14 17 11 3 20 14 20 22 0 9 3 13
6 10 9 -8 44 32 44 49 0 7 8 18 18 23 9 6 14 11 10 11 -4 0 0 16 8 35 8 19 11
35 8 35 -3 0 1 11 9 24 11 16 12 27 5 34 -6 6 -6 12 1 16 6 4 11 12 11 17 0 6
-6 7 -12 3 -10 -6 -10 -4 -2 7 7 9 10 146 8 414 -1 220 -2 406 -3 413 -1 15
-108 15 -117 0 -3 -4 0 -8 7 -8 8 0 8 -4 -1 -15 -10 -12 -10 -15 1 -15 12 0
12 -2 0 -9 -9 -6 -10 -11 -2 -15 8 -5 8 -13 1 -27 -8 -13 -7 -19 0 -19 6 0 8
-4 5 -10 -10 -17 -33 -11 -40 10 -3 11 -12 20 -18 20 -7 0 -19 9 -27 20 -8 11
-20 20 -28 20 -7 0 -10 5 -6 12 4 7 3 8 -4 4 -7 -4 -24 0 -39 8 -51 27 -76 34
-138 37 -16 1 -33 7 -37 13 -5 7 -8 7 -8 1z m70 -124 c0 -3 11 -7 25 -8 55 -5
65 -8 65 -15 0 -7 42 -33 73 -44 9 -3 17 -11 17 -16 0 -6 8 -18 19 -27 10 -9
21 -26 25 -38 4 -13 11 -23 16 -23 5 0 7 -9 5 -20 -2 -11 0 -20 4 -20 8 0 9
-3 14 -55 1 -16 6 -36 11 -44 6 -10 6 -12 -3 -7 -8 5 -12 3 -10 -5 5 -42 -2
-90 -13 -83 -6 4 -8 3 -5 -3 8 -12 -14 -73 -26 -73 -4 0 -6 -3 -4 -7 2 -5 -13
-25 -34 -46 -22 -21 -39 -35 -39 -30 0 4 -4 3 -8 -4 -4 -6 -14 -13 -22 -15 -8
-2 -21 -9 -28 -16 -8 -7 -18 -10 -23 -7 -5 4 -9 2 -9 -4 0 -5 -9 -8 -20 -6
-11 2 -22 0 -24 -4 -3 -4 -36 -6 -73 -4 -98 4 -96 4 -117 22 -16 13 -18 13
-11 1 7 -12 6 -13 -7 -3 -8 7 -18 10 -21 6 -4 -3 -7 1 -7 10 0 10 -5 14 -15
11 -10 -4 -15 0 -15 11 0 9 -4 14 -9 10 -6 -3 -15 0 -21 7 -5 7 -22 26 -35 41
-14 16 -23 33 -20 38 4 5 1 9 -4 9 -6 0 -11 7 -11 15 0 8 -4 15 -8 15 -9 0
-10 7 -13 55 -1 14 -4 25 -8 25 -9 0 -7 43 3 59 5 8 3 16 -4 21 -9 5 -9 9 -1
14 6 4 9 12 6 17 -4 5 -2 9 4 9 5 0 8 8 7 17 -3 21 22 73 35 73 6 0 7 5 4 10
-3 6 1 13 9 16 9 3 14 10 11 14 -3 5 4 11 14 15 11 3 23 14 26 25 4 12 13 17
26 15 11 -2 17 0 14 4 -6 10 18 22 55 28 14 2 28 7 32 11 9 9 148 11 148 3z"/>
<path d="M13906 7403 c-8 -8 -28 -12 -78 -14 -20 -1 -35 -6 -33 -10 3 -4 -4
-5 -15 -2 -11 3 -20 0 -20 -6 0 -5 -7 -8 -15 -5 -8 4 -15 1 -15 -5 0 -6 -3
-10 -7 -9 -14 2 -48 -15 -60 -31 -7 -9 -13 -12 -13 -8 0 5 -21 -14 -48 -42
-48 -50 -92 -121 -92 -148 0 -8 -3 -12 -7 -10 -7 4 -13 -29 -16 -85 -1 -10 -5
-18 -10 -18 -5 0 -4 -6 2 -13 6 -8 8 -16 6 -19 -10 -10 -13 -78 -4 -78 6 0 5
-10 -2 -21 -9 -17 -8 -20 2 -14 9 6 11 4 6 -7 -3 -9 -3 -19 1 -22 3 -4 7 -14
9 -24 6 -31 8 -37 16 -49 5 -7 5 -13 0 -13 -4 0 0 -5 10 -11 9 -6 15 -14 12
-20 -4 -5 -1 -9 4 -9 6 0 11 -6 11 -14 0 -8 7 -17 16 -20 9 -4 14 -9 11 -13
-7 -6 42 -53 56 -53 5 0 5 -4 2 -10 -3 -5 0 -10 8 -10 8 0 20 -7 27 -15 7 -8
16 -12 21 -9 5 3 9 0 9 -5 0 -6 7 -11 15 -11 8 0 15 -5 15 -11 0 -5 5 -7 10
-4 6 4 18 1 26 -6 9 -7 32 -14 52 -16 71 -5 98 -10 112 -18 8 -5 11 -4 7 2 -4
6 6 10 26 10 52 -2 128 11 143 24 8 6 14 8 14 5 0 -4 13 2 30 14 16 12 34 18
40 15 5 -3 10 2 10 11 0 10 3 15 6 11 3 -3 16 5 29 18 12 14 24 23 26 20 3 -2
6 5 6 17 1 12 -6 29 -16 37 -9 9 -20 24 -24 33 -4 11 -12 15 -22 12 -8 -3 -12
-10 -9 -15 5 -8 -9 -13 -28 -10 -5 0 -8 -6 -8 -15 0 -8 -4 -12 -10 -9 -5 3
-10 1 -10 -4 0 -6 -9 -11 -21 -11 -13 0 -18 -4 -13 -12 5 -8 2 -9 -9 -5 -10 4
-17 1 -17 -5 0 -6 -3 -8 -7 -5 -3 4 -12 2 -20 -4 -7 -6 -13 -8 -13 -4 0 4 -8
1 -17 -6 -15 -12 -16 -12 -8 1 7 12 6 13 -6 4 -11 -9 -144 -13 -144 -5 0 1
-12 4 -26 6 -14 2 -43 13 -65 26 -21 12 -50 28 -64 36 -14 7 -21 13 -16 13 5
0 -3 11 -19 26 -15 14 -25 28 -21 31 3 3 -3 13 -15 21 -11 8 -18 19 -16 26 3
6 -1 20 -8 30 -8 10 -11 24 -9 31 3 7 1 16 -5 19 -6 4 -8 13 -4 22 4 11 9 12
19 3 9 -7 14 -8 14 -1 0 12 18 11 39 -2 10 -6 12 -5 7 2 -9 16 7 15 22 0 8 -8
12 -9 12 -1 0 6 8 10 18 8 9 -2 17 -4 17 -5 0 -1 8 -3 18 -5 9 -2 15 1 11 6
-6 10 25 7 44 -4 7 -5 12 -3 12 5 0 9 3 9 10 -2 5 -8 10 -10 10 -4 0 11 48 10
78 -1 7 -3 10 0 7 5 -7 11 23 9 43 -3 6 -5 12 -5 12 0 0 4 45 8 100 8 60 0
100 -4 100 -10 0 -7 3 -7 8 0 4 6 14 10 22 10 8 0 18 -4 22 -10 5 -6 8 -6 8 1
0 7 15 9 41 7 34 -4 41 -2 36 11 -3 8 -1 18 5 22 7 4 6 9 -3 15 -9 5 -10 9 -3
9 8 0 9 11 4 36 -5 20 -7 45 -5 55 2 11 0 17 -6 14 -5 -4 -9 5 -9 19 0 14 -5
28 -10 31 -6 4 -8 11 -5 16 4 5 1 9 -4 9 -6 0 -11 9 -11 20 0 11 -5 20 -11 20
-6 0 -9 6 -6 13 3 7 -4 19 -14 25 -10 7 -19 19 -19 27 0 8 -3 14 -8 13 -4 -2
-21 12 -38 30 -17 17 -37 32 -44 32 -6 0 -25 9 -41 21 -16 11 -33 17 -39 14
-5 -3 -10 -1 -10 5 0 6 -4 8 -10 5 -5 -3 -10 -2 -10 4 0 5 -9 8 -20 6 -11 -2
-20 1 -20 7 0 7 -5 6 -14 -1 -9 -7 -17 -8 -20 -2 -3 5 -16 7 -29 4 -18 -4 -19
-3 -7 6 8 6 10 11 4 11 -6 0 -14 -3 -18 -7z m142 -147 c28 -14 52 -31 52 -36
0 -6 6 -10 13 -10 7 0 23 -18 37 -40 14 -22 27 -40 31 -40 3 0 6 -7 7 -15 1
-8 3 -22 4 -30 1 -8 5 -15 9 -15 4 0 6 -8 4 -17 -1 -10 2 -23 7 -29 12 -16 -7
-21 -59 -19 -27 2 -40 -1 -36 -8 4 -6 1 -7 -8 -1 -18 11 -178 13 -185 2 -3 -5
-11 -5 -17 -1 -19 12 -180 11 -196 -1 -11 -8 -13 -8 -7 2 4 6 3 12 -1 12 -5 0
-15 -6 -22 -12 -10 -9 -12 -10 -7 -1 5 9 -3 11 -29 9 -21 -2 -36 1 -37 8 -4
33 -4 42 1 51 3 6 6 12 6 15 4 37 80 140 104 140 7 0 10 4 6 9 -3 5 4 12 15
16 11 3 20 12 20 18 0 7 4 6 10 -3 7 -11 10 -11 10 -2 0 7 5 10 10 7 6 -3 10
-1 10 5 0 6 4 9 9 5 5 -3 12 -1 16 5 4 6 39 9 88 7 64 -3 93 -10 135 -31z"/>
<path d="M15093 7404 c4 -8 -7 -12 -36 -13 -55 -1 -81 -7 -118 -25 -19 -9 -27
-10 -22 -3 3 7 -3 4 -14 -5 -11 -10 -24 -18 -29 -18 -5 0 -16 -9 -24 -19 -7
-11 -17 -18 -21 -15 -4 2 -16 -9 -25 -26 -31 -52 -37 -42 -34 58 l1 52 -60 -1
-61 -2 0 -437 c0 -240 3 -440 7 -443 3 -4 13 -2 23 3 10 5 20 6 24 3 9 -9 55
-10 50 -1 -3 4 1 8 8 8 10 0 13 50 12 247 -1 137 3 256 8 266 5 11 5 17 -2 17
-6 0 -7 6 -1 18 18 34 34 77 33 84 -1 4 7 12 18 18 11 6 18 15 15 21 -4 5 1 9
10 9 9 0 13 5 10 10 -3 6 1 10 9 10 9 0 16 5 16 11 0 5 4 8 9 5 5 -3 12 1 15
10 4 9 9 14 12 11 3 -3 20 1 39 8 18 8 35 11 39 8 3 -4 6 -2 6 3 0 14 122 10
149 -5 19 -11 22 -11 15 1 -6 11 -5 11 9 -1 9 -7 17 -10 17 -5 0 4 7 -1 15
-12 8 -10 15 -16 15 -12 0 5 11 -2 25 -14 13 -11 22 -25 19 -30 -3 -4 2 -8 11
-8 11 0 15 -5 12 -14 -3 -8 0 -17 8 -19 8 -4 12 -18 11 -36 -1 -16 1 -28 5
-25 4 2 10 0 14 -6 3 -5 1 -10 -5 -10 -7 0 -8 -6 -2 -17 5 -10 8 -138 8 -285
-1 -146 2 -264 6 -262 4 2 9 0 13 -5 4 -7 15 -7 30 -1 18 7 25 6 25 -2 0 -7 7
-3 16 8 8 10 13 14 10 7 -4 -6 0 -10 9 -9 18 3 33 16 18 16 -12 0 -12 25 0 36
4 4 2 13 -4 20 -7 9 -7 19 0 33 7 13 8 22 1 26 -5 3 -10 11 -10 16 0 6 4 8 8
5 5 -3 9 1 9 9 0 8 -4 15 -8 15 -9 0 -6 26 4 36 4 4 2 13 -4 21 -9 10 -8 17 1
28 7 8 8 15 3 15 -5 0 -9 9 -10 20 -1 11 2 18 6 16 4 -3 8 1 8 9 0 8 -4 15 -8
15 -9 0 -6 26 4 36 4 4 2 13 -4 21 -9 10 -8 17 1 28 7 8 8 15 3 15 -5 0 -9 9
-10 20 -1 11 2 18 6 16 4 -3 8 1 8 9 0 8 -3 15 -6 15 -3 0 -7 26 -8 58 -2 61
-5 81 -14 97 -4 6 -9 22 -12 36 -4 14 -16 36 -27 50 -11 13 -30 36 -42 51 -13
15 -27 28 -31 28 -5 0 -21 9 -37 20 -15 11 -36 21 -46 23 -11 2 -27 7 -36 12
-10 4 -25 5 -33 1 -8 -3 -15 -2 -15 3 0 4 -10 7 -22 6 -13 -1 -29 3 -37 9 -11
8 -13 8 -8 0z"/>
<path d="M16200 7400 c14 -9 -15 -13 -92 -13 -10 0 -18 -4 -18 -9 0 -6 -8 -8
-18 -6 -10 3 -23 -1 -30 -9 -7 -7 -17 -11 -23 -8 -5 4 -9 1 -9 -5 0 -7 -7 -9
-16 -6 -8 3 -13 2 -10 -3 3 -4 -7 -14 -22 -22 -35 -18 -93 -75 -117 -116 -11
-18 -23 -33 -27 -33 -4 0 -5 -7 -2 -15 4 -8 1 -15 -6 -15 -6 0 -9 -4 -5 -9 3
-5 1 -12 -5 -16 -5 -3 -10 -20 -10 -36 0 -17 -3 -28 -7 -26 -11 7 -10 -155 0
-170 5 -8 4 -13 -3 -13 -7 0 -8 -6 0 -19 5 -11 10 -31 10 -46 0 -17 4 -24 12
-19 7 5 9 2 6 -7 -3 -8 3 -27 13 -44 10 -16 22 -37 26 -45 4 -8 19 -27 35 -42
15 -14 28 -31 28 -38 0 -6 4 -9 9 -6 5 3 12 -1 15 -10 3 -8 10 -12 16 -9 5 3
10 1 10 -4 0 -6 7 -11 15 -11 8 0 15 -4 15 -10 0 -5 9 -10 19 -10 11 0 21 -5
23 -11 2 -5 20 -11 40 -12 20 -1 34 -5 31 -9 -2 -5 11 -9 29 -9 123 -5 178 -4
178 4 0 5 14 7 30 5 17 -3 30 -2 30 1 0 3 11 11 25 18 19 8 24 8 19 0 -3 -7 0
-5 8 3 7 8 20 16 28 18 8 2 19 10 23 18 4 8 13 14 18 14 14 0 40 26 33 33 -3
3 4 8 15 12 12 3 19 10 16 15 -3 5 -1 11 4 15 11 6 -23 45 -39 45 -5 0 -10 5
-10 11 0 5 -4 8 -9 5 -5 -4 -11 -1 -13 4 -2 6 -25 -10 -52 -35 -49 -47 -90
-70 -107 -59 -5 3 -9 1 -9 -4 0 -6 -7 -13 -16 -16 -10 -4 -13 -2 -8 7 6 9 4 9
-7 1 -12 -9 -138 -13 -146 -4 -4 4 -20 7 -39 9 -8 0 -13 5 -10 9 3 5 0 9 -7 9
-26 1 -43 9 -70 36 -16 15 -33 27 -39 27 -6 0 -8 3 -5 6 4 4 -3 15 -15 25 -11
11 -18 19 -14 19 4 0 -3 14 -15 32 -13 17 -16 28 -8 23 12 -8 12 -7 0 9 -8 9
-16 32 -17 49 -1 18 -3 33 -4 35 -6 6 -4 102 2 102 4 0 5 9 3 20 -2 11 1 20 6
20 6 0 7 5 4 10 -4 6 -1 17 5 25 7 8 9 15 6 15 -4 0 0 7 8 16 9 8 16 22 16 30
0 8 5 14 11 14 5 0 7 5 4 10 -3 6 1 10 10 10 9 0 14 3 12 8 -6 9 19 33 27 25
3 -3 8 2 12 11 3 9 10 13 15 10 5 -3 9 0 9 5 0 6 8 11 19 11 10 0 24 7 31 15
7 9 15 13 18 10 3 -3 11 0 19 6 10 9 13 8 13 -2 0 -10 3 -10 12 -1 16 16 31
15 22 0 -6 -10 -5 -10 7 -1 13 10 96 12 107 3 1 -1 7 -4 12 -5 6 -1 12 -4 15
-5 6 -3 22 -7 34 -9 5 0 16 -7 23 -13 7 -7 25 -19 40 -27 15 -8 25 -17 23 -21
-2 -3 5 -14 17 -24 15 -13 23 -15 28 -6 4 6 10 10 13 8 4 -1 14 4 24 12 18 16
27 20 41 20 4 0 0 5 -8 10 -12 8 -12 10 -1 10 9 0 7 6 -7 19 -12 10 -22 24
-22 31 0 7 -3 11 -6 8 -3 -3 -16 4 -29 16 -39 35 -54 46 -64 46 -6 0 -26 9
-45 20 -24 13 -37 16 -42 9 -4 -8 -9 -8 -13 -1 -3 6 -30 12 -58 14 -29 2 -55
7 -59 11 -4 4 -12 7 -18 7 -6 0 -4 -5 4 -10z"/>
<path d="M6785 7392 c-22 -2 -46 -9 -54 -15 -12 -10 -13 -9 -6 3 8 13 6 13 -8
2 -9 -8 -20 -11 -26 -8 -5 3 -11 2 -13 -3 -1 -5 -10 -11 -18 -13 -25 -5 -100
-70 -118 -103 -8 -15 -12 -16 -12 -5 -5 61 -4 80 3 80 5 0 5 6 0 13 -4 6 -6
20 -5 29 3 14 -7 16 -58 17 l-60 0 0 -439 0 -439 46 5 c26 2 43 0 40 -5 -3 -5
3 -7 14 -4 16 4 20 14 20 47 1 22 1 143 2 269 0 125 4 230 9 233 5 3 9 16 9
29 0 13 5 27 10 30 6 4 8 11 5 16 -4 5 -1 9 4 9 6 0 11 7 11 15 0 8 5 15 10
15 6 0 10 7 10 16 0 8 5 12 10 9 6 -3 10 -1 10 5 0 5 13 18 30 29 16 10 27 21
22 26 -4 4 1 5 12 1 10 -3 24 -2 30 3 7 6 31 12 54 13 23 2 42 8 42 13 0 6 4
5 8 -2 15 -24 34 4 35 52 0 54 -9 62 -68 57z"/>
<path d="M8808 7380 c-16 -16 -32 -50 -30 -62 1 -5 -2 -8 -8 -8 -5 0 -9 -3 -8
-7 1 -5 -7 -26 -17 -48 -10 -22 -19 -42 -19 -45 -4 -22 -40 -88 -47 -85 -4 3
-6 -3 -4 -12 1 -10 -4 -29 -12 -42 -12 -18 -12 -22 -2 -16 8 3 5 -1 -5 -9 -11
-9 -17 -16 -13 -16 3 0 -4 -21 -18 -47 -13 -26 -21 -51 -19 -55 3 -4 1 -8 -4
-8 -9 0 -23 -31 -26 -55 -1 -5 -7 -16 -13 -23 -7 -7 -13 -22 -13 -33 0 -11 -6
-22 -14 -25 -8 -3 -12 -12 -9 -20 3 -8 0 -14 -7 -14 -6 0 -9 -4 -5 -9 3 -5 -1
-15 -8 -23 -8 -7 -12 -18 -10 -24 2 -6 -3 -17 -12 -24 -12 -10 -15 -10 -15 4
0 9 -4 16 -10 16 -5 0 -10 7 -10 15 0 9 -7 27 -16 40 -9 13 -13 29 -9 35 3 5
3 10 -2 10 -9 0 -33 48 -33 67 0 7 -5 13 -11 13 -5 0 -8 4 -4 9 3 5 1 12 -5
16 -6 4 -8 11 -5 16 4 5 0 12 -8 15 -8 3 -14 13 -13 22 2 9 -3 23 -11 30 -7 8
-11 18 -8 23 4 5 2 9 -3 9 -5 0 -12 8 -16 18 -3 9 -9 23 -12 31 -5 10 -3 11 7
5 11 -6 10 -3 -1 12 -8 10 -17 21 -20 24 -15 15 -30 52 -25 60 4 6 1 10 -5 10
-6 0 -8 5 -5 10 3 6 1 10 -5 10 -7 0 -9 7 -6 16 4 10 2 13 -6 8 -7 -5 -9 0 -6
14 4 12 2 20 -3 16 -8 -4 -14 17 -10 39 0 4 -3 7 -9 7 -5 0 -10 7 -10 16 0 8
-4 13 -8 10 -4 -2 -9 7 -10 20 -3 40 -25 54 -86 54 -52 0 -56 -2 -53 -22 1
-13 8 -29 15 -37 7 -7 16 -26 19 -42 3 -16 9 -29 14 -29 5 0 9 -12 9 -26 0
-14 4 -23 8 -20 5 3 14 -15 20 -40 7 -24 16 -44 22 -44 5 0 10 -11 10 -25 0
-14 5 -25 12 -25 6 0 8 -3 5 -7 -4 -3 -2 -12 5 -20 6 -7 8 -16 5 -19 -3 -4 4
-15 16 -26 12 -11 16 -17 10 -13 -10 5 16 -58 58 -137 5 -10 9 -25 9 -33 0 -8
5 -15 11 -15 5 0 7 -4 4 -10 -3 -5 -1 -10 5 -10 6 0 9 -4 5 -9 -3 -5 -1 -12 5
-16 5 -3 10 -15 10 -26 0 -10 5 -19 10 -19 5 0 9 -3 8 -7 -1 -5 4 -19 12 -33
7 -14 13 -26 12 -27 -6 -8 -1 -23 6 -19 4 2 9 -7 10 -22 1 -14 6 -28 10 -31 5
-3 16 -24 25 -46 9 -22 16 -35 16 -28 1 7 12 9 32 6 24 -3 29 -2 23 9 -6 11
-5 11 8 0 18 -14 64 -9 61 7 -2 6 2 11 8 11 5 0 8 4 4 9 -3 5 -1 12 5 16 6 4
8 10 5 15 -3 4 2 10 10 14 8 3 12 12 9 21 -4 8 -1 15 6 15 6 0 10 6 8 12 -3 7
1 19 9 26 7 7 13 22 13 33 0 13 4 18 12 13 8 -5 9 -2 5 9 -3 9 -2 19 4 22 5 4
7 11 4 16 -4 5 -2 9 2 9 5 0 14 9 21 21 8 12 9 18 3 14 -16 -9 -13 4 4 22 8 8
13 18 10 23 -3 4 2 11 11 14 9 4 14 9 11 13 -3 3 0 18 8 33 8 15 11 30 8 34
-4 3 -1 6 5 6 7 0 12 9 12 20 0 11 5 20 11 20 6 0 9 7 5 15 -3 8 -1 15 4 15 6
0 10 7 10 15 0 8 5 15 12 15 6 0 9 3 5 6 -3 4 0 19 9 35 8 16 12 29 9 29 -4 0
1 7 9 16 9 8 16 24 16 34 0 10 5 20 10 22 6 2 12 13 13 26 0 12 4 22 8 22 7 0
22 39 20 53 -1 4 4 7 11 7 6 0 9 3 5 6 -3 4 0 19 9 35 8 16 11 29 7 29 -5 0
-2 4 6 9 9 6 -4 10 -41 12 -39 3 -59 0 -70 -11z"/>
<path d="M11515 7392 c-22 -1 -47 -6 -55 -9 -8 -4 -25 -8 -38 -9 -13 -2 -31
-9 -40 -16 -11 -9 -14 -10 -8 -1 5 9 2 11 -8 7 -9 -3 -16 -10 -16 -15 0 -5 -3
-8 -7 -8 -19 3 -34 -2 -29 -9 2 -4 -4 -8 -14 -9 -11 -1 -31 -12 -45 -26 l-26
-23 22 -42 c21 -39 49 -57 49 -31 0 5 4 8 9 5 5 -3 12 1 15 10 3 9 13 14 20
11 8 -3 17 1 20 9 3 8 9 13 13 12 4 -1 18 3 29 10 12 6 24 8 28 5 3 -3 6 -2 6
4 0 5 14 9 30 8 17 -1 33 2 36 7 3 4 9 6 14 3 5 -3 20 -1 34 5 16 6 27 6 31
-1 4 -5 11 -7 16 -4 5 4 9 0 9 -7 0 -8 3 -9 8 -3 8 12 37 13 48 2 4 -4 16 -7
26 -7 10 0 18 -4 18 -10 0 -5 6 -10 13 -10 16 0 66 -57 79 -90 6 -14 12 -39
13 -57 1 -17 5 -36 9 -41 3 -6 2 -13 -3 -17 -6 -3 -8 -12 -4 -20 6 -17 19 -16
-212 -17 -113 -1 -165 -4 -165 -12 0 -6 -5 -4 -10 4 -7 11 -10 11 -10 2 0 -7
-4 -11 -8 -8 -5 3 -19 -1 -33 -7 -13 -7 -31 -12 -39 -12 -8 0 -26 -11 -39 -25
-14 -14 -29 -24 -33 -22 -9 2 -27 -36 -24 -51 0 -5 -7 -13 -16 -18 -10 -5 -15
-18 -13 -29 2 -11 0 -20 -4 -20 -11 0 -4 -98 10 -142 7 -21 16 -38 21 -38 5 0
6 -4 3 -10 -3 -5 1 -10 10 -10 9 0 14 -4 11 -9 -3 -5 7 -17 22 -27 42 -29 72
-43 72 -36 0 4 5 -1 11 -11 6 -9 14 -15 20 -12 5 4 15 3 22 -2 16 -10 197 -12
197 -2 0 5 7 6 15 3 8 -4 15 -1 15 5 0 6 6 8 13 5 7 -2 27 2 43 11 16 8 35 15
42 15 7 0 11 4 8 9 -6 9 11 20 26 17 4 0 15 9 23 22 21 29 36 28 31 -3 -3 -13
0 -28 6 -31 7 -4 6 -9 -1 -14 -18 -11 -1 -42 20 -37 11 3 19 0 19 -6 0 -8 3
-8 8 -2 4 6 17 10 29 9 13 -1 28 5 34 12 9 11 8 14 -1 14 -10 0 -10 3 0 15 10
12 10 15 0 15 -10 0 -10 4 1 16 8 9 9 18 3 22 -11 8 -12 27 -2 37 4 4 3 15 -2
25 -5 10 -6 20 -3 24 11 11 12 36 1 36 -6 0 -5 7 3 16 8 9 9 18 3 22 -11 8
-12 27 -2 37 4 4 3 15 -2 25 -5 10 -6 20 -3 24 10 9 10 56 0 56 -4 0 -3 9 3
19 7 14 6 21 -3 24 -9 4 -9 6 0 6 9 1 10 8 4 24 -5 13 -5 30 -1 37 5 8 4 22
-1 32 -5 10 -6 18 -1 18 4 0 8 9 8 20 0 11 -3 20 -7 20 -4 0 -6 8 -4 18 1 9
-6 38 -15 65 -10 26 -16 47 -14 47 3 0 -6 12 -20 27 -14 15 -22 31 -19 37 3 6
3 8 -1 4 -5 -4 -16 1 -26 10 -31 28 -103 61 -150 69 -36 6 -129 8 -175 5z
m305 -481 c12 -1 13 -3 1 -10 -9 -6 -10 -11 -2 -15 7 -5 8 -13 2 -25 -6 -10
-6 -23 -1 -31 5 -9 5 -19 -1 -26 -5 -7 -9 -16 -8 -20 4 -20 -14 -73 -23 -68
-5 3 -12 -3 -15 -15 -3 -11 -14 -23 -24 -26 -10 -4 -19 -11 -19 -16 0 -10 -49
-34 -62 -31 -5 1 -8 -2 -8 -6 0 -4 -14 -9 -32 -10 -18 -2 -36 -8 -40 -15 -6
-9 -8 -9 -8 0 0 9 -7 10 -25 3 -18 -7 -25 -6 -25 3 0 8 -4 7 -10 -3 -5 -8 -10
-10 -10 -4 0 6 -6 11 -12 11 -45 3 -68 8 -68 16 0 4 -4 5 -10 2 -5 -3 -10 -1
-10 6 0 7 -3 9 -7 6 -9 -10 -34 14 -26 26 3 5 2 7 -4 4 -19 -12 -45 35 -45 83
0 58 3 70 25 91 12 12 15 19 7 15 -8 -4 -4 1 10 12 13 11 28 19 31 16 4 -2 9
0 11 5 1 6 16 12 32 15 16 3 30 7 32 8 3 3 312 2 344 -1z"/>
<path d="M16704 7379 c-2 -4 0 -10 6 -14 6 -4 8 -11 5 -16 -4 -5 -1 -9 4 -9 6
0 10 -3 9 -7 -1 -5 3 -18 10 -30 7 -13 9 -23 5 -23 -4 0 2 -7 13 -16 10 -8 14
-13 7 -10 -6 4 -1 -13 13 -36 13 -24 26 -50 29 -58 3 -8 12 -28 20 -43 8 -15
10 -25 5 -22 -10 6 20 -56 31 -65 3 -3 9 -17 13 -32 3 -16 11 -28 16 -28 5 0
7 -7 4 -15 -4 -8 1 -17 9 -21 9 -3 13 -13 9 -26 -3 -14 -1 -19 6 -14 8 5 12
-2 12 -18 0 -14 5 -26 10 -26 6 0 10 -7 10 -15 0 -8 9 -30 20 -50 11 -19 17
-35 14 -35 -4 0 -1 -7 6 -15 6 -8 8 -20 4 -27 -4 -7 -4 -10 1 -6 9 8 35 -36
35 -58 0 -8 5 -14 11 -14 5 0 7 -4 4 -10 -3 -5 -1 -10 5 -10 6 0 8 -4 5 -10
-3 -5 1 -20 10 -33 20 -31 27 -65 14 -72 -5 -4 -9 -15 -9 -26 0 -10 -4 -19
-10 -19 -5 0 -10 -9 -10 -19 0 -11 -7 -27 -16 -35 -8 -9 -12 -16 -9 -16 4 0
-10 -17 -31 -37 -20 -21 -41 -37 -46 -36 -4 2 -8 -1 -8 -5 0 -5 -8 -9 -17 -10
-37 -3 -89 -2 -103 2 -43 12 -60 19 -60 27 0 5 -7 9 -15 9 -8 0 -15 5 -15 10
0 7 -6 7 -20 0 -11 -6 -20 -17 -20 -24 0 -7 -9 -21 -20 -31 -11 -10 -20 -23
-20 -29 0 -6 4 -5 9 3 7 11 10 10 15 -6 3 -11 22 -26 41 -33 19 -8 35 -16 35
-20 0 -3 17 -7 37 -8 21 -2 40 -8 44 -14 4 -7 8 -7 13 0 8 13 46 12 46 -1 0
-6 5 -5 13 0 11 9 29 12 79 16 9 1 16 6 15 11 -1 6 3 10 10 11 7 0 21 8 32 17
11 9 22 14 25 11 3 -4 6 -1 6 5 0 6 11 22 24 35 14 14 22 28 19 31 -4 3 -2 6
4 6 6 0 14 11 17 25 4 14 11 25 17 25 6 0 8 4 4 9 -3 5 1 15 8 23 8 7 12 19 9
26 -2 6 2 12 9 12 7 0 9 3 6 7 -4 3 1 12 11 20 10 9 11 11 2 7 -12 -7 -13 -5
-3 8 7 8 10 18 6 21 -3 4 -1 7 6 7 7 0 9 5 6 10 -3 6 1 13 9 16 9 3 13 10 11
15 -3 5 2 20 11 34 9 14 13 25 9 25 -5 0 0 9 10 20 10 11 15 20 10 20 -4 0 -2
7 5 15 7 8 9 15 6 15 -4 0 2 10 13 22 11 11 18 25 16 29 -7 11 16 59 28 59 6
0 7 3 4 7 -4 3 -2 12 4 20 6 7 8 13 4 13 -4 0 -2 7 5 15 7 8 9 15 4 15 -4 0 1
7 12 15 13 10 15 14 5 15 -9 0 -6 7 9 20 15 13 18 20 9 20 -10 1 -8 5 5 15 11
8 16 15 12 15 -5 0 -3 6 3 13 6 8 8 17 4 20 -3 4 -1 7 6 7 8 0 11 7 7 15 -3 8
-2 15 3 15 8 0 24 38 22 53 -1 4 3 7 8 7 9 0 26 48 23 63 -1 4 2 7 7 7 8 0 17
21 26 59 2 8 10 18 17 22 7 5 9 9 5 9 -4 0 -2 10 5 23 7 12 11 25 10 30 -1 4
3 7 9 7 5 0 8 4 4 9 -3 5 -1 12 4 16 6 3 7 13 4 22 -4 11 -3 14 5 9 7 -4 12
-1 12 9 0 13 -11 16 -60 14 -56 -2 -77 -14 -71 -42 0 -4 -5 -10 -13 -13 -8 -3
-12 -12 -10 -19 3 -7 1 -16 -5 -20 -6 -3 -11 -15 -11 -26 0 -10 -4 -19 -10
-19 -5 0 -10 -6 -10 -14 0 -7 -7 -26 -14 -42 -8 -15 -13 -31 -10 -36 3 -4 1
-8 -4 -8 -8 0 -18 -18 -37 -70 -1 -3 -12 -27 -25 -55 -13 -27 -24 -56 -26 -64
-1 -8 -6 -17 -11 -20 -4 -3 -8 -10 -9 -16 -3 -25 -17 -55 -27 -55 -6 0 -7 -3
-4 -7 4 -3 2 -12 -4 -20 -6 -7 -8 -13 -5 -13 4 0 -2 -13 -14 -30 -12 -16 -18
-30 -14 -30 3 0 1 -7 -6 -15 -6 -8 -9 -18 -6 -24 3 -5 -1 -12 -10 -15 -10 -4
-13 -13 -9 -27 5 -15 4 -19 -4 -15 -6 4 -11 1 -11 -6 0 -19 -31 30 -33 52 -1
11 -5 20 -9 20 -4 0 -8 7 -8 15 0 8 -5 15 -12 15 -6 0 -9 3 -5 6 3 4 0 19 -8
34 -8 15 -11 30 -8 34 4 3 0 6 -7 6 -7 0 -11 3 -7 6 3 4 -1 13 -9 21 -8 8 -12
19 -9 24 4 5 1 9 -5 9 -6 0 -9 4 -5 9 3 5 0 15 -7 23 -7 7 -15 22 -16 33 -2
11 -8 22 -13 23 -5 2 -9 12 -9 22 0 10 -5 22 -10 25 -6 4 -8 10 -5 15 2 4 -4
19 -15 32 -11 14 -16 28 -13 32 3 3 1 6 -5 6 -7 0 -12 5 -12 11 0 5 6 7 13 4
6 -4 4 0 -5 8 -10 8 -15 17 -11 20 3 4 1 7 -6 7 -7 0 -10 4 -6 9 3 5 -1 16 -9
24 -8 8 -12 17 -9 21 3 3 1 12 -5 19 -7 8 -9 17 -5 20 3 4 2 7 -4 7 -6 0 -14
10 -18 23 -9 27 -8 26 -25 60 -13 26 -17 28 -72 26 -32 -1 -61 -6 -64 -10z"/>
</g>
</svg>
